{
.appVersion = "3139";
classes = (
{
automatic = 1;
code = "A Aacute Abreve Acircumflex Adieresis Agrave Amacron Aogonek Aring Atilde AE B C Cacute Ccaron Ccedilla Cdotaccent D Eth Dcaron Dcroat E Eacute Ecaron Ecircumflex Edieresis Edotaccent Egrave Emacron Eogonek F G Gbreve Gcommaaccent Gdotaccent H Hbar I IJ Iacute Icircumflex Idieresis Idotaccent Igrave Imacron Iogonek J K Kcommaaccent L Lacute Lcaron Lcommaaccent Ldot Lslash M N Nacute Ncaron Ncommaaccent Ntilde Eng O Oacute Ocircumflex Odieresis Ograve Ohungarumlaut Omacron Oslash Otilde OE P Thorn Q R Racute Rcaron Rcommaaccent S Sacute Scaron Scedilla Scommaaccent Germandbls T Tbar Tcaron Tcedilla Tcommaaccent U Uacute Ucircumflex Udieresis Ugrave Uhungarumlaut Umacron Uogonek Uring V W Wacute Wcircumflex Wdieresis Wgrave X Y Yacute Ycircumflex Ydieresis Ygrave Z Zacute Zcaron Zdotaccent Aacute.ss01 Abreve.ss01 Acircumflex.ss01 Agrave.ss01 Amacron.ss01 Aring.ss01 Atilde.ss01 AE.ss01 B.ss01 C.ss01 Cacute.ss01 Ccaron.ss01 Ccedilla.ss01 D.ss01 Dcaron.ss01 Gcommaaccent.ss01 Gdotaccent.ss01 Oacute.ss01 Ocircumflex.ss01 Odieresis.ss01 Ograve.ss01 Ohungarumlaut.ss01 Omacron.ss01 Oslash.ss01 Otilde.ss01 OE.ss01 P.ss01 Q.ss01 R.ss01 Racute.ss01 Rcommaaccent.ss01 Sacute.ss01 Scaron.ss01 Scedilla.ss01 Scommaaccent.ss01 B.ss02 E.ss02 K.ss02 M.ss02 N.ss02 Ntilde.ss02 O.ss02 Oslash.ss02 S.ss02 T.ss02 W.ss02 Y.ss02 Q.ss03 S.ss03 W.ss03 Wacute.ss03 Wcircumflex.ss03 Wdieresis.ss03 Wgrave.ss03 A_V.dlig A_X.dlig L_A.dlig O_O.dlig T_V.liga V_T_F.dlig M_X.dlig.ss002 N_N.dlig.ss02";
name = Uppercase;
}
);
copyright = "Created by Frank ADEBIAYE with FontForge 2.0 (http://fontforge.sf.net). Edited by Ariel Martín Pérez.";
customParameters = (
{
name = unicodeRanges;
value = (
0,
1,
2
);
},
{
name = postscriptStrikeoutPosition;
value = 258;
},
{
name = license;

glyphs = (
{
glyphname = B;
lastChange = "2022-10-04 07:13:53 +0000";
layers = (
{
anchors = (
{
name = bottom;
position = "{237, 0}";
},
{
name = top;
position = "{177, 862}";
}
);
layerId = "74E8EC48-609C-4650-B918-3C45F21958A5";
paths = (
{
closed = 1;
nodes = (
"42 866 LINE",
"65 662 LINE",
"65 206 LINE",
"42 0 LINE",
"260 0 LINE SMOOTH",
"380 0 OFFCURVE",
"448 110 OFFCURVE",
"448 222 CURVE",
"448 305 OFFCURVE",
"404 390 OFFCURVE",
"350 434 CURVE",
"400 481 OFFCURVE",
"425 551 OFFCURVE",
"425 626 CURVE SMOOTH",
"425 744 OFFCURVE",
"363 866 OFFCURVE",
"239 866 CURVE SMOOTH"
);
},
{
closed = 1;
nodes = (
"159 787 LINE",
"257 787 LINE",
"294 750 OFFCURVE",
"320 692 OFFCURVE",
"320 626 CURVE SMOOTH",
"320 560 OFFCURVE",
"295 502 OFFCURVE",
"258 465 CURVE",
"159 465 LINE"
);
},
{
closed = 1;
nodes = (
"278 388 LINE",
"314 352 OFFCURVE",
"338 296 OFFCURVE",
"338 232 CURVE SMOOTH",
"338 168 OFFCURVE",
"314 112 OFFCURVE",
"278 76 CURVE",
"159 76 LINE",
"159 388 LINE"
);
}
);
userData = {
com.schriftgestaltung.Glyphs.lastChange = "2019-07-05 22:28:49 +0000";
};
width = 480;
}
);
leftKerningGroup = H;
note = "\012    B\012  ";
rightKerningGroup = B;
unicode = 0042;
},
{
glyphname = C;
lastChange = "2022-10-04 07:09:00 +0000";
layers = (
{
anchors = (
{
name = bottom;
position = "{408, 0}";
},
{
name = top;
position = "{348, 862}";
}
);
layerId = "74E8EC48-609C-4650-B918-3C45F21958A5";
paths = (
{
closed = 1;
nodes = (
"350 862 LINE SMOOTH",
"144 862 OFFCURVE",
"32 635 OFFCURVE",
"32 416 CURVE SMOOTH",
"32 205 OFFCURVE",
"135 -1 OFFCURVE",
"355 -1 CURVE SMOOTH",
"454 0 LINE",
"444 86 LINE",
"276 86 LINE",
"192 165 OFFCURVE",
"137 291 OFFCURVE",
"137 432 CURVE SMOOTH",
"137 572 OFFCURVE",
"192 696 OFFCURVE",
"275 775 CURVE",
"444 775 LINE",
"454 862 LINE"
);
}
);
userData = {
com.schriftgestaltung.Glyphs.lastChange = "2019-07-06 06:50:30 +0000";
};
width = 496;
}
);
leftKerningGroup = O;
note = "\012    C\012  ";
rightKerningGroup = C;
unicode = 0043;
},
{
glyphname = Ccedilla;
lastChange = "2021-01-03 21:52:44 +0000";
layers = (
{
layerId = "74E8EC48-609C-4650-B918-3C45F21958A5";
paths = (
{
closed = 1;
nodes = (
"364 19 LINE",
"345 -22 LINE",
"198 -277 LINE",
"339 -277 LINE",
"453 0 LINE",
"454 0 LINE"
);
},
{
closed = 1;
nodes = (
"350 862 LINE SMOOTH",
"144 862 OFFCURVE",
"32 635 OFFCURVE",
"32 416 CURVE SMOOTH",
"32 205 OFFCURVE",
"135 -1 OFFCURVE",
"355 -1 CURVE SMOOTH",
"454 0 LINE",
"444 86 LINE",
"276 86 LINE",
"192 165 OFFCURVE",
"137 291 OFFCURVE",
"137 432 CURVE SMOOTH",
"137 572 OFFCURVE",
"192 696 OFFCURVE",
"275 775 CURVE",
"444 775 LINE",
"454 862 LINE"
);
}
);
userData = {
com.schriftgestaltung.Glyphs.lastChange = "2019-07-05 22:28:49 +0000";
};
width = 486;
}
);
leftKerningGroup = O;
note = "\012    Ccedilla\012  ";
rightKerningGroup = C;
unicode = 00C7;
},
{
glyphname = D;
lastChange = "2022-10-04 07:14:25 +0000";
layers = (
{
anchors = (
{
name = bottom;
position = "{287, 0}";
},
{
name = center;
position = "{287, 431}";
},
{
name = top;
position = "{214, 870}";
}
);
layerId = "74E8EC48-609C-4650-B918-3C45F21958A5";
paths = (
{
closed = 1;
nodes = (
"42 863 CURVE",
"64 660 LINE",
"64 203 LINE",
"42 0 LINE",
"219 0 LINE SMOOTH",
"432 0 OFFCURVE",
"542 208 OFFCURVE",
"542 416 CURVE SMOOTH",
"542 635 OFFCURVE",
"420 869 OFFCURVE",
"214 869 CURVE SMOOTH",
"162 869 OFFCURVE",
"126 867 OFFCURVE"
);
},
{
closed = 1;
nodes = (
"159 776 LINE",
"290 776 LINE",
"373 697 OFFCURVE",
"427 572 OFFCURVE",
"427 432 CURVE SMOOTH",
"427 291 OFFCURVE",
"373 166 OFFCURVE",
"289 87 CURVE",
"159 87 LINE"
);
}
);
userData = {
com.schriftgestaltung.Glyphs.lastChange = "2019-07-05 22:28:49 +0000";
};
width = 574;
}
);
leftKerningGroup = H;
note = "\012    D\012  ";
rightKerningGroup = O;
unicode = 0044;
},
{
glyphname = Eth;
lastChange = "2021-01-03 21:52:44 +0000";
layers = (
{
components = (
{
name = D;
transform = "{1, 0, 0, 1, 116, 0}";
}
);
layerId = "74E8EC48-609C-4650-B918-3C45F21958A5";
paths = (
{
closed = 1;
nodes = (
"438 499 LINE",
"235 463 LINE",
"32 463 LINE",
"32 354 LINE",
"235 389 LINE",
"438 389 LINE"
);
}
);
userData = {
com.schriftgestaltung.Glyphs.lastChange = "2019-07-05 22:28:49 +0000";
};
width = 700;
}
);
note = "\012    Eth\012  ";
rightKerningGroup = O;
unicode = 00D0;
},
{
glyphname = F;
lastChange = "2022-10-04 07:14:57 +0000";
layers = (
{
anchors = (
{
name = bottom;
position = "{189, 0}";
},
{
name = top;
position = "{189, 862}";
}
);
layerId = "74E8EC48-609C-4650-B918-3C45F21958A5";
paths = (
{
closed = 1;
nodes = (
"42 863 LINE",
"64 660 LINE",
"64 203 LINE",
"42 0 LINE",
"159 0 LINE",
"159 377 LINE",
"336 377 LINE",
"336 486 LINE",
"158 464 LINE",
"158 776 LINE",
"336 776 LINE",
"336 863 LINE"
);
}
);
userData = {
com.schriftgestaltung.Glyphs.lastChange = "2019-07-05 22:28:49 +0000";
};
width = 378;
}
);
leftKerningGroup = H;
note = "\012    F\012  ";
rightKerningGroup = F;
unicode = 0046;
},
{
glyphname = G;
lastChange = "2022-10-04 07:10:34 +0000";
layers = (
{
anchors = (
{
name = bottom;
position = "{364, 0}";
},
{
name = top;
position = "{400, 862}";
}
);
layerId = "74E8EC48-609C-4650-B918-3C45F21958A5";
paths = (
{
closed = 1;
nodes = (
"364 862 LINE SMOOTH",
"155 862 OFFCURVE",
"32 642 OFFCURVE",
"32 419 CURVE SMOOTH",
"32 207 OFFCURVE",
"144 0 OFFCURVE",
"364 0 CURVE SMOOTH",
"554 0 LINE",
"540 116 LINE",
"540 456 LINE",
"446 456 LINE",
"242 481 LINE",
"242 372 LINE",
"446 372 LINE",
"446 87 LINE",
"285 87 LINE",
"201 166 OFFCURVE",
"147 296 OFFCURVE",
"147 437 CURVE SMOOTH",
"147 577 OFFCURVE",
"201 696 OFFCURVE",
"284 775 CURVE",
"547 775 LINE",
"556 862 LINE"
);
}
);
userData = {
com.schriftgestaltung.Glyphs.lastChange = "2019-07-05 22:28:49 +0000";
};
width = 598;
}
);
leftKerningGroup = O;
note = "\012    G\012  ";
rightKerningGroup = G;
unicode = 0047;
},
{
glyphname = H;
lastChange = "2021-01-03 21:52:44 +0000";
layers = (
{
anchors = (
{
name = bottom;
position = "{242, 0}";
},
{
name = center;
position = "{242, 431}";
},
{
name = top;
position = "{242, 862}";
},
{
name = topleft;
position = "{20, 862}";
}
);
layerId = "74E8EC48-609C-4650-B918-3C45F21958A5";
paths = (
{
closed = 1;
nodes = (
"42 863 LINE",
"65 660 LINE",
"65 203 LINE",
"42 0 LINE",
"158 0 LINE",
"159 359 LINE",
"324 359 LINE",
"324 0 LINE",
"442 0 LINE",
"419 203 LINE",
"419 660 LINE",
"442 863 LINE",
"325 863 LINE",
"325 443 LINE",
"159 443 LINE",
"158 863 LINE"
);
}
);
userData = {
com.schriftgestaltung.Glyphs.lastChange = "2019-07-05 22:28:49 +0000";
};
width = 484;
}
);
leftKerningGroup = H;
note = "\012    H\012  ";
rightKerningGroup = H;
unicode = 0048;
},
{
glyphname = Hbar;
lastChange = "2021-01-03 21:52:44 +0000";
layers = (
{
layerId = "74E8EC48-609C-4650-B918-3C45F21958A5";
paths = (
{
closed = 1;
nodes = (
"109 863 LINE",
"132 660 LINE",
"132 203 LINE",
"109 0 LINE",
"225 0 LINE",
"226 359 LINE",
"391 359 LINE",
"391 0 LINE",
"509 0 LINE",
"486 203 LINE",
"486 660 LINE",
"509 863 LINE",
"392 863 LINE",
"392 443 LINE",
"226 443 LINE",
"225 863 LINE"
);
},
{
closed = 1;
nodes = (
"596 692 LINE",
"392 670 LINE",
"226 670 LINE",
"22 692 LINE",
"22 565 LINE",
"226 588 LINE",
"392 588 LINE",
"596 565 LINE"
);
}
);
userData = {
com.schriftgestaltung.Glyphs.lastChange = "2019-07-05 22:28:49 +0000";
};
width = 618;
}
);
unicode = 0126;
},
{
glyphname = I;
lastChange = "2022-10-04 08:38:08 +0000";
layers = (
{
anchors = (
{
name = bottom;
position = "{122, 0}";
},
{
name = ogonek;
position = "{123, 10}";
},
{
name = top;
position = "{122, 862}";
},
{
name = topleft;
position = "{20, 862}";
}
);
layerId = "74E8EC48-609C-4650-B918-3C45F21958A5";
paths = (
{
closed = 1;
nodes = (
"52 776 LINE",
"75 573 LINE",
"75 203 LINE",
"52 0 LINE",
"192 0 LINE",
"169 203 LINE",
"169 573 LINE",
"192 776 LINE"
);
},
{
closed = 1;
nodes = (
"53 926 LINE",
"65 832 LINE",
"180 832 LINE",
"190 926 LINE"
);
}
);
userData = {
com.schriftgestaltung.Glyphs.lastChange = "2019-07-07 08:04:11 +0000";
};
width = 244;
}
);
leftKerningGroup = I;
note = "\012    I\012  ";
rightKerningGroup = I;
unicode = 0049;
},
{
glyphname = IJ;
lastChange = "2021-01-03 21:52:44 +0000";
layers = (
{
layerId = "74E8EC48-609C-4650-B918-3C45F21958A5";
paths = (
{
closed = 1;
nodes = (
"42 776 LINE",
"65 573 LINE",
"65 500 LINE",
"42 297 LINE",
"159 297 LINE",
"159 500 LINE",
"159 573 LINE",
"182 776 LINE"
);
},
{
closed = 1;
nodes = (
"43 926 LINE",
"55 832 LINE",
"160 832 LINE",
"170 926 LINE"
);
},
{
closed = 1;
nodes = (
"297 863 LINE",
"297 87 LINE",
"161 87 LINE",
"161 247 LINE",
"42 247 LINE",
"67 44 LINE",
"67 0 LINE",
"391 0 LINE",
"391 660 LINE",
"414 863 LINE"
);
}
);
userData = {
com.schriftgestaltung.Glyphs.lastChange = "2019-07-05 22:28:49 +0000";
};
width = 456;
}
);
unicode = 0132;
},
{
glyphname = Iacute;
lastChange = "2022-10-04 07:15:24 +0000";
layers = (
{
anchors = (
{
name = bottom;
position = "{122, 0}";
},
{
name = ogonek;
position = "{220, 10}";
},
{
name = top;
position = "{122, 971}";
},
{
name = topleft;
position = "{20, 862}";
}
);
layerId = "74E8EC48-609C-4650-B918-3C45F21958A5";
paths = (
{
closed = 1;
nodes = (
"52 776 LINE",
"75 573 LINE",
"75 203 LINE",
"52 0 LINE",
"192 0 LINE",
"169 203 LINE",
"169 573 LINE",
"192 776 LINE"
);
},
{
closed = 1;
nodes = (
"249 854 LINE",
"249 971 LINE",
"45 938 LINE",
"-5 938 LINE",
"-5 854 LINE"
);
}
);
userData = {
com.schriftgestaltung.Glyphs.lastChange = "2019-07-05 22:28:49 +0000";
};
width = 244;
}
);
leftKerningGroup = I;
rightKerningGroup = I;
unicode = 00CD;
},
{
glyphname = Icircumflex;
lastChange = "2022-10-04 07:15:24 +0000";
layers = (
{
anchors = (
{
name = bottom;
position = "{122, 0}";
},
{
name = ogonek;
position = "{220, 10}";
},
{
name = top;
position = "{122, 934}";
},
{
name = topleft;
position = "{20, 862}";
}
);
layerId = "74E8EC48-609C-4650-B918-3C45F21958A5";
paths = (
{
closed = 1;
nodes = (
"52 776 LINE",
"75 573 LINE",
"75 203 LINE",
"52 0 LINE",
"192 0 LINE",
"169 203 LINE",
"169 573 LINE",
"192 776 LINE"
);
},
{
closed = 1;
nodes = (
"-5 934 LINE",
"-5 828 LINE",
"122 852 LINE",
"249 828 LINE",
"249 934 LINE"
);
}
);
userData = {
com.schriftgestaltung.Glyphs.lastChange = "2019-07-05 22:28:49 +0000";
};
width = 244;
}
);
leftKerningGroup = I;
rightKerningGroup = I;
unicode = 00CE;
},
{
glyphname = Idieresis;
lastChange = "2022-10-04 07:15:24 +0000";
layers = (
{
anchors = (
{
name = bottom;
position = "{122, 0}";
},
{
name = ogonek;
position = "{220, 10}";
},
{
name = top;
position = "{122, 970}";
},
{
name = topleft;
position = "{20, 862}";
}
);
layerId = "74E8EC48-609C-4650-B918-3C45F21958A5";
paths = (
{
closed = 1;
nodes = (
"52 776 LINE",
"75 573 LINE",
"75 203 LINE",
"52 0 LINE",
"192 0 LINE",
"169 203 LINE",
"169 573 LINE",
"192 776 LINE"
);
},
{
closed = 1;
nodes = (
"-3 960 LINE",
"10 854 LINE",
"106 854 LINE",
"106 960 LINE"
);
},
{
closed = 1;
nodes = (
"138 960 LINE",
"151 854 LINE",
"247 854 LINE",
"247 960 LINE"
);
}
);
userData = {
com.schriftgestaltung.Glyphs.lastChange = "2019-07-05 22:28:49 +0000";
};
width = 244;
}
);
leftKerningGroup = I;
rightKerningGroup = I;
unicode = 00CF;
},
{
glyphname = Idotaccent;
lastChange = "2022-10-04 07:15:24 +0000";
layers = (
{
anchors = (
{
name = bottom;
position = "{122, 0}";
},
{
name = ogonek;
position = "{220, 10}";
},
{
name = top;
position = "{122, 938}";
},
{
name = topleft;
position = "{20, 862}";
}
);
layerId = "74E8EC48-609C-4650-B918-3C45F21958A5";
paths = (
{
closed = 1;
nodes = (
"52 776 LINE",
"75 573 LINE",
"75 203 LINE",
"52 0 LINE",
"192 0 LINE",
"169 203 LINE",
"169 573 LINE",
"192 776 LINE"
);
},
{
closed = 1;
nodes = (
"67 938 LINE",
"80 832 LINE",
"176 832 LINE",
"176 938 LINE"
);
}
);
userData = {
com.schriftgestaltung.Glyphs.lastChange = "2019-07-05 22:28:49 +0000";
};
width = 244;
}
);
leftKerningGroup = I;
rightKerningGroup = I;
unicode = 0130;
},
{
glyphname = Igrave;
lastChange = "2022-10-04 07:15:24 +0000";
layers = (
{
anchors = (
{
name = bottom;
position = "{122, 0}";
},
{
name = ogonek;
position = "{220, 10}";
},
{
name = top;
position = "{122, 971}";
},
{
name = topleft;
position = "{20, 862}";
}
);
layerId = "74E8EC48-609C-4650-B918-3C45F21958A5";
paths = (
{
closed = 1;
nodes = (
"52 776 LINE",
"75 573 LINE",
"75 203 LINE",
"52 0 LINE",
"192 0 LINE",
"169 203 LINE",
"169 573 LINE",
"192 776 LINE"
);
},
{
closed = 1;
nodes = (
"249 938 LINE",
"199 938 LINE",
"-5 971 LINE",
"-5 854 LINE",
"249 854 LINE"
);
}
);
userData = {
com.schriftgestaltung.Glyphs.lastChange = "2019-07-05 22:28:49 +0000";
};
width = 244;
}
);
leftKerningGroup = I;
rightKerningGroup = I;
unicode = 00CC;
},
{
glyphname = Imacron;
lastChange = "2022-10-04 07:15:24 +0000";
layers = (
{
anchors = (
{
name = bottom;
position = "{122, 0}";
},
{
name = ogonek;
position = "{123, 10}";
},
{
name = top;
position = "{121.5, 1033}";
},
{
name = topleft;
position = "{20, 862}";
}
);
layerId = "74E8EC48-609C-4650-B918-3C45F21958A5";
paths = (
{
closed = 1;
nodes = (
"52 776 LINE",
"75 573 LINE",
"75 203 LINE",
"52 0 LINE",
"192 0 LINE",
"169 203 LINE",
"169 573 LINE",
"192 776 LINE"
);
},
{
closed = 1;
nodes = (
"254 936 LINE",
"122 926 LINE",
"-11 936 LINE",
"-11 832 LINE",
"122 842 LINE",
"254 832 LINE"
);
}
);
userData = {
com.schriftgestaltung.Glyphs.lastChange = "2019-07-05 22:28:49 +0000";
};
width = 244;
}
);
leftKerningGroup = I;
rightKerningGroup = I;
unicode = 012A;
},
{
glyphname = J;
lastChange = "2022-10-04 08:06:05 +0000";
layers = (
{
anchors = (
{
name = bottom;
position = "{228, 0}";
},
{
name = top;
position = "{228, 862}";
}
);
layerId = "74E8EC48-609C-4650-B918-3C45F21958A5";
paths = (
{
closed = 1;
nodes = (
"297 863 LINE",
"297 87 LINE",
"161 87 LINE",
"161 547 LINE",
"42 547 LINE",
"67 344 LINE",
"67 0 LINE",
"391 0 LINE",
"391 660 LINE",
"414 863 LINE"
);
}
);
userData = {
com.schriftgestaltung.Glyphs.lastChange = "2019-07-06 08:04:45 +0000";
};
width = 456;
}
);
leftKerningGroup = J;
note = "\012    J\012  ";
unicode = 004A;
},
{
glyphname = K;
lastChange = "2022-10-04 09:58:48 +0000";
layers = (
{
anchors = (
{
name = bottom;
position = "{273, 0}";
},
{
name = top;
position = "{273, 862}";
}
);
layerId = "74E8EC48-609C-4650-B918-3C45F21958A5";
paths = (
{
closed = 1;
nodes = (
"42 863 LINE",
"65 660 LINE",
"65 203 LINE",
"42 0 LINE",
"182 0 LINE",
"159 203 LINE",
"159 660 LINE",
"182 863 LINE"
);
},
{
closed = 1;
nodes = (
"503 862 LINE",
"358 862 LINE",
"182 431 LINE",
"358 0 LINE",
"503 0 LINE",
"356 254 LINE",
"283 431 LINE",
"356 608 LINE"
);
}
);
userData = {
com.schriftgestaltung.Glyphs.lastChange = "2019-07-05 22:28:49 +0000";
};
width = 545;
}
);
leftKerningGroup = H;
note = "\012    K\012  ";
rightKerningGroup = K;
unicode = 004B;
},
{
glyphname = L;
lastChange = "2021-01-03 21:52:44 +0000";
layers = (
{
anchors = (
{
name = bottom;
position = "{212, 0}";
},
{
name = center;
position = "{212, 431}";
},
{
name = top;
position = "{92, 862}";
},
{
name = topright;
position = "{403, 862}";
}
);
layerId = "74E8EC48-609C-4650-B918-3C45F21958A5";
paths = (
{
closed = 1;
nodes = (
"42 862 LINE",
"43 0 LINE",
"381 0 LINE",
"381 87 LINE",
"156 87 LINE",
"141 207 LINE",
"141 862 LINE"
);
}
);
userData = {
com.schriftgestaltung.Glyphs.lastChange = "2019-07-06 17:18:24 +0000";
};
width = 423;
}
);
note = "\012    L\012  ";
rightKerningGroup = L;
unicode = 004C;
},
{
glyphname = Lslash;
lastChange = "2022-10-04 07:15:54 +0000";
layers = (
{
layerId = "74E8EC48-609C-4650-B918-3C45F21958A5";
paths = (
{
closed = 1;
nodes = (
"289 605 LINE",
"136 530 LINE",
"12 500 LINE",
"12 394 LINE",
"136 459 LINE",
"289 499 LINE"
);
},
{
closed = 1;
nodes = (
"42 862 LINE",
"43 0 LINE",
"381 0 LINE",
"381 87 LINE",
"156 87 LINE",
"141 207 LINE",
"141 862 LINE"
);
}
);
userData = {
com.schriftgestaltung.Glyphs.lastChange = "2019-07-05 22:28:49 +0000";
};
width = 423;
}
);
leftKerningGroup = H;
rightKerningGroup = L;
unicode = 0141;
},
{
glyphname = M;
lastChange = "2021-01-03 21:52:44 +0000";
layers = (
{
anchors = (
{
name = bottom;
position = "{357, 0}";
},
{
name = top;
position = "{357, 862}";
}
);
layerId = "74E8EC48-609C-4650-B918-3C45F21958A5";
paths = (
{
closed = 1;
nodes = (
"42 864 LINE",
"65 661 LINE",
"65 203 LINE",
"42 0 LINE",
"159 0 LINE",
"159 638 LINE",
"308 257 LINE",
"406 257 LINE",
"555 637 LINE",
"555 -1 LINE",
"672 -1 LINE",
"649 203 LINE",
"649 660 LINE",
"672 863 LINE",
"555 863 LINE",
"555 857 LINE",
"357 386 LINE",
"159 858 LINE",
"159 864 LINE"
);
}
);
userData = {
com.schriftgestaltung.Glyphs.lastChange = "2019-07-05 22:28:49 +0000";
};
width = 714;
}
);
leftKerningGroup = H;
note = "\012    M\012  ";
rightKerningGroup = H;
unicode = 004D;
},
{
glyphname = N;
lastChange = "2021-01-03 21:52:44 +0000";
layers = (
{
anchors = (
{
name = bottom;
position = "{304, 0}";
},
{
name = top;
position = "{304, 862}";
}
);
layerId = "74E8EC48-609C-4650-B918-3C45F21958A5";
paths = (
{
closed = 1;
nodes = (
"447 864 LINE",
"447 175 LINE",
"408 243 LINE",
"159 864 LINE",
"42 864 LINE",
"65 660 LINE",
"65 203 LINE",
"42 0 LINE",
"159 0 LINE",
"159 633 LINE",
"413 -1 LINE",
"565 -1 LINE",
"541 203 LINE",
"541 661 LINE",
"564 864 LINE"
);
}
);
userData = {
com.schriftgestaltung.Glyphs.lastChange = "2019-07-05 22:28:49 +0000";
};
width = 607;
}
);
leftKerningGroup = H;
note = "\012    N\012  ";
rightKerningGroup = H;
unicode = 004E;
},
{
glyphname = Eng;
lastChange = "2022-10-04 07:16:11 +0000";
layers = (
{
layerId = "74E8EC48-609C-4650-B918-3C45F21958A5";
paths = (
{
closed = 1;
nodes = (
"447 864 LINE",
"447 175 LINE",
"408 243 LINE",
"159 864 LINE",
"42 864 LINE",
"65 660 LINE",
"65 203 LINE",
"42 0 LINE",
"159 0 LINE",
"159 633 LINE",
"413 -1 LINE",
"504 0 LINE",
"541 203 LINE",
"541 661 LINE",
"564 864 LINE"
);
},
{
closed = 1;
nodes = (
"541 468 LINE",
"447 468 LINE",
"447 11 LINE",
"424 -192 LINE",
"541 -192 LINE"
);
},
{
closed = 1;
nodes = (
"383 -192 LINE",
"473 -192 LINE",
"461 -105 LINE",
"383 -105 LINE"
);
}
);
userData = {
com.schriftgestaltung.Glyphs.lastChange = "2019-07-05 22:28:49 +0000";
};
width = 600;
}
);
leftKerningGroup = H;
rightKerningGroup = H;
unicode = 014A;
},
{
glyphname = O;
lastChange = "2022-10-04 11:08:24 +0000";
layers = (
{
anchors = (
{
name = bottom;
position = "{381, 0}";
},
{
name = center;
position = "{381, 431}";
},
{
name = ogonek;
position = "{686, 10}";
},
{
name = top;
position = "{381, 862}";
},
{
name = topleft;
position = "{20, 862}";
},
{
name = topright;
position = "{742, 862}";
}
);
layerId = "74E8EC48-609C-4650-B918-3C45F21958A5";
paths = (
{
closed = 1;
nodes = (
"350 872 LINE SMOOTH",
"141 872 OFFCURVE",
"32 642 OFFCURVE",
"32 420 CURVE SMOOTH",
"32 209 OFFCURVE",
"130 -10 OFFCURVE",
"350 -10 CURVE SMOOTH",
"412 -10 LINE SMOOTH",
"632 -10 OFFCURVE",
"730 209 OFFCURVE",
"730 420 CURVE SMOOTH",
"730 642 OFFCURVE",
"621 872 OFFCURVE",
"412 872 CURVE SMOOTH"
);
},
{
closed = 1;
nodes = (
"478 783 LINE",
"561 704 OFFCURVE",
"615 577 OFFCURVE",
"615 437 CURVE SMOOTH",
"615 296 OFFCURVE",
"560 165 OFFCURVE",
"476 86 CURVE",
"286 86 LINE",
"202 165 OFFCURVE",
"147 296 OFFCURVE",
"147 437 CURVE SMOOTH",
"147 577 OFFCURVE",
"201 704 OFFCURVE",
"284 783 CURVE"
);
}
);
userData = {
com.schriftgestaltung.Glyphs.lastChange = "2019-07-06 06:52:54 +0000";
};
width = 762;
}
);
leftKerningGroup = O;
note = "\012    O\012  ";
rightKerningGroup = O;
unicode = 004F;
},
{
glyphname = OE;
lastChange = "2022-10-04 07:16:26 +0000";
layers = (
{
layerId = "74E8EC48-609C-4650-B918-3C45F21958A5";
paths = (
{
closed = 1;
nodes = (
"395 863 LINE",
"418 660 LINE",
"418 203 LINE",
"395 0 LINE",
"691 0 LINE",
"691 87 LINE",
"513 87 LINE",
"513 377 LINE",
"690 377 LINE",
"691 486 LINE",
"513 464 LINE",
"513 776 LINE",
"691 776 LINE",
"691 863 LINE"
);
},
{
closed = 1;
nodes = (
"585 814 LINE",
"540 851 OFFCURVE",
"486 872 OFFCURVE",
"422 872 CURVE SMOOTH",
"360 872 LINE SMOOTH",
"151 872 OFFCURVE",
"42 642 OFFCURVE",
"42 420 CURVE SMOOTH",
"42 209 OFFCURVE",
"140 -10 OFFCURVE",
"360 -10 CURVE SMOOTH",
"422 -10 LINE SMOOTH",
"496 -10 OFFCURVE",
"557 15 OFFCURVE",
"604 56 CURVE",
"486 86 LINE",
"296 86 LINE",
"212 165 OFFCURVE",
"157 296 OFFCURVE",
"157 437 CURVE SMOOTH",
"157 577 OFFCURVE",
"211 704 OFFCURVE",
"294 783 CURVE",
"488 783 LINE",
"491 781 OFFCURVE",
"493 778 OFFCURVE",
"496 776 CURVE"
);
}
);
userData = {
com.schriftgestaltung.Glyphs.lastChange = "2019-07-05 22:28:49 +0000";
};
width = 733;
}
);
leftKerningGroup = O;
note = "\012    OE\012  ";
rightKerningGroup = E;
unicode = 0152;
},
{
glyphname = P;
lastChange = "2022-10-04 07:16:37 +0000";
layers = (
{
anchors = (
{
name = bottom;
position = "{260, 0}";
},
{
name = top;
position = "{260, 862}";
}
);
layerId = "74E8EC48-609C-4650-B918-3C45F21958A5";
paths = (
{
closed = 1;
nodes = (
"42 863 LINE",
"65 660 LINE",
"65 203 LINE",
"42 0 LINE",
"181 0 LINE",
"160 191 LINE",
"223 188 LINE",
"224 188 LINE SMOOTH",
"397 188 OFFCURVE",
"488 351 OFFCURVE",
"488 515 CURVE SMOOTH",
"488 687 OFFCURVE",
"390 863 OFFCURVE",
"224 863 CURVE SMOOTH"
);
},
{
closed = 1;
nodes = (
"171 776 LINE",
"291 776 LINE",
"349 719 OFFCURVE",
"388 627 OFFCURVE",
"388 527 CURVE SMOOTH",
"388 426 OFFCURVE",
"350 333 OFFCURVE",
"291 276 CURVE",
"159 276 LINE",
"159 660 LINE"
);
}
);
userData = {
com.schriftgestaltung.Glyphs.lastChange = "2019-07-06 08:15:22 +0000";
};
width = 520;
}
);
leftKerningGroup = H;
note = "\012    P\012  ";
rightKerningGroup = P;
unicode = 0050;
},
{
glyphname = Thorn;
lastChange = "2021-01-03 21:52:44 +0000";
layers = (
{
layerId = "74E8EC48-609C-4650-B918-3C45F21958A5";
paths = (
{
closed = 1;
nodes = (
"42 863 LINE",
"65 660 LINE",
"65 203 LINE",
"42 0 LINE",
"182 0 LINE",
"167 128 LINE",
"416 128 LINE",
"393 331 LINE",
"393 532 LINE",
"416 735 LINE",
"167 735 LINE",
"182 863 LINE"
);
},
{
closed = 1;
nodes = (
"159 648 LINE",
"299 648 LINE",
"299 215 LINE",
"159 215 LINE"
);
}
);
userData = {
com.schriftgestaltung.Glyphs.lastChange = "2019-07-05 22:28:49 +0000";
};
width = 448;
}
);
leftKerningGroup = H;
note = "\012    Thorn\012  ";
unicode = 00DE;
},
{
glyphname = Q;
lastChange = "2021-01-03 21:52:44 +0000";
layers = (
{
layerId = "74E8EC48-609C-4650-B918-3C45F21958A5";
paths = (
{
closed = 1;
nodes = (
"350 872 LINE SMOOTH",
"141 872 OFFCURVE",
"32 642 OFFCURVE",
"32 420 CURVE SMOOTH",
"32 209 OFFCURVE",
"130 -10 OFFCURVE",
"350 -10 CURVE SMOOTH",
"412 -10 LINE SMOOTH",
"632 -10 OFFCURVE",
"730 209 OFFCURVE",
"730 420 CURVE SMOOTH",
"730 642 OFFCURVE",
"621 872 OFFCURVE",
"412 872 CURVE SMOOTH"
);
},
{
closed = 1;
nodes = (
"478 783 LINE",
"561 704 OFFCURVE",
"615 577 OFFCURVE",
"615 437 CURVE SMOOTH",
"615 296 OFFCURVE",
"560 165 OFFCURVE",
"476 86 CURVE",
"286 86 LINE",
"202 165 OFFCURVE",
"147 296 OFFCURVE",
"147 437 CURVE SMOOTH",
"147 577 OFFCURVE",
"201 704 OFFCURVE",
"284 783 CURVE"
);
},
{
closed = 1;
nodes = (
"350 0 LINE",
"465 -277 LINE",
"596 -277 LINE",
"439 -22 LINE",
"430 0 LINE"
);
}
);
userData = {
com.schriftgestaltung.Glyphs.lastChange = "2019-07-05 22:28:49 +0000";
};
width = 762;
}
);
leftKerningGroup = O;
rightKerningGroup = O;
unicode = 0051;
},
{
glyphname = R;
lastChange = "2022-10-04 11:19:59 +0000";
layers = (
{
anchors = (
{
name = bottom;
position = "{271, 0}";
},
{
name = top;
position = "{231, 872}";
}
);
layerId = "74E8EC48-609C-4650-B918-3C45F21958A5";
paths = (
{
closed = 1;
nodes = (
"190 870 OFFCURVE",
"115 869 OFFCURVE",
"42 864 CURVE",
"65 661 LINE",
"65 203 LINE",
"42 0 LINE",
"159 0 LINE",
"159 398 LINE",
"216 398 LINE",
"378 0 LINE",
"509 0 LINE",
"377 255 LINE",
"306 403 LINE",
"395 428 OFFCURVE",
"447 534 OFFCURVE",
"447 638 CURVE SMOOTH",
"447 752 OFFCURVE",
"385 870 OFFCURVE",
"264 870 CURVE SMOOTH"
);
},
{
closed = 1;
nodes = (
"159 786 LINE",
"286 786 LINE",
"322 750 OFFCURVE",
"347 694 OFFCURVE",
"347 630 CURVE SMOOTH",
"347 574 OFFCURVE",
"323 518 OFFCURVE",
"287 482 CURVE",
"159 482 LINE"
);
}
);
userData = {
com.schriftgestaltung.Glyphs.lastChange = "2019-07-05 22:28:49 +0000";
};
width = 537;
}
);
leftKerningGroup = H;
note = "\012    R\012  ";
rightKerningGroup = R;
unicode = 0052;
},
{
glyphname = S;
lastChange = "2022-10-04 15:04:17 +0000";
layers = (
{
anchors = (
{
name = bottom;
position = "{261, 0}";
},
{
name = top;
position = "{261, 862}";
}
);
layerId = "74E8EC48-609C-4650-B918-3C45F21958A5";
paths = (
{
closed = 1;
nodes = (
"221 862 LINE SMOOTH",
"100 862 OFFCURVE",
"32 736 OFFCURVE",
"32 613 CURVE SMOOTH",
"32 495 OFFCURVE",
"95 383 OFFCURVE",
"220 383 CURVE SMOOTH",
"322 383 LINE",
"357 348 OFFCURVE",
"380 293 OFFCURVE",
"380 231 CURVE SMOOTH",
"380 169 OFFCURVE",
"356 121 OFFCURVE",
"322 86 CURVE",
"80 86 LINE",
"71 0 LINE",
"302 -1 LINE SMOOTH",
"421 -2 OFFCURVE",
"490 118 OFFCURVE",
"490 239 CURVE SMOOTH",
"490 355 OFFCURVE",
"425 469 OFFCURVE",
"302 469 CURVE SMOOTH",
"201 469 LINE",
"165 505 OFFCURVE",
"142 557 OFFCURVE",
"142 621 CURVE SMOOTH",
"142 684 OFFCURVE",
"166 739 OFFCURVE",
"201 775 CURVE",
"408 775 LINE",
"417 862 LINE"
);
}
);
userData = {
com.schriftgestaltung.Glyphs.lastChange = "2019-07-07 07:24:10 +0000";
};
width = 522;
}
);
leftKerningGroup = S;
note = "\012    S\012  ";
rightKerningGroup = S;
unicode = 0053;
},
{
glyphname = Germandbls;
lastChange = "2021-01-03 21:52:44 +0000";
layers = (
{
layerId = "74E8EC48-609C-4650-B918-3C45F21958A5";
paths = (
{
closed = 1;
nodes = (
"65 864 LINE",
"65 203 LINE",
"42 0 LINE",
"159 0 LINE",
"159 777 LINE",
"371 777 LINE",
"371 670 LINE",
"214 670 LINE",
"214 441 LINE",
"373 441 LINE",
"373 87 LINE",
"214 87 LINE",
"214 0 LINE",
"467 0 LINE",
"467 325 LINE",
"492 528 LINE",
"303 528 LINE",
"303 583 LINE",
"490 583 LINE",
"465 784 LINE",
"465 864 LINE"
);
}
);
userData = {
com.schriftgestaltung.Glyphs.lastChange = "2019-07-05 22:28:49 +0000";
};
width = 508;
}
);
leftKerningGroup = H;
unicode = 1E9E;
},
{
glyphname = T;
lastChange = "2022-10-04 16:28:10 +0000";
layers = (
{
anchors = (
{
name = bottom;
position = "{299, 0}";
},
{
name = center;
position = "{311, 431}";
},
{
name = top;
position = "{311, 862}";
}
);
layerId = "74E8EC48-609C-4650-B918-3C45F21958A5";
paths = (
{
closed = 1;
nodes = (
"32 862 LINE",
"32 753 LINE",
"231 775 LINE",
"252 775 LINE",
"252 0 LINE",
"350 0 LINE",
"350 658 LINE",
"365 775 LINE",
"590 775 LINE",
"590 862 LINE"
);
}
);
userData = {
com.schriftgestaltung.Glyphs.lastChange = "2019-07-06 17:32:46 +0000";
};
width = 622;
}
);
leftKerningGroup = T;
note = "\012    T\012  ";
rightKerningGroup = T;
unicode = 0054;
},
{
glyphname = Tbar;
lastChange = "2021-01-03 21:52:44 +0000";
layers = (
{
layerId = "74E8EC48-609C-4650-B918-3C45F21958A5";
paths = (
{
closed = 1;
nodes = (
"32 862 LINE",
"32 753 LINE",
"231 775 LINE",
"252 775 LINE",
"252 0 LINE",
"350 0 LINE",
"350 658 LINE",
"365 775 LINE",
"590 775 LINE",
"590 862 LINE"
);
},
{
closed = 1;
nodes = (
"537 492 LINE",
"333 470 LINE",
"267 470 LINE",
"63 492 LINE",
"63 365 LINE",
"267 388 LINE",
"333 388 LINE",
"537 365 LINE"
);
}
);
userData = {
com.schriftgestaltung.Glyphs.lastChange = "2019-07-05 22:28:49 +0000";
};
width = 622;
}
);
leftKerningGroup = T;
rightKerningGroup = T;
unicode = 0166;
},
{
glyphname = U;
lastChange = "2021-01-03 21:52:44 +0000";
layers = (
{
anchors = (
{
name = bottom;
position = "{228, 0}";
},
{
name = ogonek;
position = "{300, 10}";
},
{
name = top;
position = "{228, 862}";
},
{
name = topright;
position = "{436, 862}";
}
);
layerId = "74E8EC48-609C-4650-B918-3C45F21958A5";
paths = (
{
closed = 1;
nodes = (
"42 863 LINE",
"65 660 LINE",
"65 0 LINE",
"389 0 LINE",
"389 660 LINE",
"414 863 LINE",
"295 863 LINE",
"295 87 LINE",
"159 87 LINE",
"159 863 LINE"
);
}
);
userData = {
com.schriftgestaltung.Glyphs.lastChange = "2019-07-05 22:28:49 +0000";
};
width = 456;
}
);
note = "\012    U\012  ";
unicode = 0055;
},
{
glyphname = Uacute;
lastChange = "2021-01-03 21:52:44 +0000";
layers = (
{
anchors = (
{
name = bottom;
position = "{228, 0}";
},
{
name = ogonek;
position = "{410, 10}";
},
{
name = top;
position = "{228, 971}";
},
{
name = topright;
position = "{436, 862}";
}
);
layerId = "74E8EC48-609C-4650-B918-3C45F21958A5";
paths = (
{
closed = 1;
nodes = (
"355 854 LINE",
"355 971 LINE",
"151 938 LINE",
"101 938 LINE",
"101 854 LINE"
);
},
{
closed = 1;
nodes = (
"42 800 LINE",
"65 597 LINE",
"65 0 LINE",
"389 0 LINE",
"389 597 LINE",
"414 800 LINE",
"295 800 LINE",
"295 87 LINE",
"159 87 LINE",
"159 800 LINE"
);
}
);
userData = {
com.schriftgestaltung.Glyphs.lastChange = "2019-07-05 22:28:49 +0000";
};
width = 456;
}
);
unicode = 00DA;
},
{
glyphname = Ucircumflex;
lastChange = "2021-01-03 21:52:44 +0000";
layers = (
{
anchors = (
{
name = bottom;
position = "{228, 0}";
},
{
name = ogonek;
position = "{410, 10}";
},
{
name = top;
position = "{228, 934}";
},
{
name = topright;
position = "{436, 862}";
}
);
layerId = "74E8EC48-609C-4650-B918-3C45F21958A5";
paths = (
{
closed = 1;
nodes = (
"101 934 LINE",
"101 828 LINE",
"228 852 LINE",
"355 828 LINE",
"355 934 LINE"
);
},
{
closed = 1;
nodes = (
"42 800 LINE",
"65 597 LINE",
"65 0 LINE",
"389 0 LINE",
"389 597 LINE",
"414 800 LINE",
"295 800 LINE",
"295 87 LINE",
"159 87 LINE",
"159 800 LINE"
);
}
);
userData = {
com.schriftgestaltung.Glyphs.lastChange = "2019-07-05 22:28:49 +0000";
};
width = 456;
}
);
unicode = 00DB;
},
{
glyphname = Udieresis;
lastChange = "2021-01-03 21:52:44 +0000";
layers = (
{
anchors = (
{
name = bottom;
position = "{228, 0}";
},
{
name = ogonek;
position = "{410, 10}";
},
{
name = top;
position = "{228, 970}";
},
{
name = topright;
position = "{436, 862}";
}
);
layerId = "74E8EC48-609C-4650-B918-3C45F21958A5";
paths = (
{
closed = 1;
nodes = (
"103 960 LINE",
"116 854 LINE",
"212 854 LINE",
"212 960 LINE"
);
},
{
closed = 1;
nodes = (
"244 960 LINE",
"257 854 LINE",
"353 854 LINE",
"353 960 LINE"
);
},
{
closed = 1;
nodes = (
"42 800 LINE",
"65 597 LINE",
"65 0 LINE",
"389 0 LINE",
"389 597 LINE",
"414 800 LINE",
"295 800 LINE",
"295 87 LINE",
"159 87 LINE",
"159 800 LINE"
);
}
);
userData = {
com.schriftgestaltung.Glyphs.lastChange = "2019-07-05 22:28:49 +0000";
};
width = 456;
}
);
unicode = 00DC;
},
{
glyphname = Ugrave;
lastChange = "2021-01-03 21:52:44 +0000";
layers = (
{
anchors = (
{
name = bottom;
position = "{228, 0}";
},
{
name = ogonek;
position = "{410, 10}";
},
{
name = top;
position = "{228, 971}";
},
{
name = topright;
position = "{436, 862}";
}
);
layerId = "74E8EC48-609C-4650-B918-3C45F21958A5";
paths = (
{
closed = 1;
nodes = (
"42 800 LINE",
"65 597 LINE",
"65 0 LINE",
"389 0 LINE",
"389 597 LINE",
"414 800 LINE",
"295 800 LINE",
"295 87 LINE",
"159 87 LINE",
"159 800 LINE"
);
},
{
closed = 1;
nodes = (
"355 938 LINE",
"305 938 LINE",
"101 971 LINE",
"101 854 LINE",
"355 854 LINE"
);
}
);
userData = {
com.schriftgestaltung.Glyphs.lastChange = "2019-07-05 22:28:49 +0000";
};
width = 456;
}
);
unicode = 00D9;
},
{
glyphname = W;
lastChange = "2022-10-04 09:46:16 +0000";
layers = (
{
anchors = (
{
name = bottom;
position = "{659, 0}";
},
{
name = top;
position = "{659, 862}";
}
);
layerId = "74E8EC48-609C-4650-B918-3C45F21958A5";
paths = (
{
closed = 1;
nodes = (
"418 0 LINE",
"576 0 LINE",
"930 862 LINE",
"822 862 LINE",
"572 254 LINE",
"481 97 LINE",
"170 862 LINE",
"22 862 LINE",
"168 608 LINE"
);
},
{
closed = 1;
nodes = (
"783 0 LINE",
"941 0 LINE",
"1295 862 LINE",
"1187 862 LINE",
"937 254 LINE",
"846 97 LINE",
"535 862 LINE",
"387 862 LINE",
"533 608 LINE"
);
}
);
userData = {
com.schriftgestaltung.Glyphs.lastChange = "2019-07-05 22:28:49 +0000";
};
width = 1317;
}
);
leftKerningGroup = V;
note = "\012    W\012  ";
rightKerningGroup = V;
unicode = 0057;
},
{
glyphname = Y;
lastChange = "2022-10-04 09:46:40 +0000";
layers = (
{
anchors = (
{
name = bottom;
position = "{284, 0}";
},
{
name = top;
position = "{284, 862}";
},
{
name = topleft;
position = "{20, 862}";
}
);
layerId = "74E8EC48-609C-4650-B918-3C45F21958A5";
paths = (
{
closed = 1;
nodes = (
"32 862 LINE",
"179 608 LINE",
"261 431 LINE",
"189 254 LINE",
"42 0 LINE",
"183 0 LINE",
"534 862 LINE",
"438 862 LINE",
"310 550 LINE",
"183 862 LINE"
);
}
);
userData = {
com.schriftgestaltung.Glyphs.lastChange = "2019-07-06 08:15:25 +0000";
};
width = 566;
}
);
leftKerningGroup = X;
note = "\012    Y\012  ";
rightKerningGroup = V;
unicode = 0059;
},
{
glyphname = Z;
lastChange = "2022-10-04 11:09:27 +0000";
layers = (
{
anchors = (
{
name = bottom;
position = "{290, 0}";
},
{
name = center;
position = "{290, 431}";
},
{
name = top;
position = "{290, 862}";
}
);
layerId = "74E8EC48-609C-4650-B918-3C45F21958A5";
paths = (
{
closed = 1;
nodes = (
"32 862 LINE",
"32 775 LINE",
"408 775 LINE",
"193 254 LINE",
"46 0 LINE",
"542 0 LINE",
"542 87 LINE",
"232 87 LINE",
"548 862 LINE"
);
}
);
userData = {
com.schriftgestaltung.Glyphs.lastChange = "2019-07-07 08:06:10 +0000";
};
width = 580;
}
);
leftKerningGroup = Z;
note = "\012    Z\012  ";
rightKerningGroup = Z;
unicode = 005A;
},
{
glyphname = AE.ss01;
lastChange = "2021-01-03 21:52:44 +0000";
layers = (
{
layerId = "74E8EC48-609C-4650-B918-3C45F21958A5";
paths = (
{
closed = 1;
nodes = (
"65 863 LINE",
"65 203 LINE",
"42 0 LINE",
"159 0 LINE",
"159 367 LINE",
"295 367 LINE",
"295 0 LINE",
"384 0 LINE",
"359 203 LINE",
"359 863 LINE"
);
},
{
closed = 1;
nodes = (
"159 776 LINE",
"295 776 LINE",
"295 454 LINE",
"159 454 LINE"
);
},
{
closed = 1;
nodes = (
"272 863 LINE",
"285 660 LINE",
"285 203 LINE",
"262 0 LINE",
"558 0 LINE",
"558 87 LINE",
"380 87 LINE",
"380 377 LINE",
"557 377 LINE",
"558 486 LINE",
"380 464 LINE",
"380 776 LINE",
"558 776 LINE",
"558 863 LINE"
);
}
);
userData = {
com.schriftgestaltung.Glyphs.lastChange = "2019-07-05 22:28:49 +0000";
};
width = 600;
}
);
},
{
glyphname = B.ss01;
lastChange = "2021-01-03 21:52:44 +0000";
layers = (
{
anchors = (
{
name = bottom;
position = "{257, 0}";
},
{
name = top;
position = "{257, 862}";
}
);
layerId = "74E8EC48-609C-4650-B918-3C45F21958A5";
paths = (
{
closed = 1;
nodes = (
"159 863 LINE",
"42 863 LINE",
"65 660 LINE",
"65 203 LINE",
"42 0 LINE",
"471 0 LINE",
"449 203 LINE",
"449 532 LINE",
"471 735 LINE",
"159 735 LINE"
);
},
{
closed = 1;
nodes = (
"355 648 LINE",
"355 87 LINE",
"159 87 LINE",
"159 648 LINE"
);
}
);
userData = {
com.schriftgestaltung.Glyphs.lastChange = "2019-07-05 22:28:49 +0000";
};
width = 513;
}
);
leftKerningGroup = H;
note = "\012    uniE999\012  ";
rightKerningGroup = h;
},
{
glyphname = C.ss01;
lastChange = "2021-01-03 21:52:44 +0000";
layers = (
{
anchors = (
{
name = bottom;
position = "{185, 0}";
},
{
name = top;
position = "{185, 862}";
}
);
layerId = "74E8EC48-609C-4650-B918-3C45F21958A5";
paths = (
{
closed = 1;
nodes = (
"42 863 LINE",
"65 660 LINE",
"65 203 LINE",
"42 0 LINE",
"337 0 LINE",
"337 87 LINE",
"159 87 LINE",
"159 776 LINE",
"337 776 LINE",
"337 863 LINE"
);
}
);
userData = {
com.schriftgestaltung.Glyphs.lastChange = "2019-07-05 22:28:49 +0000";
};
width = 369;
}
);
leftKerningGroup = H;
note = "\012    uniE99A\012  ";
},
{
glyphname = D.ss01;
lastChange = "2021-01-03 21:52:44 +0000";
layers = (
{
anchors = (
{
name = bottom;
position = "{257, 0}";
},
{
name = center;
position = "{257, 431}";
},
{
name = top;
position = "{257, 862}";
}
);
layerId = "74E8EC48-609C-4650-B918-3C45F21958A5";
paths = (
{
closed = 1;
nodes = (
"42 735 LINE",
"64 532 LINE",
"64 203 LINE",
"42 0 LINE",
"471 0 LINE",
"448 203 LINE",
"448 660 LINE",
"471 863 LINE",
"354 863 LINE",
"354 735 LINE"
);
},
{
closed = 1;
nodes = (
"354 87 LINE",
"158 87 LINE",
"158 648 LINE",
"354 648 LINE"
);
}
);
userData = {
com.schriftgestaltung.Glyphs.lastChange = "2019-07-05 22:28:49 +0000";
};
width = 513;
}
);
leftKerningGroup = H;
note = "\012    uniE999\012  ";
rightKerningGroup = h;
},
{
glyphname = Oslash.ss01;
lastChange = "2021-01-03 21:52:44 +0000";
layers = (
{
components = (
{
name = _part.slash;
}
);
layerId = "74E8EC48-609C-4650-B918-3C45F21958A5";
paths = (
{
closed = 1;
nodes = (
"83 862 LINE",
"106 660 LINE",
"106 203 LINE",
"83 0 LINE",
"502 0 LINE",
"479 203 LINE",
"479 660 LINE",
"502 862 LINE"
);
},
{
closed = 1;
nodes = (
"195 776 LINE",
"390 776 LINE",
"390 87 LINE",
"195 87 LINE"
);
}
);
userData = {
com.schriftgestaltung.Glyphs.lastChange = "2019-07-05 12:33:09 +0000";
};
width = 532;
}
);
},
{
glyphname = OE.ss01;
lastChange = "2021-01-03 21:52:44 +0000";
layers = (
{
layerId = "74E8EC48-609C-4650-B918-3C45F21958A5";
paths = (
{
closed = 1;
nodes = (
"302 863 LINE",
"315 660 LINE",
"315 203 LINE",
"292 0 LINE",
"588 0 LINE",
"588 87 LINE",
"410 87 LINE",
"410 377 LINE",
"587 377 LINE",
"588 486 LINE",
"410 464 LINE",
"410 776 LINE",
"588 776 LINE",
"588 863 LINE"
);
},
{
closed = 1;
nodes = (
"362 863 LINE",
"42 863 LINE",
"65 660 LINE",
"65 203 LINE",
"42 0 LINE",
"362 0 LINE",
"362 87 LINE",
"159 87 LINE",
"159 776 LINE",
"362 776 LINE"
);
}
);
userData = {
com.schriftgestaltung.Glyphs.lastChange = "2019-07-05 12:33:09 +0000";
};
width = 630;
}
);
leftKerningGroup = O;
},
{
glyphname = P.ss01;
lastChange = "2021-01-03 21:52:44 +0000";
layers = (
{
anchors = (
{
name = bottom;
position = "{257, 0}";
},
{
name = top;
position = "{257, 862}";
}
);
layerId = "74E8EC48-609C-4650-B918-3C45F21958A5";
paths = (
{
closed = 1;
nodes = (
"471 127 LINE",
"449 330 LINE",
"449 659 LINE",
"471 862 LINE",
"42 862 LINE",
"65 659 LINE",
"65 202 LINE",
"42 -1 LINE",
"159 -1 LINE",
"159 127 LINE"
);
},
{
closed = 1;
nodes = (
"159 775 LINE",
"355 775 LINE",
"355 214 LINE",
"159 214 LINE"
);
}
);
userData = {
com.schriftgestaltung.Glyphs.lastChange = "2019-07-05 12:17:13 +0000";
};
width = 513;
}
);
leftKerningGroup = H;
note = "\012    uniE999\012  ";
rightKerningGroup = h;
},
{
glyphname = Q.ss01;
lastChange = "2021-01-03 21:52:44 +0000";
layers = (
{
anchors = (
{
name = bottom;
position = "{269, 0}";
},
{
name = top;
position = "{269, 862}";
}
);
layerId = "74E8EC48-609C-4650-B918-3C45F21958A5";
paths = (
{
closed = 1;
nodes = (
"42 863 LINE",
"65 660 LINE",
"65 203 LINE",
"42 0 LINE",
"250 0 LINE",
"365 -277 LINE",
"496 -277 LINE",
"339 -22 LINE",
"330 0 LINE",
"491 0 LINE",
"469 203 LINE",
"469 660 LINE",
"491 863 LINE"
);
},
{
closed = 1;
nodes = (
"159 776 LINE",
"375 776 LINE",
"375 87 LINE",
"159 87 LINE"
);
}
);
userData = {
com.schriftgestaltung.Glyphs.lastChange = "2019-07-04 11:12:07 +0000";
};
width = 538;
}
);
note = "\012    Q\012  ";
},
{
glyphname = R.ss01;
lastChange = "2021-01-03 21:52:44 +0000";
layers = (
{
anchors = (
{
name = bottom;
position = "{260, 0}";
},
{
name = top;
position = "{230, 862}";
}
);
layerId = "74E8EC48-609C-4650-B918-3C45F21958A5";
paths = (
{
closed = 1;
nodes = (
"65 863 LINE",
"65 203 LINE",
"42 0 LINE",
"159 0 LINE",
"159 317 LINE",
"432 317 LINE",
"407 520 LINE",
"407 863 LINE"
);
},
{
closed = 1;
nodes = (
"159 779 LINE",
"313 779 LINE",
"313 401 LINE",
"159 401 LINE"
);
},
{
closed = 1;
nodes = (
"235 350 LINE",
"378 0 LINE",
"509 0 LINE",
"367 255 LINE",
"321 350 LINE"
);
}
);
userData = {
com.schriftgestaltung.Glyphs.lastChange = "2019-07-06 07:59:05 +0000";
};
width = 541;
}
);
},
{
glyphname = B.ss02;
lastChange = "2021-01-03 21:52:44 +0000";
layers = (
{
layerId = "74E8EC48-609C-4650-B918-3C45F21958A5";
paths = (
{
closed = 1;
nodes = (
"389 200 LINE",
"414 403 LINE",
"159 402 LINE",
"159 457 LINE",
"414 457 LINE",
"389 660 LINE",
"389 862 LINE",
"65 862 LINE",
"65 202 LINE",
"42 -1 LINE",
"389 0 LINE"
);
},
{
closed = 1;
nodes = (
"295 316 LINE",
"295 87 LINE",
"159 87 LINE",
"159 316 LINE"
);
},
{
closed = 1;
nodes = (
"295 775 LINE",
"295 544 LINE",
"159 544 LINE",
"159 775 LINE"
);
}
);
userData = {
com.schriftgestaltung.Glyphs.lastChange = "2019-07-06 08:11:59 +0000";
};
width = 456;
}
);
note = "\012    uniE997\012  ";
},
{
glyphname = E.ss02;
lastChange = "2021-01-03 21:52:44 +0000";
layers = (
{
layerId = "74E8EC48-609C-4650-B918-3C45F21958A5";
paths = (
{
closed = 1;
nodes = (
"244 87 LINE",
"175 87 LINE",
"283 350 LINE",
"427 604 LINE",
"187 603 LINE",
"187 774 LINE",
"345 774 LINE",
"345 701 LINE",
"439 701 LINE",
"439 861 LINE",
"93 861 LINE",
"93 722 LINE",
"67 516 LINE",
"253 516 LINE",
"42 0 LINE",
"448 0 LINE",
"448 112 LINE"
);
}
);
userData = {
com.schriftgestaltung.Glyphs.lastChange = "2019-07-05 22:28:53 +0000";
};
width = 490;
}
);
},
{
glyphname = K.ss02;
lastChange = "2021-01-03 21:52:44 +0000";
layers = (
{
layerId = "74E8EC48-609C-4650-B918-3C45F21958A5";
paths = (
{
closed = 1;
nodes = (
"65 478 LINE",
"65 203 LINE",
"42 0 LINE",
"158 0 LINE",
"159 203 LINE",
"159 477 LINE"
);
},
{
closed = 1;
nodes = (
"716 0 LINE",
"569 254 LINE",
"391 638 LINE",
"342 519 LINE",
"565 0 LINE"
);
},
{
closed = 1;
nodes = (
"173 0 LINE",
"567 971 LINE",
"716 1225 LINE",
"563 1225 LINE",
"86 0 LINE"
);
},
{
closed = 1;
nodes = (
"159 863 LINE",
"42 863 LINE",
"65 660 LINE",
"65 447 LINE",
"159 448 LINE"
);
}
);
userData = {
com.schriftgestaltung.Glyphs.lastChange = "2019-07-06 08:05:43 +0000";
};
width = 758;
}
);
leftKerningGroup = H;
rightKerningGroup = KLONG;
},
{
glyphname = M.ss02;
lastChange = "2021-01-03 21:52:44 +0000";
layers = (
{
layerId = "74E8EC48-609C-4650-B918-3C45F21958A5";
paths = (
{
closed = 1;
nodes = (
"341 862 LINE",
"-53 -109 LINE",
"-202 -363 LINE",
"-59 -363 LINE",
"343 660 LINE",
"438 862 LINE"
);
},
{
closed = 1;
nodes = (
"370 800 LINE",
"378 257 LINE",
"496 257 LINE",
"645 637 LINE",
"645 -1 LINE",
"762 -1 LINE",
"739 203 LINE",
"739 660 LINE",
"762 863 LINE",
"645 863 LINE",
"645 857 LINE",
"447 386 LINE",
"438 862 LINE"
);
},
{
closed = 1;
nodes = (
"348 377 LINE",
"333 257 LINE",
"446 257 LINE",
"447 862 LINE",
"348 862 LINE"
);
}
);
userData = {
com.schriftgestaltung.Glyphs.lastChange = "2019-07-06 17:25:44 +0000";
};
width = 804;
}
);
leftKerningGroup = A;
rightKerningGroup = H;
},
{
glyphname = N.ss02;
lastChange = "2022-10-04 07:21:22 +0000";
layers = (
{
anchors = (
{
name = bottom;
position = "{437, 0}";
},
{
name = top;
position = "{537, 862}";
}
);
layerId = "74E8EC48-609C-4650-B918-3C45F21958A5";
paths = (
{
closed = 1;
nodes = (
"900 1227 LINE",
"501 233 LINE",
"500 864 LINE",
"419 864 LINE",
"168 253 LINE",
"22 0 LINE",
"156 0 LINE",
"407 635 LINE",
"406 0 LINE",
"491 0 LINE",
"890 973 LINE",
"1037 1227 LINE"
);
}
);
userData = {
com.schriftgestaltung.Glyphs.lastChange = "2019-07-06 08:09:37 +0000";
};
width = 873;
}
);
leftKerningGroup = A;
rightKerningGroup = V;
},
{
glyphname = O.ss02;
lastChange = "2021-01-03 21:52:44 +0000";
layers = (
{
anchors = (
{
name = bottom;
position = "{267, 0}";
},
{
name = center;
position = "{267, 431}";
},
{
name = ogonek;
position = "{472, 10}";
},
{
name = top;
position = "{267, 862}";
},
{
name = topleft;
position = "{30, 862}";
},
{
name = topright;
position = "{503, 862}";
}
);
layerId = "74E8EC48-609C-4650-B918-3C45F21958A5";
paths = (
{
closed = 1;
nodes = (
"42 863 LINE",
"65 660 LINE",
"65 203 LINE",
"42 0 LINE",
"491 0 LINE",
"468 203 LINE",
"468 660 LINE",
"491 863 LINE"
);
},
{
closed = 1;
nodes = (
"159 776 LINE",
"374 776 LINE",
"374 87 LINE",
"159 87 LINE"
);
}
);
userData = {
com.schriftgestaltung.Glyphs.lastChange = "2019-07-06 08:46:54 +0000";
};
width = 533;
}
);
leftKerningGroup = H;
note = "\012    uniEA10\012  ";
rightKerningGroup = H;
},
{
glyphname = Oslash.ss02;
lastChange = "2021-01-03 21:52:44 +0000";
layers = (
{
components = (
{
name = _part.longslash;
transform = "{1, 0, 0, 1, -122, 200}";
}
);
layerId = "74E8EC48-609C-4650-B918-3C45F21958A5";
paths = (
{
closed = 1;
nodes = (
"52 863 LINE",
"75 660 LINE",
"75 203 LINE",
"52 0 LINE",
"461 0 LINE",
"438 203 LINE",
"438 660 LINE",
"461 863 LINE"
);
},
{
closed = 1;
nodes = (
"169 776 LINE",
"344 776 LINE",
"344 87 LINE",
"169 87 LINE"
);
}
);
userData = {
com.schriftgestaltung.Glyphs.lastChange = "2019-07-05 22:28:53 +0000";
};
width = 513;
}
);
},
{
glyphname = S.ss02;
lastChange = "2021-01-03 21:52:44 +0000";
layers = (
{
layerId = "74E8EC48-609C-4650-B918-3C45F21958A5";
paths = (
{
closed = 1;
nodes = (
"68 710 LINE",
"42 506 LINE",
"255 507 LINE",
"369 87 LINE",
"246 87 LINE",
"43 112 LINE",
"43 0 LINE",
"496 0 LINE",
"335 594 LINE",
"162 594 LINE",
"162 776 LINE",
"320 776 LINE",
"320 698 LINE",
"414 698 LINE",
"414 863 LINE",
"68 863 LINE"
);
},
{
closed = 1;
nodes = (
"42 98 LINE",
"136 98 LINE",
"156 275 LINE",
"42 275 LINE"
);
}
);
userData = {
com.schriftgestaltung.Glyphs.lastChange = "2019-07-06 17:04:45 +0000";
};
width = 538;
}
);
},
{
glyphname = T.ss02;
lastChange = "2021-01-03 21:52:44 +0000";
layers = (
{
anchors = (
{
name = bottom;
position = "{147, 0}";
},
{
name = center;
position = "{147, 431}";
},
{
name = top;
position = "{147, 862}";
}
);
layerId = "74E8EC48-609C-4650-B918-3C45F21958A5";
paths = (
{
closed = 1;
nodes = (
"-132 1066 LINE",
"-132 957 LINE",
"67 979 LINE",
"88 979 LINE",
"88 0 LINE",
"186 0 LINE",
"186 862 LINE",
"201 979 LINE",
"426 979 LINE",
"426 1066 LINE"
);
}
);
userData = {
com.schriftgestaltung.Glyphs.lastChange = "2019-07-05 22:28:53 +0000";
};
width = 294;
}
);
leftKerningGroup = Tgrand;
note = "\012    T\012  ";
rightKerningGroup = Tgrand;
},
{
glyphname = W.ss02;
lastChange = "2021-01-03 21:52:44 +0000";
layers = (
{
anchors = (
{
name = bottom;
position = "{608, 0}";
},
{
name = top;
position = "{608, 670}";
}
);
layerId = "74E8EC48-609C-4650-B918-3C45F21958A5";
paths = (
{
closed = 1;
nodes = (
"656 587 LINE",
"656 0 LINE",
"770 0 LINE",
"750 164 LINE",
"750 670 LINE",
"613 670 LINE"
);
},
{
closed = 1;
nodes = (
"558 670 LINE",
"446 670 LINE",
"464 504 LINE",
"464 166 LINE",
"446 0 LINE",
"558 0 LINE"
);
},
{
closed = 1;
nodes = (
"511 586 LINE",
"702 586 LINE",
"702 670 LINE",
"511 670 LINE"
);
},
{
closed = 1;
nodes = (
"1052 862 LINE",
"802 254 LINE",
"656 0 LINE",
"794 0 LINE",
"1144 862 LINE"
);
},
{
closed = 1;
nodes = (
"416 0 LINE",
"522 0 LINE",
"172 862 LINE",
"22 862 LINE",
"166 608 LINE"
);
}
);
userData = {
com.schriftgestaltung.Glyphs.lastChange = "2019-07-06 06:43:09 +0000";
};
width = 1166;
}
);
leftKerningGroup = V;
rightKerningGroup = V;
},
{
glyphname = Q.ss03;
lastChange = "2021-01-03 21:52:44 +0000";
layers = (
{
anchors = (
{
name = bottom;
position = "{269, 0}";
},
{
name = top;
position = "{269, 862}";
}
);
layerId = "74E8EC48-609C-4650-B918-3C45F21958A5";
paths = (
{
closed = 1;
nodes = (
"42 863 LINE",
"65 660 LINE",
"65 203 LINE",
"42 0 LINE",
"250 0 LINE",
"365 -277 LINE",
"496 -277 LINE",
"339 -22 LINE",
"330 0 LINE",
"491 0 LINE",
"469 203 LINE",
"469 660 LINE",
"491 863 LINE"
);
},
{
closed = 1;
nodes = (
"159 776 LINE",
"375 776 LINE",
"375 87 LINE",
"159 87 LINE"
);
}
);
userData = {
com.schriftgestaltung.Glyphs.lastChange = "2019-07-06 17:23:01 +0000";
};
width = 538;
}
);
note = "\012    Q\012  ";
},
{
glyphname = W.ss03;
lastChange = "2021-01-03 21:58:44 +0000";
layers = (
{
anchors = (
{
name = bottom;
position = "{589, 0}";
},
{
name = top;
position = "{589, 862}";
}
);
layerId = "74E8EC48-609C-4650-B918-3C45F21958A5";
paths = (
{
closed = 1;
nodes = (
"786 0 LINE",
"954 0 LINE",
"1108 862 LINE",
"990 862 LINE",
"900 254 LINE",
"859 97 LINE",
"778 862 LINE",
"666 862 LINE",
"696 608 LINE"
);
},
{
closed = 1;
nodes = (
"598 784 LINE",
"733 775 LINE",
"730 862 LINE",
"503 862 LINE",
"498 775 LINE"
);
},
{
closed = 1;
nodes = (
"210 0 LINE",
"378 0 LINE",
"532 862 LINE",
"414 862 LINE",
"324 254 LINE",
"283 97 LINE",
"202 862 LINE",
"90 862 LINE",
"120 608 LINE"
);
}
);
userData = {
com.schriftgestaltung.Glyphs.lastChange = "2019-07-05 22:28:49 +0000";
};
width = 1198;
}
);
leftKerningGroup = V;
note = "\012    W\012  ";
rightKerningGroup = V;
},
{
glyphname = O_O.dlig;
lastChange = "2021-01-03 21:52:44 +0000";
layers = (
{
layerId = "74E8EC48-609C-4650-B918-3C45F21958A5";
paths = (
{
closed = 1;
nodes = (
"350 872 LINE SMOOTH",
"141 872 OFFCURVE",
"32 642 OFFCURVE",
"32 420 CURVE SMOOTH",
"32 209 OFFCURVE",
"130 -10 OFFCURVE",
"350 -10 CURVE SMOOTH",
"412 -10 LINE SMOOTH",
"632 -10 OFFCURVE",
"730 209 OFFCURVE",
"730 420 CURVE SMOOTH",
"730 642 OFFCURVE",
"621 872 OFFCURVE",
"412 872 CURVE SMOOTH"
);
},
{
closed = 1;
nodes = (
"483 783 LINE",
"566 704 OFFCURVE",
"620 577 OFFCURVE",
"620 437 CURVE SMOOTH",
"620 296 OFFCURVE",
"565 165 OFFCURVE",
"481 86 CURVE",
"286 86 LINE",
"202 165 OFFCURVE",
"147 296 OFFCURVE",
"147 437 CURVE SMOOTH",
"147 577 OFFCURVE",
"201 704 OFFCURVE",
"284 783 CURVE"
);
},
{
closed = 1;
nodes = (
"712 872 LINE SMOOTH",
"503 872 OFFCURVE",
"394 642 OFFCURVE",
"394 420 CURVE SMOOTH",
"394 209 OFFCURVE",
"492 -10 OFFCURVE",
"712 -10 CURVE SMOOTH",
"774 -10 LINE SMOOTH",
"994 -10 OFFCURVE",
"1092 209 OFFCURVE",
"1092 420 CURVE SMOOTH",
"1092 642 OFFCURVE",
"983 872 OFFCURVE",
"774 872 CURVE SMOOTH"
);
},
{
closed = 1;
nodes = (
"840 783 LINE",
"923 704 OFFCURVE",
"977 577 OFFCURVE",
"977 437 CURVE SMOOTH",
"977 296 OFFCURVE",
"922 165 OFFCURVE",
"838 86 CURVE",
"643 86 LINE",
"559 165 OFFCURVE",
"504 296 OFFCURVE",
"504 437 CURVE SMOOTH",
"504 577 OFFCURVE",
"558 704 OFFCURVE",
"641 783 CURVE"
);
}
);
userData = {
com.schriftgestaltung.Glyphs.lastChange = "2019-07-06 17:09:17 +0000";
};
width = 1124;
}
);
leftKerningGroup = O;
leftMetricsKey = O;
rightKerningGroup = O;
rightMetricsKey = O;
},
{
glyphname = V_T_F.dlig;
lastChange = "2022-10-04 09:41:10 +0000";
layers = (
{
layerId = "74E8EC48-609C-4650-B918-3C45F21958A5";
paths = (
{
closed = 1;
nodes = (
"731 703 LINE",
"754 500 LINE",
"754 205 LINE",
"731 1 LINE",
"848 1 LINE",
"848 319 LINE",
"1026 319 LINE",
"1026 428 LINE",
"848 406 LINE",
"848 616 LINE",
"1026 616 LINE",
"1026 703 LINE"
);
},
{
closed = 1;
nodes = (
"169 973 LINE",
"568 0 LINE",
"653 0 LINE",
"653 773 LINE",
"830 753 LINE",
"830 882 LINE",
"638 862 LINE",
"575 862 LINE",
"380 882 LINE",
"380 753 LINE",
"559 775 LINE",
"558 263 LINE",
"159 1227 LINE",
"22 1227 LINE"
);
}
);
userData = {
com.schriftgestaltung.Glyphs.lastChange = "2019-07-04 12:52:03 +0000";
};
width = 1058;
}
);
leftKerningGroup = V;
note = "\012    v_t_f\012  ";
},
{
glyphname = M_X.dlig.ss002;
lastChange = "2021-01-03 21:52:44 +0000";
layers = (
{
layerId = "74E8EC48-609C-4650-B918-3C45F21958A5";
paths = (
{
closed = 1;
nodes = (
"159 0 LINE",
"159 623 LINE",
"308 257 LINE",
"225 80 LINE",
"78 -174 LINE",
"230 -174 LINE",
"357 138 LINE",
"485 -174 LINE",
"592 -174 LINE",
"406 257 LINE",
"555 622 LINE",
"555 -1 LINE",
"672 -1 LINE",
"649 203 LINE",
"649 660 LINE",
"672 863 LINE",
"555 863 LINE",
"555 857 LINE",
"357 386 LINE",
"159 858 LINE",
"159 864 LINE",
"42 864 LINE",
"65 661 LINE",
"65 203 LINE",
"42 0 LINE"
);
}
);
userData = {
com.schriftgestaltung.Glyphs.lastChange = "2019-07-05 22:28:10 +0000";
};
width = 714;
}
);
leftKerningGroup = H;
note = "\012    m_x\012  ";
rightKerningGroup = H;
},
{
glyphname = N_N.dlig.ss02;
lastChange = "2022-10-04 09:41:24 +0000";
layers = (
{
layerId = "74E8EC48-609C-4650-B918-3C45F21958A5";
paths = (
{
closed = 1;
nodes = (
"900 1227 LINE",
"501 233 LINE",
"500 864 LINE",
"419 864 LINE",
"168 253 LINE",
"22 0 LINE",
"156 0 LINE",
"407 635 LINE",
"406 0 LINE",
"491 0 LINE",
"890 973 LINE",
"1037 1227 LINE"
);
},
{
closed = 1;
nodes = (
"1235 1227 LINE",
"836 233 LINE",
"835 864 LINE",
"781 862 LINE",
"502 204 LINE",
"357 0 LINE",
"491 0 LINE",
"742 635 LINE",
"741 0 LINE",
"826 0 LINE",
"1225 973 LINE",
"1372 1227 LINE"
);
}
);
userData = {
com.schriftgestaltung.Glyphs.lastChange = "2019-07-06 07:38:23 +0000";
};
width = 1168;
}
);
leftKerningGroup = A;
rightKerningGroup = LONGN;
},
{
glyphname = a;
lastChange = "2022-10-04 16:06:53 +0000";
layers = (
{
anchors = (
{
name = bottom;
position = "{203, 0}";
},
{
name = ogonek;
position = "{285, 10}";
},
{
name = top;
position = "{233, 670}";
}
);
layerId = "74E8EC48-609C-4650-B918-3C45F21958A5";
paths = (
{
closed = 1;
nodes = (
"377 0 LINE",
"371 54 OFFCURVE",
"364 112 OFFCURVE",
"358 166 CURVE",
"358 507 LINE",
"377 670 LINE",
"264 670 LINE",
"264 371 LINE",
"197 371 LINE SMOOTH",
"105 371 OFFCURVE",
"32 302 OFFCURVE",
"32 185 CURVE SMOOTH",
"32 92 OFFCURVE",
"105 0 OFFCURVE",
"197 0 CURVE SMOOTH"
);
},
{
closed = 1;
nodes = (
"264 80 LINE",
"182 80 LINE",
"158 105 OFFCURVE",
"142 144 OFFCURVE",
"142 188 CURVE SMOOTH",
"142 232 OFFCURVE",
"158 271 OFFCURVE",
"182 296 CURVE",
"264 296 LINE"
);
},
{
closed = 1;
nodes = (
"79 670 LINE",
"79 563 LINE",
"251 583 LINE",
"358 583 LINE",
"358 670 LINE"
);
},
{
closed = 1;
nodes = (
"173 595 LINE",
"79 577 LINE",
"79 487 LINE",
"173 487 LINE"
);
}
);
userData = {
com.schriftgestaltung.Glyphs.lastChange = "2019-07-07 08:05:49 +0000";
};
width = 419;
}
);
leftKerningGroup = a;
note = "\012    a\012  ";
rightKerningGroup = n;
rightMetricsKey = n;
unicode = 0061;
},
{
glyphname = ae;
lastChange = "2022-10-04 09:52:47 +0000";
layers = (
{
layerId = "74E8EC48-609C-4650-B918-3C45F21958A5";
paths = (
{
closed = 1;
nodes = (
"32 92 OFFCURVE",
"105 0 OFFCURVE",
"197 0 CURVE SMOOTH",
"531 0 LINE",
"531 183 LINE",
"441 183 LINE",
"441 96 LINE",
"363 80 LINE",
"350 166 LINE",
"350 299 LINE",
"417 299 LINE SMOOTH",
"509 299 OFFCURVE",
"582 368 OFFCURVE",
"582 485 CURVE SMOOTH",
"582 578 OFFCURVE",
"509 670 OFFCURVE",
"417 670 CURVE SMOOTH",
"79 670 LINE",
"79 487 LINE",
"173 487 LINE",
"173 574 LINE",
"251 590 LINE",
"264 504 LINE",
"264 371 LINE",
"197 371 LINE SMOOTH",
"105 371 OFFCURVE",
"32 302 OFFCURVE",
"32 185 CURVE SMOOTH"
);
},
{
closed = 1;
nodes = (
"142 232 OFFCURVE",
"158 271 OFFCURVE",
"182 296 CURVE",
"264 296 LINE",
"264 163 LINE",
"254 80 LINE",
"182 80 LINE",
"158 105 OFFCURVE",
"142 144 OFFCURVE",
"142 188 CURVE SMOOTH"
);
},
{
closed = 1;
nodes = (
"350 507 LINE",
"360 590 LINE",
"432 590 LINE",
"456 565 OFFCURVE",
"472 526 OFFCURVE",
"472 482 CURVE SMOOTH",
"472 438 OFFCURVE",
"456 399 OFFCURVE",
"432 374 CURVE",
"350 374 LINE"
);
}
);
userData = {
com.schriftgestaltung.Glyphs.lastChange = "2019-07-05 10:00:35 +0000";
};
width = 614;
}
);
leftKerningGroup = a;
rightKerningGroup = e;
unicode = 00E6;
},
{
glyphname = b;
lastChange = "2022-10-04 08:10:25 +0000";
layers = (
{
anchors = (
{
name = bottom;
position = "{219, 0}";
},
{
name = top;
position = "{209, 800}";
}
);
layerId = "74E8EC48-609C-4650-B918-3C45F21958A5";
paths = (
{
closed = 1;
nodes = (
"65 671 LINE",
"65 507 LINE",
"65 164 LINE",
"46 0 LINE",
"182 -4 LINE",
"183 -4 LINE SMOOTH",
"356 -4 OFFCURVE",
"446 159 OFFCURVE",
"446 323 CURVE SMOOTH",
"446 496 OFFCURVE",
"348 673 OFFCURVE",
"182 672 CURVE SMOOTH"
);
},
{
closed = 1;
nodes = (
"159 592 LINE",
"240 592 LINE",
"298 535 OFFCURVE",
"336 436 OFFCURVE",
"336 336 CURVE SMOOTH",
"336 235 OFFCURVE",
"297 133 OFFCURVE",
"239 76 CURVE",
"159 76 LINE"
);
},
{
closed = 1;
nodes = (
"42 863 LINE",
"65 660 LINE",
"65 203 LINE",
"159 203 LINE",
"159 660 LINE",
"162 863 LINE"
);
}
);
userData = {
com.schriftgestaltung.Glyphs.lastChange = "2019-07-07 11:55:04 +0000";
};
width = 478;
}
);
leftKerningGroup = H;
note = "\012    b\012  ";
rightKerningGroup = o;
unicode = 0062;
},
{
glyphname = c;
lastChange = "2022-10-04 16:07:08 +0000";
layers = (
{
anchors = (
{
name = bottom;
position = "{329, 0}";
},
{
name = top;
position = "{293, 670}";
}
);
layerId = "74E8EC48-609C-4650-B918-3C45F21958A5";
paths = (
{
closed = 1;
nodes = (
"352 673 OFFCURVE",
"324 674 OFFCURVE",
"296 674 CURVE SMOOTH",
"130 674 OFFCURVE",
"32 496 OFFCURVE",
"32 324 CURVE SMOOTH",
"32 159 OFFCURVE",
"123 0 OFFCURVE",
"296 -1 CURVE",
"380 0 LINE",
"370 83 LINE",
"239 83 LINE",
"180 140 OFFCURVE",
"142 235 OFFCURVE",
"142 336 CURVE SMOOTH",
"142 436 OFFCURVE",
"180 529 OFFCURVE",
"238 586 CURVE",
"370 586 LINE",
"380 671 LINE"
);
}
);
userData = {
com.schriftgestaltung.Glyphs.lastChange = "2019-07-05 16:11:46 +0000";
};
width = 412;
}
);
leftKerningGroup = o;
leftMetricsKey = o;
note = "\012    c\012  ";
rightKerningGroup = c;
unicode = 0063;
},
{
glyphname = d;
lastChange = "2022-10-04 08:12:42 +0000";
layers = (
{
anchors = (
{
name = bottom;
position = "{238, 0}";
},
{
name = center;
position = "{238, 335}";
},
{
name = top;
position = "{238, 800}";
},
{
name = topright;
position = "{446, 670}";
}
);
layerId = "74E8EC48-609C-4650-B918-3C45F21958A5";
paths = (
{
closed = 1;
nodes = (
"130 673 OFFCURVE",
"32 496 OFFCURVE",
"32 323 CURVE SMOOTH",
"32 159 OFFCURVE",
"122 -4 OFFCURVE",
"295 -4 CURVE SMOOTH",
"296 -4 LINE",
"432 0 LINE",
"413 164 LINE",
"413 507 LINE",
"413 671 LINE",
"296 672 LINE SMOOTH"
);
},
{
closed = 1;
nodes = (
"239 76 LINE",
"181 133 OFFCURVE",
"142 235 OFFCURVE",
"142 336 CURVE SMOOTH",
"142 436 OFFCURVE",
"180 535 OFFCURVE",
"238 592 CURVE",
"319 592 LINE",
"319 76 LINE"
);
},
{
closed = 1;
nodes = (
"319 660 LINE",
"319 203 LINE",
"413 203 LINE",
"413 660 LINE",
"436 863 LINE",
"316 863 LINE"
);
}
);
userData = {
com.schriftgestaltung.Glyphs.lastChange = "2019-07-07 11:56:43 +0000";
};
width = 478;
}
);
leftKerningGroup = o;
note = "\012    d\012  ";
rightKerningGroup = H;
unicode = 0064;
},
{
glyphname = eth;
lastChange = "2022-10-04 09:53:17 +0000";
layers = (
{
layerId = "74E8EC48-609C-4650-B918-3C45F21958A5";
paths = (
{
closed = 1;
nodes = (
"32 159 OFFCURVE",
"122 -4 OFFCURVE",
"295 -4 CURVE SMOOTH",
"296 -4 LINE",
"336 0 LINE",
"413 0 LINE",
"530 335 LINE",
"308 1024 LINE",
"151 1024 LINE",
"271 816 LINE",
"321 672 LINE",
"296 672 LINE SMOOTH",
"130 672 OFFCURVE",
"32 496 OFFCURVE",
"32 323 CURVE SMOOTH"
);
},
{
closed = 1;
nodes = (
"142 436 OFFCURVE",
"180 535 OFFCURVE",
"238 592 CURVE",
"347 587 LINE",
"376 461 LINE",
"413 335 LINE",
"376 208 LINE",
"347 76 LINE",
"239 76 LINE",
"181 133 OFFCURVE",
"142 235 OFFCURVE",
"142 336 CURVE SMOOTH"
);
},
{
closed = 1;
nodes = (
"517 898 LINE",
"314 862 LINE",
"111 862 LINE",
"111 753 LINE",
"314 788 LINE",
"517 788 LINE"
);
}
);
userData = {
com.schriftgestaltung.Glyphs.lastChange = "2019-07-05 09:57:09 +0000";
};
width = 562;
}
);
leftKerningGroup = o;
note = "\012    eth\012  ";
unicode = 00F0;
},
{
glyphname = dcaron;
lastChange = "2022-10-04 09:53:08 +0000";
layers = (
{
anchors = (
{
name = bottom;
position = "{238, 0}";
},
{
name = center;
position = "{238, 335}";
},
{
name = top;
position = "{238, 934}";
},
{
name = topright;
position = "{446, 670}";
}
);
layerId = "74E8EC48-609C-4650-B918-3C45F21958A5";
paths = (
{
closed = 1;
nodes = (
"580 646 LINE",
"670 862 LINE",
"570 862 LINE",
"525 754 LINE",
"462 646 LINE"
);
},
{
closed = 1;
nodes = (
"130 673 OFFCURVE",
"32 496 OFFCURVE",
"32 323 CURVE SMOOTH",
"32 159 OFFCURVE",
"122 -4 OFFCURVE",
"295 -4 CURVE SMOOTH",
"296 -4 LINE",
"432 0 LINE",
"413 164 LINE",
"413 507 LINE",
"413 671 LINE",
"296 672 LINE SMOOTH"
);
},
{
closed = 1;
nodes = (
"239 76 LINE",
"181 133 OFFCURVE",
"142 235 OFFCURVE",
"142 336 CURVE SMOOTH",
"142 436 OFFCURVE",
"180 535 OFFCURVE",
"238 592 CURVE",
"319 592 LINE",
"319 76 LINE"
);
},
{
closed = 1;
nodes = (
"319 660 LINE",
"319 203 LINE",
"413 203 LINE",
"413 660 LINE",
"436 862 LINE",
"316 862 LINE"
);
}
);
userData = {
com.schriftgestaltung.Glyphs.lastChange = "2019-07-05 22:29:01 +0000";
};
width = 648;
}
);
leftKerningGroup = o;
unicode = 010F;
},
{
glyphname = dcroat;
lastChange = "2022-10-04 09:53:08 +0000";
layers = (
{
layerId = "74E8EC48-609C-4650-B918-3C45F21958A5";
paths = (
{
closed = 1;
nodes = (
"130 673 OFFCURVE",
"32 496 OFFCURVE",
"32 323 CURVE SMOOTH",
"32 159 OFFCURVE",
"122 -4 OFFCURVE",
"295 -4 CURVE SMOOTH",
"296 -4 LINE",
"432 0 LINE",
"413 164 LINE",
"413 507 LINE",
"413 671 LINE",
"296 672 LINE SMOOTH"
);
},
{
closed = 1;
nodes = (
"239 76 LINE",
"181 133 OFFCURVE",
"142 235 OFFCURVE",
"142 336 CURVE SMOOTH",
"142 436 OFFCURVE",
"180 535 OFFCURVE",
"238 592 CURVE",
"319 592 LINE",
"319 76 LINE"
);
},
{
closed = 1;
nodes = (
"319 660 LINE",
"319 203 LINE",
"413 203 LINE",
"413 660 LINE",
"436 863 LINE",
"316 863 LINE"
);
},
{
closed = 1;
nodes = (
"324 729 LINE",
"478 694 LINE",
"478 800 LINE",
"324 800 LINE",
"172 825 LINE",
"172 719 LINE"
);
}
);
userData = {
com.schriftgestaltung.Glyphs.lastChange = "2019-07-05 22:29:01 +0000";
};
width = 500;
}
);
leftKerningGroup = o;
unicode = 0111;
},
{
glyphname = e;
lastChange = "2022-10-04 16:07:02 +0000";
layers = (
{
anchors = (
{
name = bottom;
position = "{197, 0}";
},
{
name = ogonek;
position = "{244, 10}";
},
{
name = top;
position = "{176, 670}";
}
);
layerId = "74E8EC48-609C-4650-B918-3C45F21958A5";
paths = (
{
closed = 1;
nodes = (
"42 670 LINE",
"48 616 OFFCURVE",
"55 558 OFFCURVE",
"61 504 CURVE",
"61 163 LINE",
"42 0 LINE",
"155 0 LINE",
"155 299 LINE",
"222 299 LINE SMOOTH",
"314 299 OFFCURVE",
"387 368 OFFCURVE",
"387 485 CURVE SMOOTH",
"387 578 OFFCURVE",
"314 670 OFFCURVE",
"222 670 CURVE SMOOTH"
);
},
{
closed = 1;
nodes = (
"155 590 LINE",
"237 590 LINE",
"261 565 OFFCURVE",
"277 526 OFFCURVE",
"277 482 CURVE SMOOTH",
"277 438 OFFCURVE",
"261 399 OFFCURVE",
"237 374 CURVE",
"155 374 LINE"
);
},
{
closed = 1;
nodes = (
"336 0 LINE",
"336 107 LINE",
"168 87 LINE",
"61 87 LINE",
"61 0 LINE"
);
},
{
closed = 1;
nodes = (
"246 75 LINE",
"336 93 LINE",
"336 183 LINE",
"246 183 LINE"
);
}
);
userData = {
com.schriftgestaltung.Glyphs.lastChange = "2019-07-05 22:29:01 +0000";
};
width = 419;
}
);
leftKerningGroup = n;
note = "\012    e\012  ";
rightKerningGroup = e;
unicode = 0065;
},
{
glyphname = f;
lastChange = "2022-10-04 09:58:42 +0000";
layers = (
{
layerId = "74E8EC48-609C-4650-B918-3C45F21958A5";
paths = (
{
closed = 1;
nodes = (
"32 443 LINE",
"93 453 LINE",
"93 270 LINE",
"187 270 LINE",
"187 374 LINE",
"197 453 LINE",
"314 453 LINE",
"314 540 LINE",
"32 540 LINE"
);
},
{
closed = 1;
nodes = (
"187 0 LINE",
"187 682 LINE SMOOTH",
"187 746 OFFCURVE",
"211 773 OFFCURVE",
"245 773 CURVE",
"344 737 LINE",
"374 862 LINE",
"228 862 LINE SMOOTH",
"156 862 OFFCURVE",
"93 799 OFFCURVE",
"93 670 CURVE SMOOTH",
"93 166 LINE",
"74 0 LINE"
);
}
);
width = 362;
}
);
leftKerningGroup = f;
rightKerningGroup = f;
unicode = 0066;
},
{
glyphname = g;
lastChange = "2022-10-04 08:47:29 +0000";
layers = (
{
anchors = (
{
name = bottom;
position = "{214, -200}";
},
{
name = top;
position = "{296, 670}";
}
);
layerId = "74E8EC48-609C-4650-B918-3C45F21958A5";
paths = (
{
closed = 1;
nodes = (
"413 -1 LINE",
"413 163 LINE",
"413 506 LINE",
"432 670 LINE",
"296 674 LINE",
"295 674 LINE SMOOTH",
"122 674 OFFCURVE",
"32 511 OFFCURVE",
"32 347 CURVE SMOOTH",
"32 174 OFFCURVE",
"130 -3 OFFCURVE",
"296 -2 CURVE SMOOTH"
);
},
{
closed = 1;
nodes = (
"319 78 LINE",
"238 78 LINE",
"180 135 OFFCURVE",
"142 234 OFFCURVE",
"142 334 CURVE SMOOTH",
"142 435 OFFCURVE",
"181 537 OFFCURVE",
"239 594 CURVE",
"319 594 LINE"
);
},
{
closed = 1;
nodes = (
"436 -193 LINE",
"413 10 LINE",
"413 467 LINE",
"319 467 LINE",
"319 10 LINE",
"316 -193 LINE"
);
},
{
closed = 1;
nodes = (
"363 -116 LINE",
"301 -116 LINE",
"102 -94 LINE",
"102 -193 LINE",
"368 -193 LINE"
);
}
);
userData = {
com.schriftgestaltung.Glyphs.lastChange = "2019-07-05 22:29:01 +0000";
};
width = 478;
}
);
leftKerningGroup = o;
note = "\012    g\012  ";
rightKerningGroup = n;
unicode = 0067;
},
{
glyphname = gcommaaccent;
lastChange = "2022-10-04 09:53:34 +0000";
layers = (
{
layerId = "74E8EC48-609C-4650-B918-3C45F21958A5";
paths = (
{
closed = 1;
nodes = (
"413 -1 LINE",
"413 163 LINE",
"413 506 LINE",
"432 670 LINE",
"296 674 LINE",
"295 674 LINE SMOOTH",
"122 674 OFFCURVE",
"32 511 OFFCURVE",
"32 347 CURVE SMOOTH",
"32 174 OFFCURVE",
"130 -3 OFFCURVE",
"296 -2 CURVE SMOOTH"
);
},
{
closed = 1;
nodes = (
"319 78 LINE",
"238 78 LINE",
"180 135 OFFCURVE",
"142 234 OFFCURVE",
"142 334 CURVE SMOOTH",
"142 435 OFFCURVE",
"181 537 OFFCURVE",
"239 594 CURVE",
"319 594 LINE"
);
},
{
closed = 1;
nodes = (
"436 -193 LINE",
"413 10 LINE",
"413 467 LINE",
"319 467 LINE",
"319 10 LINE",
"316 -193 LINE"
);
},
{
closed = 1;
nodes = (
"363 -116 LINE",
"301 -116 LINE",
"102 -94 LINE",
"102 -193 LINE",
"368 -193 LINE"
);
},
{
closed = 1;
nodes = (
"325 975 LINE",
"288 862 LINE",
"222 770 LINE",
"362 770 LINE",
"436 971 LINE"
);
}
);
userData = {
com.schriftgestaltung.Glyphs.lastChange = "2019-07-05 22:29:01 +0000";
};
width = 468;
}
);
leftKerningGroup = g;
rightKerningGroup = n;
unicode = 0123;
},
{
glyphname = h;
lastChange = "2022-10-04 08:13:47 +0000";
layers = (
{
anchors = (
{
name = bottom;
position = "{206, 0}";
},
{
name = center;
position = "{206, 400}";
},
{
name = top;
position = "{206, 800}";
}
);
layerId = "74E8EC48-609C-4650-B918-3C45F21958A5";
paths = (
{
closed = 1;
nodes = (
"42 862 LINE",
"61 701 LINE",
"61 165 LINE",
"42 0 LINE",
"155 0 LINE",
"155 583 LINE",
"256 583 LINE",
"255 0 LINE",
"369 0 LINE",
"350 166 LINE",
"350 670 LINE",
"155 670 LINE",
"155 862 LINE"
);
}
);
userData = {
com.schriftgestaltung.Glyphs.lastChange = "2019-07-05 22:29:01 +0000";
};
width = 411;
}
);
leftKerningGroup = H;
note = "\012    h\012  ";
rightKerningGroup = n;
unicode = 0068;
},
{
glyphname = hbar;
lastChange = "2021-01-03 21:52:44 +0000";
layers = (
{
layerId = "74E8EC48-609C-4650-B918-3C45F21958A5";
paths = (
{
closed = 1;
nodes = (
"64 865 LINE",
"83 701 LINE",
"83 165 LINE",
"64 0 LINE",
"177 0 LINE",
"177 583 LINE",
"278 583 LINE",
"277 0 LINE",
"391 0 LINE",
"372 166 LINE",
"372 670 LINE",
"177 670 LINE",
"177 865 LINE"
);
},
{
closed = 1;
nodes = (
"328 825 LINE",
"176 800 LINE",
"22 800 LINE",
"22 694 LINE",
"176 729 LINE",
"328 719 LINE"
);
}
);
userData = {
com.schriftgestaltung.Glyphs.lastChange = "2019-07-05 22:29:01 +0000";
};
width = 433;
}
);
unicode = 0127;
},
{
glyphname = i;
lastChange = "2022-10-04 16:07:18 +0000";
layers = (
{
anchors = (
{
name = bottom;
position = "{117, 0}";
}
);
layerId = "74E8EC48-609C-4650-B918-3C45F21958A5";
paths = (
{
closed = 1;
nodes = (
"50 589 LINE",
"69 423 LINE",
"69 166 LINE",
"50 0 LINE",
"182 0 LINE",
"163 164 LINE",
"163 425 LINE",
"182 589 LINE"
);
},
{
closed = 1;
nodes = (
"51 741 LINE",
"63 647 LINE",
"176 647 LINE",
"186 741 LINE"
);
}
);
userData = {
com.schriftgestaltung.Glyphs.lastChange = "2019-07-07 08:04:37 +0000";
};
width = 232;
}
);
leftKerningGroup = i;
note = "\012    i\012  ";
rightKerningGroup = i;
unicode = 0069;
},
{
glyphname = idotless;
lastChange = "2021-01-03 21:52:44 +0000";
layers = (
{
anchors = (
{
name = bottom;
position = "{112, 0}";
},
{
name = ogonek;
position = "{116, 10}";
},
{
name = top;
position = "{112, 589}";
}
);
layerId = "74E8EC48-609C-4650-B918-3C45F21958A5";
paths = (
{
closed = 1;
nodes = (
"50 589 LINE",
"69 423 LINE",
"69 166 LINE",
"50 0 LINE",
"182 0 LINE",
"163 164 LINE",
"163 425 LINE",
"182 589 LINE"
);
}
);
userData = {
com.schriftgestaltung.Glyphs.lastChange = "2019-07-05 22:29:01 +0000";
};
width = 232;
}
);
unicode = 0131;
},
{
glyphname = ij;
lastChange = "2022-10-04 09:53:49 +0000";
layers = (
{
anchors = (
{
name = bottom;
position = "{117, 0}";
}
);
layerId = "74E8EC48-609C-4650-B918-3C45F21958A5";
paths = (
{
closed = 1;
nodes = (
"363 -116 LINE",
"301 -116 LINE",
"102 -94 LINE",
"102 -193 LINE",
"368 -193 LINE"
);
},
{
closed = 1;
nodes = (
"50 589 LINE",
"69 423 LINE",
"69 166 LINE",
"50 0 LINE",
"182 0 LINE",
"163 164 LINE",
"163 425 LINE",
"182 589 LINE"
);
},
{
closed = 1;
nodes = (
"51 741 LINE",
"63 647 LINE",
"166 647 LINE",
"176 741 LINE"
);
},
{
closed = 1;
nodes = (
"395 468 LINE",
"301 468 LINE",
"301 11 LINE",
"278 -192 LINE",
"395 -192 LINE"
);
},
{
closed = 1;
nodes = (
"282 589 LINE",
"301 423 LINE",
"301 166 LINE",
"337 9 LINE",
"370 -2 LINE",
"395 164 LINE",
"395 425 LINE",
"414 589 LINE"
);
},
{
closed = 1;
nodes = (
"283 741 LINE",
"295 647 LINE",
"398 647 LINE",
"408 741 LINE"
);
}
);
userData = {
com.schriftgestaltung.Glyphs.lastChange = "2019-07-05 22:29:01 +0000";
};
width = 456;
}
);
leftKerningGroup = i;
rightKerningGroup = i;
unicode = 0133;
},
{
glyphname = j;
lastChange = "2022-10-04 16:07:24 +0000";
layers = (
{
layerId = "74E8EC48-609C-4650-B918-3C45F21958A5";
paths = (
{
closed = 1;
nodes = (
"163 468 LINE",
"69 468 LINE",
"69 11 LINE",
"46 -192 LINE",
"163 -192 LINE"
);
},
{
closed = 1;
nodes = (
"4 -192 LINE",
"94 -192 LINE",
"82 -105 LINE",
"4 -105 LINE"
);
},
{
closed = 1;
nodes = (
"50 589 LINE",
"69 423 LINE",
"69 166 LINE",
"105 9 LINE",
"138 -2 LINE",
"163 164 LINE",
"163 425 LINE",
"182 589 LINE"
);
},
{
closed = 1;
nodes = (
"51 741 LINE",
"63 647 LINE",
"166 647 LINE",
"176 741 LINE"
);
}
);
userData = {
com.schriftgestaltung.Glyphs.lastChange = "2019-07-05 22:29:01 +0000";
};
width = 224;
}
);
leftKerningGroup = j;
note = "\012    j\012  ";
rightKerningGroup = i;
unicode = 006A;
},
{
glyphname = k;
lastChange = "2022-10-04 08:47:58 +0000";
layers = (
{
anchors = (
{
name = bottom;
position = "{247, 0}";
},
{
name = top;
position = "{247, 800}";
}
);
layerId = "74E8EC48-609C-4650-B918-3C45F21958A5";
paths = (
{
closed = 1;
nodes = (
"81 530 LINE",
"65 505 LINE",
"65 166 LINE",
"46 0 LINE",
"178 0 LINE",
"159 166 LINE",
"159 505 LINE",
"131 531 LINE"
);
},
{
closed = 1;
nodes = (
"313 670 LINE",
"176 335 LINE",
"313 0 LINE",
"446 0 LINE",
"325 208 LINE",
"273 335 LINE",
"325 461 LINE",
"446 670 LINE"
);
},
{
closed = 1;
nodes = (
"42 863 LINE",
"65 660 LINE",
"65 203 LINE",
"159 203 LINE",
"159 660 LINE",
"162 863 LINE"
);
}
);
userData = {
com.schriftgestaltung.Glyphs.lastChange = "2019-07-05 22:29:01 +0000";
};
width = 478;
}
);
leftKerningGroup = H;
note = "\012    k\012  ";
rightKerningGroup = k;
unicode = 006B;
},
{
glyphname = l;
lastChange = "2022-10-04 08:14:29 +0000";
layers = (
{
anchors = (
{
name = bottom;
position = "{156, 0}";
},
{
name = center;
position = "{206, 400}";
},
{
name = top;
position = "{106, 862}";
},
{
name = topright;
position = "{373, 800}";
}
);
layerId = "74E8EC48-609C-4650-B918-3C45F21958A5";
paths = (
{
closed = 1;
nodes = (
"65 670 LINE",
"65 0 LINE",
"245 0 LINE",
"245 84 LINE",
"169 84 LINE",
"159 166 LINE",
"159 670 LINE"
);
},
{
closed = 1;
nodes = (
"42 862 LINE",
"65 660 LINE",
"65 203 LINE",
"159 203 LINE",
"159 660 LINE",
"162 862 LINE"
);
}
);
userData = {
com.schriftgestaltung.Glyphs.lastChange = "2019-07-05 22:29:01 +0000";
};
width = 277;
}
);
note = "\012    l\012  ";
rightKerningGroup = l;
unicode = 006C;
},
{
glyphname = lslash;
lastChange = "2021-01-03 21:52:44 +0000";
layers = (
{
layerId = "74E8EC48-609C-4650-B918-3C45F21958A5";
paths = (
{
closed = 1;
nodes = (
"77 670 LINE",
"77 0 LINE",
"257 0 LINE",
"257 84 LINE",
"181 84 LINE",
"171 166 LINE",
"171 670 LINE"
);
},
{
closed = 1;
nodes = (
"54 862 LINE",
"77 660 LINE",
"77 203 LINE",
"171 203 LINE",
"171 660 LINE",
"174 862 LINE"
);
},
{
closed = 1;
nodes = (
"289 605 LINE",
"136 530 LINE",
"12 500 LINE",
"12 394 LINE",
"136 459 LINE",
"289 499 LINE"
);
}
);
userData = {
com.schriftgestaltung.Glyphs.lastChange = "2019-07-05 22:29:01 +0000";
};
width = 301;
}
);
unicode = 0142;
},
{
glyphname = m;
lastChange = "2022-10-04 08:44:50 +0000";
layers = (
{
anchors = (
{
name = bottom;
position = "{284, 0}";
},
{
name = top;
position = "{284, 670}";
}
);
layerId = "74E8EC48-609C-4650-B918-3C45F21958A5";
paths = (
{
closed = 1;
nodes = (
"238 587 LINE",
"238 0 LINE",
"344 0 LINE",
"324 164 LINE",
"324 670 LINE",
"192 670 LINE"
);
},
{
closed = 1;
nodes = (
"412 587 LINE",
"412 0 LINE",
"522 0 LINE",
"502 164 LINE",
"502 670 LINE",
"376 670 LINE"
);
},
{
closed = 1;
nodes = (
"150 670 LINE",
"42 670 LINE",
"60 504 LINE",
"60 166 LINE",
"42 0 LINE",
"150 0 LINE"
);
},
{
closed = 1;
nodes = (
"107 586 LINE",
"463 586 LINE",
"463 670 LINE",
"107 670 LINE"
);
}
);
userData = {
com.schriftgestaltung.Glyphs.lastChange = "2019-07-05 22:29:01 +0000";
};
width = 564;
}
);
leftKerningGroup = n;
note = "\012    m\012  ";
rightKerningGroup = n;
unicode = 006D;
},
{
glyphname = n;
lastChange = "2022-10-04 09:59:33 +0000";
layers = (
{
anchors = (
{
name = bottom;
position = "{204, 0}";
},
{
name = top;
position = "{204, 670}";
}
);
layerId = "74E8EC48-609C-4650-B918-3C45F21958A5";
paths = (
{
closed = 1;
nodes = (
"252 587 LINE",
"252 0 LINE",
"366 0 LINE",
"346 164 LINE",
"346 670 LINE",
"209 670 LINE"
);
},
{
closed = 1;
nodes = (
"154 670 LINE",
"42 670 LINE",
"60 504 LINE",
"60 166 LINE",
"42 0 LINE",
"154 0 LINE"
);
},
{
closed = 1;
nodes = (
"107 586 LINE",
"298 586 LINE",
"298 670 LINE",
"107 670 LINE"
);
}
);
userData = {
com.schriftgestaltung.Glyphs.lastChange = "2019-07-05 22:29:01 +0000";
};
width = 408;
}
);
leftKerningGroup = n;
note = "\012    n\012  ";
rightKerningGroup = n;
unicode = 006E;
},
{
glyphname = eng;
lastChange = "2022-10-04 09:54:12 +0000";
layers = (
{
layerId = "74E8EC48-609C-4650-B918-3C45F21958A5";
paths = (
{
closed = 1;
nodes = (
"252 587 LINE",
"252 0 LINE",
"346 0 LINE",
"346 670 LINE",
"209 670 LINE"
);
},
{
closed = 1;
nodes = (
"154 670 LINE",
"42 670 LINE",
"60 504 LINE",
"60 166 LINE",
"42 0 LINE",
"154 0 LINE"
);
},
{
closed = 1;
nodes = (
"107 586 LINE",
"298 586 LINE",
"298 670 LINE",
"107 670 LINE"
);
},
{
closed = 1;
nodes = (
"346 468 LINE",
"252 468 LINE",
"252 11 LINE",
"229 -192 LINE",
"346 -192 LINE"
);
},
{
closed = 1;
nodes = (
"187 -192 LINE",
"277 -192 LINE",
"265 -105 LINE",
"187 -105 LINE"
);
}
);
userData = {
com.schriftgestaltung.Glyphs.lastChange = "2019-07-05 22:29:01 +0000";
};
width = 388;
}
);
leftKerningGroup = n;
rightKerningGroup = n;
unicode = 014B;
},
{
glyphname = o;
lastChange = "2022-10-04 16:32:26 +0000";
layers = (
{
anchors = (
{
name = bottom;
position = "{270, 0}";
},
{
name = center;
position = "{270, 336}";
},
{
name = ogonek;
position = "{483, 10}";
},
{
name = top;
position = "{271, 670}";
},
{
name = topright;
position = "{516, 670}";
}
);
layerId = "74E8EC48-609C-4650-B918-3C45F21958A5";
paths = (
{
closed = 1;
nodes = (
"32 119 OFFCURVE",
"128 -12 OFFCURVE",
"270 -11 CURVE SMOOTH",
"413 -10 OFFCURVE",
"509 119 OFFCURVE",
"509 324 CURVE SMOOTH",
"509 536 OFFCURVE",
"406 680 OFFCURVE",
"270 680 CURVE SMOOTH",
"135 680 OFFCURVE",
"32 536 OFFCURVE",
"32 324 CURVE SMOOTH"
);
},
{
closed = 1;
nodes = (
"137 456 OFFCURVE",
"175 539 OFFCURVE",
"233 586 CURVE",
"308 586 LINE",
"366 539 OFFCURVE",
"404 456 OFFCURVE",
"404 336 CURVE SMOOTH",
"404 225 OFFCURVE",
"366 140 OFFCURVE",
"307 83 CURVE",
"234 83 LINE",
"175 140 OFFCURVE",
"137 225 OFFCURVE",
"137 336 CURVE SMOOTH"
);
}
);
userData = {
com.schriftgestaltung.Glyphs.lastChange = "2019-07-07 13:49:25 +0000";
};
width = 541;
}
);
leftKerningGroup = o;
note = "\012    o\012  ";
rightKerningGroup = o;
unicode = 006F;
},
{
glyphname = oslash;
lastChange = "2022-10-04 09:51:57 +0000";
layers = (
{
anchors = (
{
name = bottom;
position = "{275, 0}";
},
{
name = center;
position = "{220, 335}";
},
{
name = ogonek;
position = "{488, 10}";
},
{
name = top;
position = "{276, 670}";
},
{
name = topright;
position = "{521, 670}";
}
);
layerId = "74E8EC48-609C-4650-B918-3C45F21958A5";
paths = (
{
closed = 1;
nodes = (
"362 724 LINE",
"185 254 LINE",
"73 0 LINE",
"211 0 LINE",
"412 578 LINE",
"474 724 LINE"
);
},
{
closed = 1;
nodes = (
"32 119 OFFCURVE",
"128 -12 OFFCURVE",
"270 -11 CURVE SMOOTH",
"413 -10 OFFCURVE",
"509 119 OFFCURVE",
"509 324 CURVE SMOOTH",
"509 536 OFFCURVE",
"406 680 OFFCURVE",
"270 680 CURVE SMOOTH",
"135 680 OFFCURVE",
"32 536 OFFCURVE",
"32 324 CURVE SMOOTH"
);
},
{
closed = 1;
nodes = (
"127 456 OFFCURVE",
"175 539 OFFCURVE",
"233 586 CURVE",
"308 586 LINE",
"366 539 OFFCURVE",
"414 456 OFFCURVE",
"414 336 CURVE SMOOTH",
"414 225 OFFCURVE",
"366 140 OFFCURVE",
"307 83 CURVE",
"234 83 LINE",
"175 140 OFFCURVE",
"127 225 OFFCURVE",
"127 336 CURVE SMOOTH"
);
}
);
userData = {
com.schriftgestaltung.Glyphs.lastChange = "2019-07-07 13:49:25 +0000";
};
width = 541;
}
);
leftKerningGroup = o;
rightKerningGroup = o;
unicode = 00F8;
},
{
glyphname = oe;
lastChange = "2022-10-04 09:54:20 +0000";
layers = (
{
layerId = "74E8EC48-609C-4650-B918-3C45F21958A5";
paths = (
{
closed = 1;
nodes = (
"352 673 OFFCURVE",
"324 674 OFFCURVE",
"296 674 CURVE SMOOTH",
"130 674 OFFCURVE",
"32 496 OFFCURVE",
"32 324 CURVE SMOOTH",
"32 159 OFFCURVE",
"123 0 OFFCURVE",
"296 -1 CURVE",
"380 0 LINE",
"370 83 LINE",
"239 83 LINE",
"180 140 OFFCURVE",
"142 235 OFFCURVE",
"142 336 CURVE SMOOTH",
"142 436 OFFCURVE",
"180 529 OFFCURVE",
"238 586 CURVE",
"370 585 LINE",
"380 670 LINE"
);
},
{
closed = 1;
nodes = (
"292 670 LINE",
"298 616 OFFCURVE",
"305 558 OFFCURVE",
"311 504 CURVE",
"311 163 LINE",
"292 0 LINE",
"405 0 LINE",
"405 299 LINE",
"472 299 LINE SMOOTH",
"564 299 OFFCURVE",
"637 368 OFFCURVE",
"637 485 CURVE SMOOTH",
"637 578 OFFCURVE",
"564 670 OFFCURVE",
"472 670 CURVE SMOOTH"
);
},
{
closed = 1;
nodes = (
"405 590 LINE",
"487 590 LINE",
"511 565 OFFCURVE",
"527 526 OFFCURVE",
"527 482 CURVE SMOOTH",
"527 438 OFFCURVE",
"511 399 OFFCURVE",
"487 374 CURVE",
"405 374 LINE"
);
},
{
closed = 1;
nodes = (
"586 0 LINE",
"586 107 LINE",
"418 87 LINE",
"311 87 LINE",
"311 0 LINE"
);
},
{
closed = 1;
nodes = (
"496 75 LINE",
"586 93 LINE",
"586 183 LINE",
"496 183 LINE"
);
}
);
userData = {
com.schriftgestaltung.Glyphs.lastChange = "2019-07-05 22:29:01 +0000";
};
width = 669;
}
);
leftKerningGroup = o;
note = "\012    oe\012  ";
rightKerningGroup = e;
unicode = 0153;
},
{
glyphname = p;
lastChange = "2022-10-04 08:15:02 +0000";
layers = (
{
layerId = "74E8EC48-609C-4650-B918-3C45F21958A5";
paths = (
{
closed = 1;
nodes = (
"348 -3 OFFCURVE",
"446 174 OFFCURVE",
"446 347 CURVE SMOOTH",
"446 511 OFFCURVE",
"356 674 OFFCURVE",
"183 674 CURVE SMOOTH",
"182 674 LINE",
"46 670 LINE",
"65 506 LINE",
"65 163 LINE",
"65 -1 LINE",
"182 -2 LINE SMOOTH"
);
},
{
closed = 1;
nodes = (
"239 594 LINE",
"297 537 OFFCURVE",
"336 435 OFFCURVE",
"336 334 CURVE SMOOTH",
"336 234 OFFCURVE",
"298 135 OFFCURVE",
"240 78 CURVE",
"159 78 LINE",
"159 594 LINE"
);
},
{
closed = 1;
nodes = (
"159 10 LINE",
"159 467 LINE",
"65 467 LINE",
"65 10 LINE",
"42 -193 LINE",
"162 -193 LINE"
);
}
);
userData = {
com.schriftgestaltung.Glyphs.lastChange = "2019-07-07 11:55:16 +0000";
};
width = 478;
}
);
leftKerningGroup = n;
note = "\012    p\012  ";
rightKerningGroup = o;
unicode = 0070;
},
{
glyphname = thorn;
lastChange = "2021-01-03 21:52:44 +0000";
layers = (
{
layerId = "74E8EC48-609C-4650-B918-3C45F21958A5";
paths = (
{
closed = 1;
nodes = (
"159 435 LINE",
"273 435 LINE",
"297 410 OFFCURVE",
"313 371 OFFCURVE",
"313 327 CURVE SMOOTH",
"313 283 OFFCURVE",
"297 244 OFFCURVE",
"273 219 CURVE",
"159 219 LINE"
);
},
{
closed = 1;
nodes = (
"158 0 LINE",
"158 144 LINE",
"258 144 LINE SMOOTH",
"350 144 OFFCURVE",
"423 213 OFFCURVE",
"423 330 CURVE SMOOTH",
"423 423 OFFCURVE",
"350 521 OFFCURVE",
"258 515 CURVE SMOOTH",
"159 509 LINE",
"158 671 LINE",
"42 671 LINE",
"65 468 LINE",
"65 203 LINE",
"42 0 LINE"
);
}
);
userData = {
com.schriftgestaltung.Glyphs.lastChange = "2019-07-05 22:29:01 +0000";
};
width = 455;
}
);
unicode = 00FE;
},
{
glyphname = q;
lastChange = "2022-10-04 08:27:09 +0000";
layers = (
{
layerId = "74E8EC48-609C-4650-B918-3C45F21958A5";
paths = (
{
closed = 1;
nodes = (
"413 0 LINE",
"413 164 LINE",
"413 507 LINE",
"432 671 LINE",
"296 675 LINE",
"295 675 LINE SMOOTH",
"122 675 OFFCURVE",
"32 512 OFFCURVE",
"32 348 CURVE SMOOTH",
"32 175 OFFCURVE",
"130 -2 OFFCURVE",
"296 -1 CURVE SMOOTH"
);
},
{
closed = 1;
nodes = (
"319 79 LINE",
"238 79 LINE",
"180 136 OFFCURVE",
"142 235 OFFCURVE",
"142 335 CURVE SMOOTH",
"142 436 OFFCURVE",
"181 538 OFFCURVE",
"239 595 CURVE",
"319 595 LINE"
);
},
{
closed = 1;
nodes = (
"436 -192 LINE",
"413 11 LINE",
"413 468 LINE",
"319 468 LINE",
"319 11 LINE",
"316 -192 LINE"
);
},
{
closed = 1;
nodes = (
"400 -105 LINE",
"388 -192 LINE",
"478 -192 LINE",
"478 -105 LINE"
);
}
);
userData = {
com.schriftgestaltung.Glyphs.lastChange = "2019-07-07 11:56:32 +0000";
};
width = 466;
}
);
leftKerningGroup = o;
note = "\012    q\012  ";
rightKerningGroup = n;
unicode = 0071;
},
{
glyphname = r;
lastChange = "2022-10-04 16:07:46 +0000";
layers = (
{
anchors = (
{
name = bottom;
position = "{86, 0}";
},
{
name = top;
position = "{196, 670}";
}
);
layerId = "74E8EC48-609C-4650-B918-3C45F21958A5";
paths = (
{
closed = 1;
nodes = (
"61 583 LINE",
"168 583 LINE",
"340 563 LINE",
"340 670 LINE",
"61 670 LINE"
);
},
{
closed = 1;
nodes = (
"340 487 LINE",
"340 577 LINE",
"246 595 LINE",
"246 487 LINE"
);
},
{
closed = 1;
nodes = (
"155 0 LINE",
"155 670 LINE",
"42 670 LINE",
"61 507 LINE",
"61 166 LINE",
"55 112 OFFCURVE",
"48 54 OFFCURVE",
"42 0 CURVE"
);
}
);
userData = {
com.schriftgestaltung.Glyphs.lastChange = "2019-07-05 22:29:01 +0000";
};
width = 372;
}
);
leftKerningGroup = n;
note = "\012    r\012  ";
rightKerningGroup = r;
unicode = 0072;
},
{
glyphname = s;
lastChange = "2022-10-04 16:32:41 +0000";
layers = (
{
anchors = (
{
name = bottom;
position = "{206, 0}";
},
{
name = top;
position = "{236, 670}";
}
);
layerId = "74E8EC48-609C-4650-B918-3C45F21958A5";
paths = (
{
closed = 1;
nodes = (
"329 673 OFFCURVE",
"320 674 OFFCURVE",
"307 674 CURVE SMOOTH",
"105 674 OFFCURVE",
"26 573 OFFCURVE",
"26 475 CURVE SMOOTH",
"26 380 OFFCURVE",
"95 288 OFFCURVE",
"193 288 CURVE SMOOTH",
"238 288 LINE",
"260 264 OFFCURVE",
"275 228 OFFCURVE",
"275 186 CURVE SMOOTH",
"275 144 OFFCURVE",
"260 107 OFFCURVE",
"238 83 CURVE",
"58 83 LINE",
"48 0 LINE",
"220 -1 LINE SMOOTH",
"313 -2 OFFCURVE",
"385 94 OFFCURVE",
"385 191 CURVE SMOOTH",
"385 284 OFFCURVE",
"316 377 OFFCURVE",
"220 377 CURVE SMOOTH",
"174 377 LINE",
"151 402 OFFCURVE",
"136 437 OFFCURVE",
"136 480 CURVE SMOOTH",
"136 523 OFFCURVE",
"152 561 OFFCURVE",
"174 586 CURVE",
"333 586 LINE",
"342 672 LINE"
);
}
);
userData = {
com.schriftgestaltung.Glyphs.lastChange = "2019-07-07 13:51:46 +0000";
};
width = 411;
}
);
leftKerningGroup = s;
note = "\012    s\012  ";
rightKerningGroup = s;
unicode = 0073;
},
{
glyphname = germandbls;
lastChange = "2021-01-03 21:52:44 +0000";
layers = (
{
layerId = "74E8EC48-609C-4650-B918-3C45F21958A5";
paths = (
{
closed = 1;
nodes = (
"60 670 LINE",
"60 164 LINE",
"42 0 LINE",
"154 0 LINE",
"154 588 LINE",
"321 588 LINE",
"321 518 LINE",
"209 518 LINE",
"209 295 LINE",
"322 295 LINE",
"322 84 LINE",
"209 84 LINE",
"209 0 LINE",
"416 0 LINE",
"416 214 LINE",
"436 379 LINE",
"289 379 LINE",
"289 434 LINE",
"434 435 LINE",
"414 599 LINE",
"414 670 LINE"
);
}
);
userData = {
com.schriftgestaltung.Glyphs.lastChange = "2019-07-05 22:29:01 +0000";
};
width = 478;
}
);
unicode = 00DF;
},
{
glyphname = t;
lastChange = "2022-10-04 16:08:15 +0000";
layers = (
{
anchors = (
{
name = bottom;
position = "{203, 0}";
},
{
name = center;
position = "{211, 335}";
},
{
name = top;
position = "{211, 800}";
},
{
name = topright;
position = "{382, 670}";
}
);
layerId = "74E8EC48-609C-4650-B918-3C45F21958A5";
paths = (
{
closed = 1;
nodes = (
"32 670 LINE",
"32 563 LINE",
"160 583 LINE",
"160 0 LINE",
"254 0 LINE",
"254 504 LINE",
"264 583 LINE",
"381 583 LINE",
"381 670 LINE"
);
},
{
closed = 1;
nodes = (
"160 520 LINE",
"160 140 LINE",
"254 140 LINE",
"254 597 LINE",
"277 800 LINE",
"157 800 LINE"
);
}
);
userData = {
com.schriftgestaltung.Glyphs.lastChange = "2019-07-05 22:29:01 +0000";
};
width = 413;
}
);
leftKerningGroup = t;
note = "\012    t\012  ";
rightKerningGroup = t;
unicode = 0074;
},
{
glyphname = tbar;
lastChange = "2021-01-03 21:52:44 +0000";
layers = (
{
layerId = "74E8EC48-609C-4650-B918-3C45F21958A5";
paths = (
{
closed = 1;
nodes = (
"32 670 LINE",
"32 563 LINE",
"160 583 LINE",
"160 0 LINE",
"254 0 LINE",
"254 504 LINE",
"264 583 LINE",
"381 583 LINE",
"381 670 LINE"
);
},
{
closed = 1;
nodes = (
"160 520 LINE",
"160 140 LINE",
"254 140 LINE",
"254 597 LINE",
"277 800 LINE",
"157 800 LINE"
);
},
{
closed = 1;
nodes = (
"358 425 LINE",
"206 400 LINE",
"52 400 LINE",
"52 294 LINE",
"206 329 LINE",
"358 319 LINE"
);
}
);
userData = {
com.schriftgestaltung.Glyphs.lastChange = "2019-07-05 22:29:01 +0000";
};
width = 413;
}
);
leftKerningGroup = tbdc;
rightKerningGroup = tbdc;
unicode = 0167;
},
{
glyphname = u;
lastChange = "2022-10-04 08:15:57 +0000";
layers = (
{
anchors = (
{
name = bottom;
position = "{204, 0}";
},
{
name = ogonek;
position = "{277, 10}";
},
{
name = top;
position = "{204, 670}";
},
{
name = topright;
position = "{388, 670}";
}
);
layerId = "74E8EC48-609C-4650-B918-3C45F21958A5";
paths = (
{
closed = 1;
nodes = (
"366 670 LINE",
"254 670 LINE",
"254 83 LINE",
"156 83 LINE",
"156 670 LINE",
"42 670 LINE",
"62 506 LINE",
"62 -1 LINE",
"348 0 LINE",
"348 507 LINE"
);
},
{
closed = 1;
nodes = (
"254 0 LINE",
"366 0 LINE",
"348 166 LINE",
"348 504 LINE",
"366 670 LINE",
"254 670 LINE"
);
}
);
userData = {
com.schriftgestaltung.Glyphs.lastChange = "2019-07-05 22:29:01 +0000";
};
width = 408;
}
);
leftKerningGroup = n;
note = "\012    u\012  ";
rightKerningGroup = n;
unicode = 0075;
},
{
glyphname = w;
lastChange = "2022-10-04 11:20:46 +0000";
layers = (
{
anchors = (
{
name = bottom;
position = "{468, 0}";
},
{
name = top;
position = "{468, 670}";
}
);
layerId = "74E8EC48-609C-4650-B918-3C45F21958A5";
paths = (
{
closed = 1;
nodes = (
"347 111 LINE",
"179 670 LINE",
"22 670 LINE",
"142 462 LINE",
"272 0 LINE",
"418 0 LINE",
"631 670 LINE",
"533 670 LINE",
"393 206 LINE"
);
},
{
closed = 1;
nodes = (
"597 111 LINE",
"419 670 LINE",
"292 670 LINE",
"392 462 LINE",
"522 0 LINE",
"668 0 LINE",
"881 670 LINE",
"782 670 LINE",
"642 206 LINE"
);
}
);
userData = {
com.schriftgestaltung.Glyphs.lastChange = "2019-07-06 07:55:55 +0000";
};
width = 903;
}
);
leftKerningGroup = v;
leftMetricsKey = v;
note = "\012    w\012  ";
rightKerningGroup = v;
rightMetricsKey = v;
unicode = 0077;
},
{
glyphname = x;
lastChange = "2022-10-04 16:08:54 +0000";
layers = (
{
anchors = (
{
name = bottom;
position = "{231, 0}";
},
{
name = top;
position = "{231, 670}";
}
);
layerId = "74E8EC48-609C-4650-B918-3C45F21958A5";
paths = (
{
closed = 1;
nodes = (
"281 295 LINE",
"440 670 LINE",
"338 670 LINE",
"152 207 LINE",
"32 0 LINE",
"172 0 LINE"
);
},
{
closed = 1;
nodes = (
"228 295 LINE",
"342 0 LINE",
"450 0 LINE",
"250 436 LINE",
"163 671 LINE",
"32 670 LINE",
"152 463 LINE"
);
}
);
userData = {
com.schriftgestaltung.Glyphs.lastChange = "2019-07-05 22:29:01 +0000";
};
width = 482;
}
);
leftKerningGroup = x;
note = "\012    x\012  ";
rightKerningGroup = x;
unicode = 0078;
},
{
glyphname = y;
lastChange = "2022-10-04 16:09:01 +0000";
layers = (
{
anchors = (
{
name = bottom;
position = "{203, 0}";
},
{
name = top;
position = "{203, 670}";
}
);
layerId = "74E8EC48-609C-4650-B918-3C45F21958A5";
paths = (
{
closed = 1;
nodes = (
"369 -193 LINE",
"350 -29 LINE",
"350 505 LINE",
"369 670 LINE",
"256 670 LINE",
"256 87 LINE",
"155 87 LINE",
"156 670 LINE",
"42 670 LINE",
"61 504 LINE",
"61 0 LINE",
"256 0 LINE",
"256 -193 LINE"
);
},
{
closed = 1;
nodes = (
"333 -116 LINE",
"267 -116 LINE",
"61 -94 LINE",
"61 -193 LINE",
"338 -193 LINE"
);
}
);
userData = {
com.schriftgestaltung.Glyphs.lastChange = "2019-07-06 17:07:51 +0000";
};
width = 411;
}
);
leftKerningGroup = n;
note = "\012    y\012  ";
rightKerningGroup = y;
unicode = 0079;
},
{
glyphname = z;
lastChange = "2022-10-04 16:05:44 +0000";
layers = (
{
anchors = (
{
name = bottom;
position = "{233, 0}";
},
{
name = center;
position = "{233, 335}";
},
{
name = top;
position = "{243, 670}";
}
);
layerId = "74E8EC48-609C-4650-B918-3C45F21958A5";
paths = (
{
closed = 1;
nodes = (
"52 670 LINE",
"52 583 LINE",
"344 583 LINE",
"320 621 LINE",
"152 209 LINE",
"32 0 LINE",
"436 0 LINE",
"436 87 LINE",
"162 87 LINE",
"185 49 LINE",
"437 670 LINE"
);
},
{
closed = 1;
nodes = (
"406 399 LINE",
"253 363 LINE",
"100 363 LINE",
"100 254 LINE",
"253 289 LINE",
"406 289 LINE"
);
}
);
userData = {
com.schriftgestaltung.Glyphs.lastChange = "2019-07-05 22:29:01 +0000";
};
width = 469;
}
);
leftKerningGroup = h;
note = "\012    z\012  ";
rightKerningGroup = z;
unicode = 007A;
},
{
glyphname = a.ss01;
lastChange = "2022-10-04 09:55:53 +0000";
layers = (
{
anchors = (
{
name = bottom;
position = "{191, 0}";
},
{
name = ogonek;
position = "{258, 10}";
},
{
name = top;
position = "{191, 670}";
}
);
layerId = "74E8EC48-609C-4650-B918-3C45F21958A5";
paths = (
{
closed = 1;
nodes = (
"321 87 LINE",
"214 87 LINE",
"42 107 LINE",
"42 0 LINE",
"321 0 LINE"
);
},
{
closed = 1;
nodes = (
"42 330 LINE",
"42 93 LINE",
"136 75 LINE",
"136 330 LINE"
);
},
{
closed = 1;
nodes = (
"227 670 LINE",
"227 0 LINE",
"340 0 LINE",
"321 163 LINE",
"321 504 LINE",
"327 558 OFFCURVE",
"334 616 OFFCURVE",
"340 670 CURVE"
);
},
{
closed = 1;
nodes = (
"46 670 LINE",
"46 563 LINE",
"214 583 LINE",
"321 583 LINE",
"321 670 LINE"
);
},
{
closed = 1;
nodes = (
"136 595 LINE",
"46 577 LINE",
"46 487 LINE",
"136 487 LINE"
);
},
{
closed = 1;
nodes = (
"43 392 LINE",
"42 290 LINE",
"276 306 LINE",
"276 392 LINE"
);
}
);
userData = {
com.schriftgestaltung.Glyphs.lastChange = "2019-07-05 22:29:01 +0000";
};
width = 382;
}
);
leftKerningGroup = n;
rightKerningGroup = n;
},
{
glyphname = ae.ss01;
lastChange = "2022-10-04 09:55:53 +0000";
layers = (
{
layerId = "74E8EC48-609C-4650-B918-3C45F21958A5";
paths = (
{
closed = 1;
nodes = (
"275 583 LINE",
"342 583 LINE",
"514 563 LINE",
"514 670 LINE",
"275 670 LINE"
);
},
{
closed = 1;
nodes = (
"514 340 LINE",
"514 577 LINE",
"420 595 LINE",
"420 340 LINE"
);
},
{
closed = 1;
nodes = (
"510 0 LINE",
"510 107 LINE",
"342 87 LINE",
"275 87 LINE",
"275 0 LINE"
);
},
{
closed = 1;
nodes = (
"420 75 LINE",
"510 93 LINE",
"510 183 LINE",
"420 183 LINE"
);
},
{
closed = 1;
nodes = (
"513 278 LINE",
"514 380 LINE",
"320 364 LINE",
"320 278 LINE"
);
},
{
closed = 1;
nodes = (
"282 87 LINE",
"214 87 LINE",
"42 107 LINE",
"42 0 LINE",
"282 0 LINE"
);
},
{
closed = 1;
nodes = (
"42 330 LINE",
"42 93 LINE",
"136 75 LINE",
"136 330 LINE"
);
},
{
closed = 1;
nodes = (
"46 670 LINE",
"46 563 LINE",
"214 583 LINE",
"282 583 LINE",
"282 670 LINE"
);
},
{
closed = 1;
nodes = (
"136 595 LINE",
"46 577 LINE",
"46 487 LINE",
"136 487 LINE"
);
},
{
closed = 1;
nodes = (
"43 392 LINE",
"42 290 LINE",
"236 306 LINE",
"236 392 LINE"
);
},
{
closed = 1;
nodes = (
"329 0 LINE",
"329 670 LINE",
"227 670 LINE",
"227 0 LINE"
);
}
);
userData = {
com.schriftgestaltung.Glyphs.lastChange = "2019-07-05 22:29:01 +0000";
};
width = 556;
}
);
leftKerningGroup = n;
rightKerningGroup = n;
},
{
glyphname = b.ss01;
lastChange = "2022-10-04 09:56:03 +0000";
layers = (
{
anchors = (
{
name = bottom;
position = "{228, 0}";
},
{
name = top;
position = "{228, 800}";
}
);
layerId = "74E8EC48-609C-4650-B918-3C45F21958A5";
paths = (
{
closed = 1;
nodes = (
"42 863 LINE",
"65 660 LINE",
"65 0 LINE",
"389 0 LINE",
"389 467 LINE",
"414 670 LINE",
"159 670 LINE",
"159 863 LINE"
);
},
{
closed = 1;
nodes = (
"159 586 LINE",
"295 586 LINE",
"295 84 LINE",
"159 84 LINE"
);
}
);
userData = {
com.schriftgestaltung.Glyphs.lastChange = "2019-07-05 22:29:01 +0000";
};
width = 456;
}
);
leftKerningGroup = H;
rightKerningGroup = n;
},
{
glyphname = c.ss01;
lastChange = "2022-10-04 09:56:19 +0000";
layers = (
{
anchors = (
{
name = bottom;
position = "{191, 0}";
},
{
name = top;
position = "{191, 670}";
}
);
layerId = "74E8EC48-609C-4650-B918-3C45F21958A5";
paths = (
{
closed = 1;
nodes = (
"61 583 LINE",
"168 583 LINE",
"340 563 LINE",
"340 670 LINE",
"61 670 LINE"
);
},
{
closed = 1;
nodes = (
"340 487 LINE",
"340 577 LINE",
"246 595 LINE",
"246 487 LINE"
);
},
{
closed = 1;
nodes = (
"155 0 LINE",
"155 670 LINE",
"42 670 LINE",
"61 507 LINE",
"61 166 LINE",
"55 112 OFFCURVE",
"48 54 OFFCURVE",
"42 0 CURVE"
);
},
{
closed = 1;
nodes = (
"336 0 LINE",
"336 107 LINE",
"168 87 LINE",
"61 87 LINE",
"61 0 LINE"
);
},
{
closed = 1;
nodes = (
"246 75 LINE",
"336 93 LINE",
"336 183 LINE",
"246 183 LINE"
);
}
);
userData = {
com.schriftgestaltung.Glyphs.lastChange = "2019-07-05 22:29:01 +0000";
};
width = 382;
}
);
leftKerningGroup = n;
rightKerningGroup = n;
},
{
glyphname = d.ss01;
lastChange = "2022-10-04 09:56:19 +0000";
layers = (
{
anchors = (
{
name = bottom;
position = "{228, 0}";
},
{
name = center;
position = "{228, 335}";
},
{
name = top;
position = "{228, 800}";
},
{
name = topright;
position = "{436, 670}";
}
);
layerId = "74E8EC48-609C-4650-B918-3C45F21958A5";
paths = (
{
closed = 1;
nodes = (
"297 670 LINE",
"42 670 LINE",
"67 467 LINE",
"67 0 LINE",
"391 0 LINE",
"391 660 LINE",
"414 863 LINE",
"297 863 LINE"
);
},
{
closed = 1;
nodes = (
"161 84 LINE",
"161 587 LINE",
"297 587 LINE",
"297 84 LINE"
);
}
);
userData = {
com.schriftgestaltung.Glyphs.lastChange = "2019-07-05 22:29:01 +0000";
};
width = 456;
}
);
leftKerningGroup = n;
rightKerningGroup = n;
},
{
glyphname = dcaron.ss01;
lastChange = "2022-10-04 09:56:19 +0000";
layers = (
{
anchors = (
{
name = bottom;
position = "{228, 0}";
},
{
name = center;
position = "{228, 335}";
},
{
name = top;
position = "{228, 934}";
},
{
name = topright;
position = "{436, 670}";
}
);
layerId = "74E8EC48-609C-4650-B918-3C45F21958A5";
paths = (
{
closed = 1;
nodes = (
"297 670 LINE",
"42 670 LINE",
"67 467 LINE",
"67 0 LINE",
"391 0 LINE",
"391 660 LINE",
"414 863 LINE",
"297 863 LINE"
);
},
{
closed = 1;
nodes = (
"161 84 LINE",
"161 587 LINE",
"297 587 LINE",
"297 84 LINE"
);
},
{
closed = 1;
nodes = (
"560 646 LINE",
"650 862 LINE",
"550 862 LINE",
"505 754 LINE",
"442 646 LINE"
);
}
);
userData = {
com.schriftgestaltung.Glyphs.lastChange = "2019-07-05 22:29:01 +0000";
};
width = 628;
}
);
leftKerningGroup = n;
rightKerningGroup = n;
},
{
glyphname = dcroat.ss01;
lastChange = "2022-10-04 09:56:19 +0000";
layers = (
{
layerId = "74E8EC48-609C-4650-B918-3C45F21958A5";
paths = (
{
closed = 1;
nodes = (
"297 670 LINE",
"42 670 LINE",
"67 467 LINE",
"67 0 LINE",
"391 0 LINE",
"391 660 LINE",
"414 863 LINE",
"297 863 LINE"
);
},
{
closed = 1;
nodes = (
"161 84 LINE",
"161 587 LINE",
"297 587 LINE",
"297 84 LINE"
);
},
{
closed = 1;
nodes = (
"302 729 LINE",
"456 694 LINE",
"456 800 LINE",
"302 800 LINE",
"150 825 LINE",
"150 719 LINE"
);
}
);
userData = {
com.schriftgestaltung.Glyphs.lastChange = "2019-07-05 22:29:01 +0000";
};
width = 478;
}
);
leftKerningGroup = n;
rightKerningGroup = n;
},
{
glyphname = e.ss01;
lastChange = "2022-10-04 09:56:19 +0000";
layers = (
{
anchors = (
{
name = bottom;
position = "{191, 0}";
},
{
name = ogonek;
position = "{344, 10}";
},
{
name = top;
position = "{191, 670}";
}
);
layerId = "74E8EC48-609C-4650-B918-3C45F21958A5";
paths = (
{
closed = 1;
nodes = (
"61 583 LINE",
"168 583 LINE",
"340 563 LINE",
"340 670 LINE",
"61 670 LINE"
);
},
{
closed = 1;
nodes = (
"340 340 LINE",
"340 577 LINE",
"246 595 LINE",
"246 340 LINE"
);
},
{
closed = 1;
nodes = (
"155 0 LINE",
"155 670 LINE",
"42 670 LINE",
"61 507 LINE",
"61 166 LINE",
"55 112 OFFCURVE",
"48 54 OFFCURVE",
"42 0 CURVE"
);
},
{
closed = 1;
nodes = (
"336 0 LINE",
"336 107 LINE",
"168 87 LINE",
"61 87 LINE",
"61 0 LINE"
);
},
{
closed = 1;
nodes = (
"246 75 LINE",
"336 93 LINE",
"336 183 LINE",
"246 183 LINE"
);
},
{
closed = 1;
nodes = (
"339 278 LINE",
"340 380 LINE",
"106 364 LINE",
"106 278 LINE"
);
}
);
userData = {
com.schriftgestaltung.Glyphs.lastChange = "2019-07-05 22:29:01 +0000";
};
width = 382;
}
);
leftKerningGroup = n;
rightKerningGroup = n;
},
{
glyphname = f.ss01;
lastChange = "2021-01-03 21:52:44 +0000";
layers = (
{
anchors = (
{
name = bottom;
position = "{173, 0}";
},
{
name = top;
position = "{173, 862}";
}
);
layerId = "74E8EC48-609C-4650-B918-3C45F21958A5";
paths = (
{
closed = 1;
nodes = (
"42 862 LINE",
"61 697 LINE",
"61 166 LINE",
"42 0 LINE",
"155 0 LINE",
"155 478 LINE",
"288 478 LINE",
"289 580 LINE",
"155 564 LINE",
"155 778 LINE",
"289 778 LINE",
"289 862 LINE"
);
}
);
userData = {
com.schriftgestaltung.Glyphs.lastChange = "2019-07-05 22:29:01 +0000";
};
width = 321;
}
);
leftKerningGroup = h;
note = "\012    f\012  ";
},
{
glyphname = g.ss01;
lastChange = "2022-10-04 09:57:14 +0000";
layers = (
{
anchors = (
{
name = bottom;
position = "{235, -200}";
},
{
name = top;
position = "{235, 670}";
}
);
layerId = "74E8EC48-609C-4650-B918-3C45F21958A5";
paths = (
{
closed = 1;
nodes = (
"159 299 LINE",
"414 299 LINE",
"389 502 LINE",
"389 669 LINE",
"65 669 LINE",
"65 309 LINE",
"42 93 LINE",
"159 93 LINE"
);
},
{
closed = 1;
nodes = (
"295 585 LINE",
"295 383 LINE",
"159 383 LINE",
"159 585 LINE"
);
},
{
closed = 1;
nodes = (
"421 -153 LINE",
"421 -54 LINE",
"222 -76 LINE",
"160 -76 LINE",
"155 -153 LINE"
);
},
{
closed = 1;
nodes = (
"324 -153 LINE",
"437 -153 LINE",
"431 -99 OFFCURVE",
"424 -41 OFFCURVE",
"418 13 CURVE",
"418 136 LINE",
"324 136 LINE"
);
},
{
closed = 1;
nodes = (
"143 93 LINE",
"418 93 LINE",
"418 177 LINE",
"143 177 LINE"
);
},
{
closed = 1;
nodes = (
"317 -66 LINE",
"210 -66 LINE",
"42 -46 LINE",
"42 -153 LINE",
"317 -153 LINE"
);
},
{
closed = 1;
nodes = (
"42 30 LINE",
"42 -60 LINE",
"132 -78 LINE",
"132 30 LINE"
);
},
{
closed = 1;
nodes = (
"438 585 LINE",
"438 689 LINE",
"270 669 LINE",
"163 669 LINE",
"163 585 LINE"
);
}
);
userData = {
com.schriftgestaltung.Glyphs.lastChange = "2019-07-05 22:29:01 +0000";
};
width = 470;
}
);
leftKerningGroup = n;
},
{
glyphname = gcommaaccent.ss01;
lastChange = "2022-10-04 09:57:14 +0000";
layers = (
{
layerId = "74E8EC48-609C-4650-B918-3C45F21958A5";
paths = (
{
closed = 1;
nodes = (
"159 299 LINE",
"414 299 LINE",
"389 502 LINE",
"389 669 LINE",
"65 669 LINE",
"65 309 LINE",
"42 93 LINE",
"159 93 LINE"
);
},
{
closed = 1;
nodes = (
"295 585 LINE",
"295 383 LINE",
"159 383 LINE",
"159 585 LINE"
);
},
{
closed = 1;
nodes = (
"421 -153 LINE",
"421 -54 LINE",
"222 -76 LINE",
"160 -76 LINE",
"155 -153 LINE"
);
},
{
closed = 1;
nodes = (
"324 -153 LINE",
"437 -153 LINE",
"431 -99 OFFCURVE",
"424 -41 OFFCURVE",
"418 13 CURVE",
"418 136 LINE",
"324 136 LINE"
);
},
{
closed = 1;
nodes = (
"143 93 LINE",
"418 93 LINE",
"418 177 LINE",
"143 177 LINE"
);
},
{
closed = 1;
nodes = (
"317 -66 LINE",
"210 -66 LINE",
"42 -46 LINE",
"42 -153 LINE",
"317 -153 LINE"
);
},
{
closed = 1;
nodes = (
"42 30 LINE",
"42 -60 LINE",
"132 -78 LINE",
"132 30 LINE"
);
},
{
closed = 1;
nodes = (
"438 585 LINE",
"438 689 LINE",
"270 669 LINE",
"163 669 LINE",
"163 585 LINE"
);
},
{
closed = 1;
nodes = (
"265 975 LINE",
"228 862 LINE",
"162 770 LINE",
"302 770 LINE",
"376 971 LINE"
);
}
);
userData = {
com.schriftgestaltung.Glyphs.lastChange = "2019-07-05 22:29:01 +0000";
};
width = 470;
}
);
leftKerningGroup = n;
},
{
glyphname = o.ss01;
lastChange = "2022-10-04 09:56:31 +0000";
layers = (
{
anchors = (
{
name = bottom;
position = "{211, 0}";
},
{
name = center;
position = "{211, 335}";
},
{
name = ogonek;
position = "{379, 10}";
},
{
name = top;
position = "{211, 670}";
},
{
name = topright;
position = "{401, 670}";
}
);
layerId = "74E8EC48-609C-4650-B918-3C45F21958A5";
paths = (
{
closed = 1;
nodes = (
"155 0 LINE",
"155 670 LINE",
"42 670 LINE",
"61 507 LINE",
"61 166 LINE",
"55 112 OFFCURVE",
"48 54 OFFCURVE",
"42 0 CURVE"
);
},
{
closed = 1;
nodes = (
"373 54 OFFCURVE",
"366 112 OFFCURVE",
"360 166 CURVE",
"360 507 LINE",
"379 670 LINE",
"266 670 LINE",
"266 0 LINE",
"379 0 LINE"
);
},
{
closed = 1;
nodes = (
"107 586 LINE",
"298 586 LINE",
"298 670 LINE",
"107 670 LINE"
);
},
{
closed = 1;
nodes = (
"107 -1 LINE",
"298 -1 LINE",
"298 83 LINE",
"107 83 LINE"
);
}
);
userData = {
com.schriftgestaltung.Glyphs.lastChange = "2019-07-05 22:29:01 +0000";
};
width = 421;
}
);
leftKerningGroup = n;
rightKerningGroup = n;
},
{
glyphname = oslash.ss01;
lastChange = "2022-10-04 09:56:31 +0000";
layers = (
{
layerId = "74E8EC48-609C-4650-B918-3C45F21958A5";
paths = (
{
closed = 1;
nodes = (
"64 670 LINE",
"83 506 LINE",
"83 165 LINE",
"64 0 LINE",
"440 0 LINE",
"421 166 LINE",
"421 505 LINE",
"440 670 LINE"
);
},
{
closed = 1;
nodes = (
"173 583 LINE",
"331 583 LINE",
"331 87 LINE",
"173 87 LINE"
);
},
{
closed = 1;
nodes = (
"364 724 LINE",
"170 254 LINE",
"24 0 LINE",
"162 0 LINE",
"397 578 LINE",
"466 724 LINE"
);
}
);
userData = {
com.schriftgestaltung.Glyphs.lastChange = "2019-07-05 22:29:01 +0000";
};
width = 490;
}
);
leftKerningGroup = n;
rightKerningGroup = n;
},
{
glyphname = oe.ss01;
lastChange = "2022-10-04 09:56:31 +0000";
layers = (
{
layerId = "74E8EC48-609C-4650-B918-3C45F21958A5";
paths = (
{
closed = 1;
nodes = (
"155 0 LINE",
"155 670 LINE",
"42 670 LINE",
"61 507 LINE",
"61 166 LINE",
"55 112 OFFCURVE",
"48 56 OFFCURVE",
"42 0 CURVE"
);
},
{
closed = 1;
nodes = (
"107 586 LINE",
"298 586 LINE",
"298 670 LINE",
"107 670 LINE"
);
},
{
closed = 1;
nodes = (
"107 0 LINE",
"298 0 LINE",
"298 83 LINE",
"107 83 LINE"
);
},
{
closed = 1;
nodes = (
"314 583 LINE",
"381 583 LINE",
"553 563 LINE",
"553 670 LINE",
"314 670 LINE"
);
},
{
closed = 1;
nodes = (
"553 340 LINE",
"553 577 LINE",
"459 595 LINE",
"459 340 LINE"
);
},
{
closed = 1;
nodes = (
"549 0 LINE",
"549 107 LINE",
"381 87 LINE",
"314 87 LINE",
"314 0 LINE"
);
},
{
closed = 1;
nodes = (
"459 75 LINE",
"549 93 LINE",
"549 183 LINE",
"459 183 LINE"
);
},
{
closed = 1;
nodes = (
"552 278 LINE",
"553 380 LINE",
"359 364 LINE",
"359 278 LINE"
);
},
{
closed = 1;
nodes = (
"368 0 LINE",
"368 670 LINE",
"266 670 LINE",
"266 0 LINE"
);
}
);
userData = {
com.schriftgestaltung.Glyphs.lastChange = "2019-07-05 22:29:01 +0000";
};
width = 595;
}
);
leftKerningGroup = n;
rightKerningGroup = n;
},
{
glyphname = p.ss01;
lastChange = "2022-10-04 09:56:31 +0000";
layers = (
{
anchors = (
{
name = bottom;
position = "{222, 0}";
},
{
name = top;
position = "{222, 670}";
}
);
layerId = "74E8EC48-609C-4650-B918-3C45F21958A5";
paths = (
{
closed = 1;
nodes = (
"146 0 LINE",
"401 0 LINE",
"376 203 LINE",
"376 670 LINE",
"52 670 LINE",
"52 -193 LINE",
"169 -193 LINE"
);
},
{
closed = 1;
nodes = (
"282 586 LINE",
"282 84 LINE",
"146 84 LINE",
"146 586 LINE"
);
}
);
userData = {
com.schriftgestaltung.Glyphs.lastChange = "2019-07-05 22:29:01 +0000";
};
width = 443;
}
);
leftKerningGroup = n;
rightKerningGroup = n;
},
{
glyphname = q.ss01;
lastChange = "2022-10-04 09:56:31 +0000";
layers = (
{
anchors = (
{
name = bottom;
position = "{222, 0}";
},
{
name = top;
position = "{222, 670}";
}
);
layerId = "74E8EC48-609C-4650-B918-3C45F21958A5";
paths = (
{
closed = 1;
nodes = (
"391 -193 LINE",
"391 670 LINE",
"67 670 LINE",
"67 203 LINE",
"42 0 LINE",
"297 0 LINE",
"274 -193 LINE"
);
},
{
closed = 1;
nodes = (
"297 84 LINE",
"161 84 LINE",
"161 586 LINE",
"297 586 LINE"
);
}
);
userData = {
com.schriftgestaltung.Glyphs.lastChange = "2019-07-05 22:29:01 +0000";
};
width = 443;
}
);
leftKerningGroup = n;
rightKerningGroup = n;
},
{
glyphname = s.ss01;
lastChange = "2022-10-04 09:56:31 +0000";
layers = (
{
anchors = (
{
name = bottom;
position = "{199, 0}";
},
{
name = top;
position = "{199, 670}";
}
);
layerId = "74E8EC48-609C-4650-B918-3C45F21958A5";
paths = (
{
closed = 1;
nodes = (
"61 583 LINE",
"168 583 LINE",
"350 563 LINE",
"350 670 LINE",
"61 670 LINE"
);
},
{
closed = 1;
nodes = (
"350 487 LINE",
"350 577 LINE",
"256 595 LINE",
"256 487 LINE"
);
},
{
closed = 1;
nodes = (
"242 0 LINE",
"355 0 LINE",
"349 54 OFFCURVE",
"342 112 OFFCURVE",
"336 166 CURVE",
"336 329 LINE",
"242 329 LINE"
);
},
{
closed = 1;
nodes = (
"336 87 LINE",
"229 87 LINE",
"51 107 LINE",
"51 0 LINE",
"336 0 LINE"
);
},
{
closed = 1;
nodes = (
"51 183 LINE",
"51 93 LINE",
"141 75 LINE",
"141 183 LINE"
);
},
{
closed = 1;
nodes = (
"155 329 LINE",
"155 670 LINE",
"42 670 LINE",
"61 507 LINE",
"61 329 LINE"
);
},
{
closed = 1;
nodes = (
"61 286 LINE",
"336 286 LINE",
"336 370 LINE",
"61 370 LINE"
);
}
);
userData = {
com.schriftgestaltung.Glyphs.lastChange = "2019-07-05 22:29:01 +0000";
};
width = 397;
}
);
leftKerningGroup = n;
rightKerningGroup = n;
},
{
glyphname = y.ss02;
lastChange = "2022-10-04 09:56:48 +0000";
layers = (
{
anchors = (
{
name = bottom;
position = "{283, 0}";
},
{
name = top;
position = "{283, 670}";
}
);
layerId = "74E8EC48-609C-4650-B918-3C45F21958A5";
paths = (
{
closed = 1;
nodes = (
"261 239 LINE",
"189 62 LINE",
"42 -192 LINE",
"183 -192 LINE",
"534 670 LINE",
"438 670 LINE"
);
},
{
closed = 1;
nodes = (
"216 87 LINE",
"155 87 LINE",
"156 670 LINE",
"42 670 LINE",
"61 504 LINE",
"61 0 LINE",
"216 0 LINE"
);
}
);
userData = {
com.schriftgestaltung.Glyphs.lastChange = "2019-07-06 17:09:00 +0000";
};
width = 566;
}
);
leftKerningGroup = n;
rightKerningGroup = v;
},
{
glyphname = s.ss03;
lastChange = "2021-01-03 21:52:44 +0000";
layers = (
{
anchors = (
{
name = bottom;
position = "{240, 0}";
},
{
name = top;
position = "{240, 670}";
}
);
layerId = "74E8EC48-609C-4650-B918-3C45F21958A5";
paths = (
{
closed = 1;
nodes = (
"344 670 LINE",
"172 254 LINE",
"26 0 LINE",
"154 0 LINE",
"426 670 LINE"
);
},
{
closed = 1;
nodes = (
"413 672 OFFCURVE",
"369 674 OFFCURVE",
"321 674 CURVE SMOOTH",
"119 674 OFFCURVE",
"40 573 OFFCURVE",
"40 475 CURVE SMOOTH",
"40 380 OFFCURVE",
"109 288 OFFCURVE",
"207 288 CURVE SMOOTH",
"307 288 LINE",
"329 264 OFFCURVE",
"344 228 OFFCURVE",
"344 186 CURVE SMOOTH",
"344 139 OFFCURVE",
"319 107 OFFCURVE",
"297 83 CURVE",
"92 83 LINE",
"82 0 LINE",
"284 -1 LINE SMOOTH",
"377 -1 OFFCURVE",
"449 94 OFFCURVE",
"449 191 CURVE SMOOTH",
"449 284 OFFCURVE",
"370 377 OFFCURVE",
"274 377 CURVE SMOOTH",
"188 377 LINE",
"165 402 OFFCURVE",
"150 437 OFFCURVE",
"150 480 CURVE SMOOTH",
"150 523 OFFCURVE",
"166 561 OFFCURVE",
"188 586 CURVE",
"347 586 LINE",
"426 670 LINE"
);
}
);
userData = {
com.schriftgestaltung.Glyphs.lastChange = "2019-07-06 17:54:57 +0000";
};
width = 475;
}
);
leftKerningGroup = s;
note = "\012    uniEA13\012  ";
rightKerningGroup = s;
},
{
glyphname = g.ss04;
lastChange = "2022-10-04 15:28:07 +0000";
layers = (
{
anchors = (
{
name = bottom;
position = "{259, -200}";
},
{
name = top;
position = "{289, 670}";
}
);
layerId = "74E8EC48-609C-4650-B918-3C45F21958A5";
paths = (
{
closed = 1;
nodes = (
"110 379 LINE",
"90 135 LINE",
"207 135 LINE",
"207 379 LINE"
);
},
{
closed = 1;
nodes = (
"227 585 LINE",
"343 585 LINE",
"343 383 LINE",
"227 383 LINE",
"227 299 LINE",
"462 299 LINE",
"437 502 LINE",
"437 638 LINE",
"227 638 LINE"
);
},
{
closed = 1;
nodes = (
"191 135 LINE",
"292 135 LINE",
"292 219 LINE",
"191 219 LINE"
);
},
{
closed = 1;
nodes = (
"90 30 LINE",
"90 -60 LINE",
"180 -78 LINE",
"180 30 LINE"
);
},
{
closed = 1;
nodes = (
"318 585 LINE",
"486 585 LINE",
"486 689 LINE",
"318 669 LINE"
);
},
{
closed = 1;
nodes = (
"239 383 LINE",
"180 383 LINE",
"157 408 OFFCURVE",
"142 438 OFFCURVE",
"142 481 CURVE SMOOTH",
"142 524 OFFCURVE",
"158 560 OFFCURVE",
"180 585 CURVE",
"339 585 LINE",
"348 671 LINE",
"335 672 OFFCURVE",
"326 673 OFFCURVE",
"313 673 CURVE SMOOTH",
"111 673 OFFCURVE",
"32 574 OFFCURVE",
"32 476 CURVE SMOOTH",
"32 381 OFFCURVE",
"101 299 OFFCURVE",
"199 299 CURVE SMOOTH",
"239 299 LINE"
);
},
{
closed = 1;
nodes = (
"275 135 LINE",
"334 135 LINE",
"357 110 OFFCURVE",
"372 80 OFFCURVE",
"372 37 CURVE SMOOTH",
"372 -6 OFFCURVE",
"356 -42 OFFCURVE",
"334 -67 CURVE",
"175 -67 LINE",
"166 -153 LINE",
"179 -154 OFFCURVE",
"188 -155 OFFCURVE",
"201 -155 CURVE SMOOTH",
"403 -155 OFFCURVE",
"482 -56 OFFCURVE",
"482 42 CURVE SMOOTH",
"482 137 OFFCURVE",
"413 219 OFFCURVE",
"315 219 CURVE SMOOTH",
"275 219 LINE"
);
},
{
closed = 1;
nodes = (
"334 -67 LINE",
"90 -46 LINE",
"90 -153 LINE",
"166 -153 LINE"
);
}
);
userData = {
com.schriftgestaltung.Glyphs.lastChange = "2019-07-06 17:14:20 +0000";
};
width = 518;
}
);
leftKerningGroup = g4;
rightKerningGroup = g4;
},
{
glyphname = gcommaaccent.ss04;
lastChange = "2022-10-04 15:27:52 +0000";
layers = (
{
anchors = (
{
name = bottom;
position = "{259, -200}";
},
{
name = top;
position = "{289, 670}";
}
);
components = (
{
name = g.ss04;
}
);
layerId = "74E8EC48-609C-4650-B918-3C45F21958A5";
paths = (
{
closed = 1;
nodes = (
"305 975 LINE",
"268 862 LINE",
"202 770 LINE",
"342 770 LINE",
"416 971 LINE"
);
}
);
userData = {
com.schriftgestaltung.Glyphs.lastChange = "2019-07-06 17:14:20 +0000";
};
width = 518;
}
);
leftKerningGroup = g4;
rightKerningGroup = g4;
},
{
glyphname = y.ss04;
lastChange = "2022-10-04 16:33:07 +0000";
layers = (
{
anchors = (
{
name = bottom;
position = "{288, 0}";
},
{
name = top;
position = "{318, 670}";
}
);
layerId = "74E8EC48-609C-4650-B918-3C45F21958A5";
paths = (
{
closed = 1;
nodes = (
"303 -116 LINE",
"301 -116 LINE",
"102 -94 LINE",
"102 -193 LINE",
"308 -193 LINE"
);
},
{
closed = 1;
nodes = (
"189 670 LINE",
"22 670 LINE",
"142 462 LINE",
"272 0 LINE",
"366 0 LINE",
"350 62 LINE"
);
},
{
closed = 1;
nodes = (
"335 -193 LINE",
"560 670 LINE",
"463 670 LINE",
"288 0 LINE",
"206 -193 LINE"
);
}
);
userData = {
com.schriftgestaltung.Glyphs.lastChange = "2019-07-07 06:30:43 +0000";
};
width = 582;
}
);
leftKerningGroup = v;
rightKerningGroup = v;
},
{
glyphname = f_f.liga;
lastChange = "2022-10-04 08:31:33 +0000";
layers = (
{
layerId = "74E8EC48-609C-4650-B918-3C45F21958A5";
paths = (
{
closed = 1;
nodes = (
"32 443 LINE",
"93 453 LINE",
"93 270 LINE",
"187 270 LINE",
"187 374 LINE",
"197 453 LINE",
"314 453 LINE",
"314 540 LINE",
"32 540 LINE"
);
},
{
closed = 1;
nodes = (
"264 453 LINE",
"429 453 LINE",
"429 270 LINE",
"523 270 LINE",
"523 374 LINE",
"533 453 LINE",
"650 453 LINE",
"650 540 LINE",
"264 540 LINE"
);
},
{
closed = 1;
nodes = (
"187 0 LINE",
"187 682 LINE SMOOTH",
"187 746 OFFCURVE",
"211 773 OFFCURVE",
"245 773 CURVE",
"344 737 LINE",
"374 862 LINE",
"228 862 LINE SMOOTH",
"156 862 OFFCURVE",
"93 799 OFFCURVE",
"93 670 CURVE SMOOTH",
"93 166 LINE",
"74 0 LINE"
);
},
{
closed = 1;
nodes = (
"523 0 LINE",
"523 682 LINE SMOOTH",
"523 746 OFFCURVE",
"547 773 OFFCURVE",
"581 773 CURVE",
"680 737 LINE",
"710 862 LINE",
"564 862 LINE SMOOTH",
"492 862 OFFCURVE",
"429 799 OFFCURVE",
"429 670 CURVE SMOOTH",
"429 166 LINE",
"410 0 LINE"
);
}
);
width = 698;
}
);
leftKerningGroup = f;
leftMetricsKey = f;
rightKerningGroup = f;
rightMetricsKey = f;
},
{
glyphname = f_f_i.liga;
lastChange = "2022-10-04 08:31:36 +0000";
layers = (
{
anchors = (
{
name = bottom;
position = "{929, 0}";
}
);
layerId = "74E8EC48-609C-4650-B918-3C45F21958A5";
paths = (
{
closed = 1;
nodes = (
"32 443 LINE",
"93 453 LINE",
"93 270 LINE",
"187 270 LINE",
"187 374 LINE",
"197 453 LINE",
"314 453 LINE",
"314 540 LINE",
"32 540 LINE"
);
},
{
closed = 1;
nodes = (
"264 453 LINE",
"429 453 LINE",
"429 270 LINE",
"523 270 LINE",
"523 374 LINE",
"533 453 LINE",
"650 453 LINE",
"650 540 LINE",
"264 540 LINE"
);
},
{
closed = 1;
nodes = (
"692 589 LINE",
"711 423 LINE",
"711 166 LINE",
"692 0 LINE",
"824 0 LINE",
"805 164 LINE",
"805 425 LINE",
"824 589 LINE"
);
},
{
closed = 1;
nodes = (
"523 0 LINE",
"523 682 LINE SMOOTH",
"523 746 OFFCURVE",
"547 773 OFFCURVE",
"611 773 CURVE",
"820 737 LINE",
"850 862 LINE",
"564 862 LINE SMOOTH",
"492 862 OFFCURVE",
"429 799 OFFCURVE",
"429 670 CURVE SMOOTH",
"429 166 LINE",
"410 0 LINE"
);
},
{
closed = 1;
nodes = (
"187 0 LINE",
"187 682 LINE SMOOTH",
"187 746 OFFCURVE",
"211 773 OFFCURVE",
"245 773 CURVE",
"344 737 LINE",
"374 862 LINE",
"228 862 LINE SMOOTH",
"156 862 OFFCURVE",
"93 799 OFFCURVE",
"93 670 CURVE SMOOTH",
"93 166 LINE",
"74 0 LINE"
);
}
);
width = 896;
}
);
leftKerningGroup = f;
leftMetricsKey = f;
rightMetricsKey = i;
},
{
glyphname = f_f_l.liga;
lastChange = "2022-10-04 08:31:43 +0000";
layers = (
{
layerId = "74E8EC48-609C-4650-B918-3C45F21958A5";
paths = (
{
closed = 1;
nodes = (
"707 670 LINE",
"707 0 LINE",
"887 0 LINE",
"887 84 LINE",
"811 84 LINE",
"801 166 LINE",
"801 670 LINE"
);
},
{
closed = 1;
nodes = (
"684 862 LINE",
"707 660 LINE",
"707 203 LINE",
"801 203 LINE",
"801 660 LINE",
"804 862 LINE"
);
},
{
closed = 1;
nodes = (
"523 0 LINE",
"523 682 LINE SMOOTH",
"523 746 OFFCURVE",
"547 773 OFFCURVE",
"611 773 CURVE",
"756 758 LINE",
"756 862 LINE",
"564 862 LINE SMOOTH",
"492 862 OFFCURVE",
"429 799 OFFCURVE",
"429 670 CURVE SMOOTH",
"429 166 LINE",
"410 0 LINE"
);
},
{
closed = 1;
nodes = (
"32 443 LINE",
"93 453 LINE",
"93 270 LINE",
"187 270 LINE",
"187 374 LINE",
"197 453 LINE",
"314 453 LINE",
"314 540 LINE",
"32 540 LINE"
);
},
{
closed = 1;
nodes = (
"264 453 LINE",
"429 453 LINE",
"429 270 LINE",
"523 270 LINE",
"523 374 LINE",
"533 453 LINE",
"650 453 LINE",
"650 540 LINE",
"264 540 LINE"
);
},
{
closed = 1;
nodes = (
"187 0 LINE",
"187 682 LINE SMOOTH",
"187 746 OFFCURVE",
"211 773 OFFCURVE",
"245 773 CURVE",
"344 737 LINE",
"374 862 LINE",
"228 862 LINE SMOOTH",
"156 862 OFFCURVE",
"93 799 OFFCURVE",
"93 670 CURVE SMOOTH",
"93 166 LINE",
"74 0 LINE"
);
}
);
width = 919;
}
);
leftKerningGroup = f;
leftMetricsKey = f;
rightKerningGroup = l;
rightMetricsKey = l;
},
{
glyphname = f_i.liga;
lastChange = "2022-10-04 08:31:47 +0000";
layers = (
{
anchors = (
{
name = bottom;
position = "{523, 0}";
}
);
layerId = "74E8EC48-609C-4650-B918-3C45F21958A5";
paths = (
{
closed = 1;
nodes = (
"32 443 LINE",
"93 453 LINE",
"93 270 LINE",
"187 270 LINE",
"187 374 LINE",
"197 453 LINE",
"322 453 LINE",
"314 540 LINE",
"32 540 LINE"
);
},
{
closed = 1;
nodes = (
"356 589 LINE",
"375 423 LINE",
"375 166 LINE",
"356 0 LINE",
"488 0 LINE",
"469 164 LINE",
"469 425 LINE",
"488 589 LINE"
);
},
{
closed = 1;
nodes = (
"187 0 LINE",
"187 682 LINE SMOOTH",
"187 746 OFFCURVE",
"211 773 OFFCURVE",
"275 773 CURVE",
"484 737 LINE",
"514 862 LINE",
"228 862 LINE SMOOTH",
"156 862 OFFCURVE",
"93 799 OFFCURVE",
"93 670 CURVE SMOOTH",
"93 166 LINE",
"74 0 LINE"
);
}
);
width = 560;
}
);
leftKerningGroup = f;
leftMetricsKey = f;
rightMetricsKey = i;
},
{
glyphname = f_j.liga;
lastChange = "2022-10-04 08:33:22 +0000";
layers = (
{
layerId = "74E8EC48-609C-4650-B918-3C45F21958A5";
paths = (
{
closed = 1;
nodes = (
"32 443 LINE",
"93 453 LINE",
"93 270 LINE",
"187 270 LINE",
"187 374 LINE",
"197 453 LINE",
"322 453 LINE",
"314 540 LINE",
"32 540 LINE"
);
},
{
closed = 1;
nodes = (
"356 589 LINE",
"375 423 LINE",
"375 166 LINE",
"469 164 LINE",
"469 425 LINE",
"488 589 LINE"
);
},
{
closed = 1;
nodes = (
"187 0 LINE",
"187 682 LINE SMOOTH",
"187 746 OFFCURVE",
"211 773 OFFCURVE",
"275 773 CURVE",
"484 737 LINE",
"514 862 LINE",
"228 862 LINE SMOOTH",
"156 862 OFFCURVE",
"93 799 OFFCURVE",
"93 670 CURVE SMOOTH",
"93 166 LINE",
"74 0 LINE"
);
},
{
closed = 1;
nodes = (
"469 468 LINE",
"375 468 LINE",
"375 11 LINE",
"352 -192 LINE",
"469 -192 LINE"
);
},
{
closed = 1;
nodes = (
"310 -192 LINE",
"400 -192 LINE",
"388 -105 LINE",
"310 -105 LINE"
);
}
);
width = 556;
}
);
leftKerningGroup = f;
leftMetricsKey = f;
rightKerningGroup = j;
rightMetricsKey = j;
},
{
glyphname = f_l.liga;
lastChange = "2022-10-04 08:31:54 +0000";
layers = (
{
layerId = "74E8EC48-609C-4650-B918-3C45F21958A5";
paths = (
{
closed = 1;
nodes = (
"32 443 LINE",
"93 453 LINE",
"93 270 LINE",
"187 270 LINE",
"187 374 LINE",
"197 453 LINE",
"314 453 LINE",
"314 540 LINE",
"32 540 LINE"
);
},
{
closed = 1;
nodes = (
"371 670 LINE",
"371 0 LINE",
"551 0 LINE",
"551 84 LINE",
"475 84 LINE",
"465 166 LINE",
"465 670 LINE"
);
},
{
closed = 1;
nodes = (
"348 862 LINE",
"371 660 LINE",
"371 203 LINE",
"465 203 LINE",
"465 660 LINE",
"468 862 LINE"
);
},
{
closed = 1;
nodes = (
"187 0 LINE",
"187 682 LINE SMOOTH",
"187 746 OFFCURVE",
"211 773 OFFCURVE",
"275 773 CURVE",
"420 758 LINE",
"420 862 LINE",
"228 862 LINE SMOOTH",
"156 862 OFFCURVE",
"93 799 OFFCURVE",
"93 670 CURVE SMOOTH",
"93 166 LINE",
"74 0 LINE"
);
}
);
width = 583;
}
);
leftKerningGroup = f;
leftMetricsKey = f;
rightKerningGroup = l;
rightMetricsKey = l;
},
{
glyphname = t_v.liga;
lastChange = "2022-10-04 08:32:00 +0000";
layers = (
{
anchors = (
{
name = bottom;
position = "{742, 0}";
},
{
name = center;
position = "{211, 335}";
},
{
name = top;
position = "{742, 670}";
},
{
name = topright;
position = "{382, 670}";
}
);
layerId = "74E8EC48-609C-4650-B918-3C45F21958A5";
paths = (
{
closed = 1;
nodes = (
"32 670 LINE",
"32 563 LINE",
"160 583 LINE",
"160 0 LINE",
"254 0 LINE",
"254 504 LINE",
"264 583 LINE",
"391 583 LINE",
"381 670 LINE"
);
},
{
closed = 1;
nodes = (
"160 520 LINE",
"160 140 LINE",
"254 140 LINE",
"254 597 LINE",
"277 800 LINE",
"157 800 LINE"
);
},
{
closed = 1;
nodes = (
"660 111 LINE",
"492 670 LINE",
"335 670 LINE",
"455 462 LINE",
"585 0 LINE",
"731 0 LINE",
"944 670 LINE",
"845 670 LINE",
"705 206 LINE"
);
}
);
userData = {
com.schriftgestaltung.Glyphs.lastChange = "2019-07-06 07:47:17 +0000";
};
width = 966;
}
);
leftKerningGroup = t;
leftMetricsKey = t;
rightKerningGroup = v;
rightMetricsKey = v;
},
{
glyphname = u_t.dlig;
lastChange = "2021-01-03 21:52:44 +0000";
layers = (
{
layerId = "74E8EC48-609C-4650-B918-3C45F21958A5";
paths = (
{
closed = 1;
nodes = (
"42 863 LINE",
"65 660 LINE",
"65 0 LINE",
"389 0 LINE",
"389 660 LINE",
"414 863 LINE",
"295 863 LINE",
"295 87 LINE",
"159 87 LINE",
"159 863 LINE"
);
},
{
closed = 1;
nodes = (
"363 862 LINE",
"363 753 LINE",
"562 775 LINE",
"583 775 LINE",
"583 0 LINE",
"681 0 LINE",
"681 658 LINE",
"696 775 LINE",
"921 775 LINE",
"921 862 LINE"
);
}
);
userData = {
com.schriftgestaltung.Glyphs.lastChange = "2019-07-03 09:08:42 +0000";
};
width = 953;
}
);
note = "\012    u_t\012  ";
rightKerningGroup = T;
},
{
glyphname = a.sc;
lastChange = "2021-01-03 21:52:44 +0000";
layers = (
{
anchors = (
{
name = bottom;
position = "{367, 0}";
},
{
name = ogonek;
position = "{669, 10}";
},
{
name = top;
position = "{387, 670}";
}
);
layerId = "74E8EC48-609C-4650-B918-3C45F21958A5";
paths = (
{
closed = 1;
nodes = (
"615 0 LINE",
"722 0 LINE",
"449 670 LINE",
"322 670 LINE",
"132 207 LINE",
"12 0 LINE",
"142 0 LINE",
"370 558 LINE",
"425 463 LINE"
);
},
{
closed = 1;
nodes = (
"528 302 LINE",
"228 302 LINE",
"191 218 LINE",
"566 218 LINE"
);
}
);
userData = {
com.schriftgestaltung.Glyphs.lastChange = "2019-07-06 17:33:05 +0000";
};
width = 734;
}
);
leftKerningGroup = asc;
note = "\012    a\012  ";
rightKerningGroup = asc;
},
{
glyphname = b.sc;
lastChange = "2022-10-04 16:24:03 +0000";
layers = (
{
anchors = (
{
name = bottom;
position = "{211, 0}";
},
{
name = top;
position = "{201, 800}";
}
);
layerId = "74E8EC48-609C-4650-B918-3C45F21958A5";
paths = (
{
closed = 1;
nodes = (
"42 674 LINE",
"61 507 LINE",
"61 168 LINE",
"42 0 LINE",
"203 0 LINE",
"300 8 OFFCURVE",
"362 96 OFFCURVE",
"362 185 CURVE SMOOTH",
"362 243 OFFCURVE",
"339 302 OFFCURVE",
"297 339 CURVE",
"332 374 OFFCURVE",
"348 426 OFFCURVE",
"348 478 CURVE SMOOTH",
"348 574 OFFCURVE",
"293 674 OFFCURVE",
"197 674 CURVE SMOOTH"
);
},
{
closed = 1;
nodes = (
"151 594 LINE",
"207 594 LINE",
"231 568 OFFCURVE",
"248 526 OFFCURVE",
"248 481 CURVE SMOOTH",
"248 437 OFFCURVE",
"232 399 OFFCURVE",
"208 373 CURVE",
"151 373 LINE"
);
},
{
closed = 1;
nodes = (
"223 291 LINE",
"246 266 OFFCURVE",
"262 229 OFFCURVE",
"262 186 CURVE SMOOTH",
"262 143 OFFCURVE",
"246 105 OFFCURVE",
"223 80 CURVE",
"151 80 LINE",
"151 291 LINE"
);
}
);
userData = {
com.schriftgestaltung.Glyphs.lastChange = "2019-07-06 17:50:35 +0000";
};
width = 404;
}
);
leftKerningGroup = n;
note = "\012    b\012  ";
rightKerningGroup = B;
},
{
glyphname = c.sc;
lastChange = "2022-10-04 16:23:47 +0000";
layers = (
{
anchors = (
{
name = bottom;
position = "{339, 0}";
},
{
name = top;
position = "{223, 670}";
}
);
layerId = "74E8EC48-609C-4650-B918-3C45F21958A5";
paths = (
{
closed = 1;
nodes = (
"362 673 OFFCURVE",
"334 674 OFFCURVE",
"306 674 CURVE SMOOTH",
"140 674 OFFCURVE",
"42 496 OFFCURVE",
"42 324 CURVE SMOOTH",
"42 159 OFFCURVE",
"133 0 OFFCURVE",
"306 -1 CURVE",
"390 0 LINE",
"380 83 LINE",
"249 83 LINE",
"190 140 OFFCURVE",
"152 235 OFFCURVE",
"152 336 CURVE SMOOTH",
"152 436 OFFCURVE",
"190 529 OFFCURVE",
"248 586 CURVE",
"380 586 LINE",
"390 671 LINE"
);
}
);
userData = {
com.schriftgestaltung.Glyphs.lastChange = "2019-07-06 17:50:35 +0000";
};
width = 432;
}
);
leftKerningGroup = o;
note = "\012    c\012  ";
rightKerningGroup = c;
},
{
glyphname = d.sc;
lastChange = "2022-10-04 16:24:03 +0000";
layers = (
{
anchors = (
{
name = bottom;
position = "{239, 0}";
},
{
name = center;
position = "{239, 335}";
},
{
name = top;
position = "{239, 800}";
},
{
name = topright;
position = "{447, 670}";
}
);
layerId = "74E8EC48-609C-4650-B918-3C45F21958A5";
paths = (
{
closed = 1;
nodes = (
"42 671 LINE",
"61 507 LINE",
"61 164 LINE",
"42 0 LINE",
"174 -4 LINE",
"175 -4 LINE SMOOTH",
"348 -4 OFFCURVE",
"438 159 OFFCURVE",
"438 323 CURVE SMOOTH",
"438 496 OFFCURVE",
"340 673 OFFCURVE",
"174 672 CURVE SMOOTH"
);
},
{
closed = 1;
nodes = (
"151 592 LINE",
"232 592 LINE",
"290 535 OFFCURVE",
"328 436 OFFCURVE",
"328 336 CURVE SMOOTH",
"328 235 OFFCURVE",
"289 133 OFFCURVE",
"231 76 CURVE",
"151 76 LINE"
);
}
);
userData = {
com.schriftgestaltung.Glyphs.lastChange = "2019-07-06 17:50:35 +0000";
};
width = 470;
}
);
leftKerningGroup = n;
note = "\012    d\012  ";
rightKerningGroup = d;
},
{
glyphname = eth.sc;
lastChange = "2022-10-04 16:27:58 +0000";
layers = (
{
layerId = "74E8EC48-609C-4650-B918-3C45F21958A5";
paths = (
{
closed = 1;
nodes = (
"236 1121 LINE",
"383 866 LINE",
"383 865 LINE",
"364 866 LINE SMOOTH",
"155 877 OFFCURVE",
"42 640 OFFCURVE",
"42 419 CURVE SMOOTH",
"42 209 OFFCURVE",
"144 0 OFFCURVE",
"364 0 CURVE SMOOTH",
"482 0 LINE",
"657 433 LINE",
"377 1121 LINE"
);
},
{
closed = 1;
nodes = (
"390 778 LINE",
"487 610 LINE",
"560 433 LINE",
"489 257 LINE",
"390 87 LINE",
"290 87 LINE",
"206 166 OFFCURVE",
"152 293 OFFCURVE",
"152 434 CURVE SMOOTH",
"152 574 OFFCURVE",
"206 699 OFFCURVE",
"289 778 CURVE"
);
},
{
closed = 1;
nodes = (
"587 1059 LINE",
"384 1023 LINE",
"181 1023 LINE",
"181 914 LINE",
"384 949 LINE",
"587 949 LINE"
);
}
);
userData = {
com.schriftgestaltung.Glyphs.lastChange = "2019-07-06 17:50:35 +0000";
};
width = 699;
}
);
leftKerningGroup = O;
note = "\012    eth\012  ";
},
{
glyphname = f.sc;
lastChange = "2022-10-04 16:21:43 +0000";
layers = (
{
anchors = (
{
name = bottom;
position = "{169, 0}";
},
{
name = top;
position = "{169, 800}";
}
);
layerId = "74E8EC48-609C-4650-B918-3C45F21958A5";
paths = (
{
closed = 1;
nodes = (
"42 671 LINE",
"61 506 LINE",
"61 166 LINE",
"42 0 LINE",
"151 0 LINE",
"151 283 LINE",
"284 283 LINE",
"285 380 LINE",
"151 364 LINE",
"151 587 LINE",
"285 587 LINE",
"285 671 LINE"
);
}
);
userData = {
com.schriftgestaltung.Glyphs.lastChange = "2019-07-06 17:50:35 +0000";
};
width = 327;
}
);
leftKerningGroup = n;
note = "\012    f\012  ";
rightKerningGroup = n;
},
{
glyphname = g.sc;
lastChange = "2022-10-04 16:20:26 +0000";
layers = (
{
anchors = (
{
name = bottom;
position = "{221, -200}";
},
{
name = top;
position = "{221, 670}";
}
);
layerId = "74E8EC48-609C-4650-B918-3C45F21958A5";
paths = (
{
closed = 1;
nodes = (
"361 672 OFFCURVE",
"324 674 OFFCURVE",
"291 674 CURVE SMOOTH",
"135 674 OFFCURVE",
"42 495 OFFCURVE",
"42 328 CURVE SMOOTH",
"42 163 OFFCURVE",
"133 0 OFFCURVE",
"306 0 CURVE SMOOTH",
"395 0 LINE",
"383 100 LINE",
"383 368 LINE",
"231 380 LINE",
"231 283 LINE",
"293 283 LINE",
"293 93 LINE",
"249 93 LINE",
"191 150 OFFCURVE",
"152 239 OFFCURVE",
"152 340 CURVE SMOOTH",
"152 440 OFFCURVE",
"191 529 OFFCURVE",
"249 586 CURVE",
"384 586 LINE",
"394 670 LINE"
);
}
);
userData = {
com.schriftgestaltung.Glyphs.lastChange = "2019-07-06 17:50:35 +0000";
};
width = 437;
}
);
leftKerningGroup = o;
note = "\012    g\012  ";
rightKerningGroup = n;
},
{
glyphname = h.sc;
lastChange = "2022-10-04 16:21:43 +0000";
layers = (
{
anchors = (
{
name = bottom;
position = "{202, 0}";
},
{
name = center;
position = "{202, 400}";
},
{
name = top;
position = "{202, 800}";
}
);
layerId = "74E8EC48-609C-4650-B918-3C45F21958A5";
paths = (
{
closed = 1;
nodes = (
"42 671 LINE",
"61 507 LINE",
"61 165 LINE",
"42 0 LINE",
"151 0 LINE",
"151 269 LINE",
"252 269 LINE",
"251 0 LINE",
"361 0 LINE",
"342 166 LINE",
"342 506 LINE",
"361 671 LINE",
"252 671 LINE",
"252 356 LINE",
"151 356 LINE",
"151 671 LINE"
);
}
);
userData = {
com.schriftgestaltung.Glyphs.lastChange = "2019-07-06 17:50:35 +0000";
};
width = 403;
}
);
leftKerningGroup = n;
note = "\012    h\012  ";
rightKerningGroup = n;
},
{
glyphname = i.sc;
lastChange = "2021-01-03 21:52:44 +0000";
layers = (
{
anchors = (
{
name = bottom;
position = "{117, 0}";
}
);
layerId = "74E8EC48-609C-4650-B918-3C45F21958A5";
paths = (
{
closed = 1;
nodes = (
"52 589 LINE",
"71 423 LINE",
"71 166 LINE",
"52 0 LINE",
"180 0 LINE",
"161 164 LINE",
"161 425 LINE",
"180 589 LINE"
);
},
{
closed = 1;
nodes = (
"53 741 LINE",
"65 647 LINE",
"174 647 LINE",
"184 741 LINE"
);
}
);
userData = {
com.schriftgestaltung.Glyphs.lastChange = "2019-07-07 08:03:56 +0000";
};
width = 232;
}
);
leftKerningGroup = i;
note = "\012    i\012  ";
rightKerningGroup = i;
},
{
glyphname = idotless.sc;
lastChange = "2022-10-04 16:22:35 +0000";
layers = (
{
anchors = (
{
name = bottom;
position = "{112, 0}";
},
{
name = ogonek;
position = "{202, 10}";
},
{
name = top;
position = "{112, 589}";
}
);
layerId = "74E8EC48-609C-4650-B918-3C45F21958A5";
paths = (
{
closed = 1;
nodes = (
"52 589 LINE",
"71 423 LINE",
"71 166 LINE",
"52 0 LINE",
"180 0 LINE",
"161 164 LINE",
"161 425 LINE",
"180 589 LINE"
);
}
);
userData = {
com.schriftgestaltung.Glyphs.lastChange = "2019-07-06 17:50:35 +0000";
};
width = 232;
}
);
leftKerningGroup = i;
rightKerningGroup = i;
},
{
glyphname = j.sc;
lastChange = "2022-10-04 16:22:47 +0000";
layers = (
{
layerId = "74E8EC48-609C-4650-B918-3C45F21958A5";
paths = (
{
closed = 1;
nodes = (
"231 671 LINE",
"231 84 LINE",
"153 84 LINE",
"153 434 LINE",
"42 434 LINE",
"63 270 LINE",
"63 0 LINE",
"321 0 LINE",
"321 506 LINE",
"340 671 LINE"
);
}
);
userData = {
com.schriftgestaltung.Glyphs.lastChange = "2019-07-06 17:50:35 +0000";
};
width = 382;
}
);
leftKerningGroup = J;
note = "\012    j\012  ";
rightKerningGroup = n;
},
{
glyphname = k.sc;
lastChange = "2022-10-04 16:23:05 +0000";
layers = (
{
anchors = (
{
name = bottom;
position = "{239, 0}";
},
{
name = top;
position = "{239, 800}";
}
);
layerId = "74E8EC48-609C-4650-B918-3C45F21958A5";
paths = (
{
closed = 1;
nodes = (
"42 671 LINE",
"61 505 LINE",
"61 166 LINE",
"42 0 LINE",
"170 0 LINE",
"151 166 LINE",
"151 505 LINE",
"170 671 LINE"
);
},
{
closed = 1;
nodes = (
"305 670 LINE",
"168 335 LINE",
"305 0 LINE",
"436 0 LINE",
"315 208 LINE",
"263 335 LINE",
"315 461 LINE",
"436 670 LINE"
);
}
);
userData = {
com.schriftgestaltung.Glyphs.lastChange = "2019-07-06 17:50:35 +0000";
};
width = 478;
}
);
leftKerningGroup = n;
note = "\012    k\012  ";
rightKerningGroup = k;
},
{
glyphname = l.sc;
lastChange = "2022-10-04 16:27:15 +0000";
layers = (
{
anchors = (
{
name = bottom;
position = "{197, 0}";
},
{
name = center;
position = "{197, 400}";
},
{
name = top;
position = "{197, 800}";
},
{
name = topright;
position = "{364, 800}";
}
);
layerId = "74E8EC48-609C-4650-B918-3C45F21958A5";
paths = (
{
closed = 1;
nodes = (
"52 670 LINE",
"52 0 LINE",
"332 0 LINE",
"332 84 LINE",
"156 84 LINE",
"146 166 LINE",
"146 670 LINE"
);
}
);
userData = {
com.schriftgestaltung.Glyphs.lastChange = "2019-07-06 17:50:35 +0000";
};
width = 384;
}
);
leftKerningGroup = n;
note = "\012    l\012  ";
rightKerningGroup = l;
},
{
glyphname = m.sc;
lastChange = "2022-10-04 16:20:57 +0000";
layers = (
{
anchors = (
{
name = bottom;
position = "{286, 0}";
},
{
name = top;
position = "{286, 670}";
}
);
layerId = "74E8EC48-609C-4650-B918-3C45F21958A5";
paths = (
{
closed = 1;
nodes = (
"42 672 LINE",
"60 506 LINE",
"60 166 LINE",
"42 0 LINE",
"150 0 LINE",
"150 438 LINE",
"241 193 LINE",
"331 193 LINE",
"422 438 LINE",
"422 -1 LINE",
"530 -1 LINE",
"512 164 LINE",
"512 507 LINE",
"530 671 LINE",
"422 671 LINE",
"286 326 LINE",
"150 672 LINE"
);
}
);
userData = {
com.schriftgestaltung.Glyphs.lastChange = "2019-07-06 17:50:35 +0000";
};
width = 572;
}
);
leftKerningGroup = n;
note = "\012    m\012  ";
rightKerningGroup = n;
},
{
glyphname = n.sc;
lastChange = "2022-10-04 16:26:52 +0000";
layers = (
{
anchors = (
{
name = bottom;
position = "{248, 0}";
},
{
name = top;
position = "{248, 670}";
}
);
layerId = "74E8EC48-609C-4650-B918-3C45F21958A5";
paths = (
{
closed = 1;
nodes = (
"343 672 LINE",
"343 179 LINE",
"147 672 LINE",
"42 672 LINE",
"61 506 LINE",
"61 166 LINE",
"42 0 LINE",
"151 0 LINE",
"151 418 LINE",
"322 -1 LINE",
"453 -1 LINE",
"433 166 LINE",
"433 506 LINE",
"452 672 LINE"
);
}
);
userData = {
com.schriftgestaltung.Glyphs.lastChange = "2019-07-06 17:50:35 +0000";
};
width = 495;
}
);
leftKerningGroup = n;
note = "\012    n\012  ";
rightKerningGroup = n;
},
{
glyphname = o.sc;
lastChange = "2022-10-04 16:23:21 +0000";
layers = (
{
anchors = (
{
name = bottom;
position = "{220, 0}";
},
{
name = center;
position = "{220, 335}";
},
{
name = ogonek;
position = "{388, 10}";
},
{
name = top;
position = "{220, 670}";
},
{
name = topright;
position = "{410, 670}";
}
);
layerId = "74E8EC48-609C-4650-B918-3C45F21958A5";
paths = (
{
closed = 1;
nodes = (
"42 671 LINE",
"61 507 LINE",
"61 165 LINE",
"42 0 LINE",
"398 0 LINE",
"379 166 LINE",
"379 506 LINE",
"398 671 LINE"
);
},
{
closed = 1;
nodes = (
"151 584 LINE",
"289 584 LINE",
"289 87 LINE",
"151 87 LINE"
);
}
);
userData = {
com.schriftgestaltung.Glyphs.lastChange = "2019-07-06 17:50:35 +0000";
};
width = 440;
}
);
leftKerningGroup = n;
note = "\012    o\012  ";
rightKerningGroup = n;
},
{
glyphname = oe.sc;
lastChange = "2022-10-04 16:23:35 +0000";
layers = (
{
layerId = "74E8EC48-609C-4650-B918-3C45F21958A5";
paths = (
{
closed = 1;
nodes = (
"300 671 LINE",
"319 506 LINE",
"319 166 LINE",
"300 0 LINE",
"543 0 LINE",
"543 84 LINE",
"409 84 LINE",
"409 283 LINE",
"542 283 LINE",
"543 380 LINE",
"409 364 LINE",
"409 587 LINE",
"543 587 LINE",
"543 671 LINE"
);
},
{
closed = 1;
nodes = (
"352 673 OFFCURVE",
"324 674 OFFCURVE",
"296 674 CURVE SMOOTH",
"130 674 OFFCURVE",
"32 496 OFFCURVE",
"32 324 CURVE SMOOTH",
"32 159 OFFCURVE",
"123 0 OFFCURVE",
"296 -1 CURVE",
"380 0 LINE",
"370 83 LINE",
"239 83 LINE",
"180 140 OFFCURVE",
"142 235 OFFCURVE",
"142 336 CURVE SMOOTH",
"142 436 OFFCURVE",
"180 529 OFFCURVE",
"238 586 CURVE",
"370 586 LINE",
"380 671 LINE"
);
}
);
userData = {
com.schriftgestaltung.Glyphs.lastChange = "2019-07-06 17:50:35 +0000";
};
width = 585;
}
);
leftKerningGroup = o;
note = "\012    oe\012  ";
rightKerningGroup = n;
},
{
glyphname = p.sc;
lastChange = "2022-10-04 16:24:11 +0000";
layers = (
{
anchors = (
{
name = bottom;
position = "{222, 0}";
},
{
name = top;
position = "{222, 670}";
}
);
layerId = "74E8EC48-609C-4650-B918-3C45F21958A5";
paths = (
{
closed = 1;
nodes = (
"42 671 LINE",
"61 506 LINE",
"61 166 LINE",
"42 0 LINE",
"169 0 LINE",
"153 142 LINE",
"193 142 LINE SMOOTH",
"330 142 OFFCURVE",
"393 270 OFFCURVE",
"393 399 CURVE SMOOTH",
"393 534 OFFCURVE",
"324 671 OFFCURVE",
"192 671 CURVE SMOOTH"
);
},
{
closed = 1;
nodes = (
"159 580 LINE",
"233 580 LINE",
"272 540 OFFCURVE",
"298 477 OFFCURVE",
"298 407 CURVE SMOOTH",
"298 336 OFFCURVE",
"272 274 OFFCURVE",
"232 234 CURVE",
"151 234 LINE",
"151 506 LINE"
);
}
);
userData = {
com.schriftgestaltung.Glyphs.lastChange = "2019-07-06 17:50:35 +0000";
};
width = 425;
}
);
leftKerningGroup = n;
note = "\012    p\012  ";
rightKerningGroup = psc;
},
{
glyphname = thorn.sc;
lastChange = "2022-10-04 16:24:11 +0000";
layers = (
{
layerId = "74E8EC48-609C-4650-B918-3C45F21958A5";
paths = (
{
closed = 1;
nodes = (
"158 0 LINE",
"158 144 LINE",
"389 144 LINE",
"389 306 LINE",
"414 509 LINE",
"159 508 LINE",
"158 671 LINE",
"42 671 LINE",
"65 468 LINE",
"65 203 LINE",
"42 0 LINE"
);
},
{
closed = 1;
nodes = (
"159 421 LINE",
"295 421 LINE",
"295 231 LINE",
"159 231 LINE"
);
}
);
userData = {
com.schriftgestaltung.Glyphs.lastChange = "2019-07-06 17:50:35 +0000";
};
width = 456;
}
);
leftKerningGroup = n;
},
{
glyphname = q.sc;
lastChange = "2022-10-04 16:24:11 +0000";
layers = (
{
anchors = (
{
name = bottom;
position = "{223, 0}";
},
{
name = top;
position = "{223, 670}";
}
);
layerId = "74E8EC48-609C-4650-B918-3C45F21958A5";
paths = (
{
closed = 1;
nodes = (
"42 671 LINE",
"60 507 LINE",
"60 165 LINE",
"42 0 LINE",
"193 0 LINE",
"279 -200 LINE",
"394 -200 LINE",
"274 0 LINE",
"397 0 LINE",
"378 166 LINE",
"378 506 LINE",
"397 671 LINE"
);
},
{
closed = 1;
nodes = (
"150 584 LINE",
"288 584 LINE",
"288 87 LINE",
"150 87 LINE"
);
}
);
userData = {
com.schriftgestaltung.Glyphs.lastChange = "2019-07-06 17:50:35 +0000";
};
width = 439;
}
);
leftKerningGroup = n;
note = "\012    q\012  ";
rightKerningGroup = H;
},
{
glyphname = r.sc;
lastChange = "2022-10-04 16:24:11 +0000";
layers = (
{
anchors = (
{
name = bottom;
position = "{231, 0}";
},
{
name = top;
position = "{231, 670}";
}
);
layerId = "74E8EC48-609C-4650-B918-3C45F21958A5";
paths = (
{
closed = 1;
nodes = (
"42 670 LINE",
"48 616 OFFCURVE",
"55 558 OFFCURVE",
"61 504 CURVE",
"61 163 LINE",
"42 0 LINE",
"151 0 LINE",
"151 299 LINE",
"172 299 LINE",
"293 0 LINE",
"428 0 LINE",
"310 203 LINE",
"258 307 LINE",
"327 334 OFFCURVE",
"383 410 OFFCURVE",
"383 485 CURVE SMOOTH",
"383 578 OFFCURVE",
"310 670 OFFCURVE",
"218 670 CURVE SMOOTH"
);
},
{
closed = 1;
nodes = (
"151 590 LINE",
"233 590 LINE",
"257 565 OFFCURVE",
"273 526 OFFCURVE",
"273 482 CURVE SMOOTH",
"273 438 OFFCURVE",
"257 399 OFFCURVE",
"233 374 CURVE",
"151 374 LINE"
);
}
);
userData = {
com.schriftgestaltung.Glyphs.lastChange = "2019-07-06 17:50:35 +0000";
};
width = 450;
}
);
leftKerningGroup = n;
note = "\012    r\012  ";
rightKerningGroup = r;
},
{
glyphname = s.sc;
lastChange = "2021-01-03 21:52:44 +0000";
layers = (
{
anchors = (
{
name = bottom;
position = "{206, 0}";
},
{
name = top;
position = "{206, 670}";
}
);
layerId = "74E8EC48-609C-4650-B918-3C45F21958A5";
paths = (
{
closed = 1;
nodes = (
"329 673 OFFCURVE",
"320 674 OFFCURVE",
"307 674 CURVE SMOOTH",
"105 674 OFFCURVE",
"26 573 OFFCURVE",
"26 475 CURVE SMOOTH",
"26 380 OFFCURVE",
"95 288 OFFCURVE",
"193 288 CURVE SMOOTH",
"238 288 LINE",
"260 264 OFFCURVE",
"275 228 OFFCURVE",
"275 186 CURVE SMOOTH",
"275 144 OFFCURVE",
"260 107 OFFCURVE",
"238 83 CURVE",
"58 83 LINE",
"48 0 LINE",
"220 -1 LINE SMOOTH",
"313 -2 OFFCURVE",
"385 94 OFFCURVE",
"385 191 CURVE SMOOTH",
"385 284 OFFCURVE",
"316 377 OFFCURVE",
"220 377 CURVE SMOOTH",
"174 377 LINE",
"151 402 OFFCURVE",
"136 437 OFFCURVE",
"136 480 CURVE SMOOTH",
"136 523 OFFCURVE",
"152 561 OFFCURVE",
"174 586 CURVE",
"333 586 LINE",
"342 672 LINE"
);
}
);
userData = {
com.schriftgestaltung.Glyphs.lastChange = "2019-07-06 17:50:35 +0000";
};
width = 411;
}
);
leftKerningGroup = s;
note = "\012    s\012  ";
rightKerningGroup = s;
},
{
glyphname = germandbls.sc;
lastChange = "2022-10-04 16:27:02 +0000";
layers = (
{
layerId = "74E8EC48-609C-4650-B918-3C45F21958A5";
paths = (
{
closed = 1;
nodes = (
"60 672 LINE",
"60 164 LINE",
"42 0 LINE",
"150 0 LINE",
"150 588 LINE",
"317 588 LINE",
"317 518 LINE",
"205 518 LINE",
"205 295 LINE",
"318 295 LINE",
"318 84 LINE",
"205 84 LINE",
"205 0 LINE",
"408 0 LINE",
"408 214 LINE",
"428 379 LINE",
"285 379 LINE",
"285 434 LINE",
"426 435 LINE",
"406 599 LINE",
"406 672 LINE"
);
}
);
userData = {
com.schriftgestaltung.Glyphs.lastChange = "2019-07-06 17:50:35 +0000";
};
width = 470;
}
);
leftKerningGroup = n;
rightKerningGroup = n;
},
{
glyphname = t.sc;
lastChange = "2022-10-04 14:52:15 +0000";
layers = (
{
anchors = (
{
name = bottom;
position = "{241, 0}";
},
{
name = center;
position = "{251, 335}";
},
{
name = top;
position = "{251, 670}";
},
{
name = topright;
position = "{492, 670}";
}
);
layerId = "74E8EC48-609C-4650-B918-3C45F21958A5";
paths = (
{
closed = 1;
nodes = (
"32 670 LINE",
"32 563 LINE",
"200 583 LINE",
"200 0 LINE",
"293 0 LINE",
"293 504 LINE",
"303 583 LINE",
"470 583 LINE",
"470 670 LINE"
);
}
);
userData = {
com.schriftgestaltung.Glyphs.lastChange = "2019-07-06 17:50:35 +0000";
};
width = 502;
}
);
leftKerningGroup = tsc;
note = "\012    t\012  ";
rightKerningGroup = tsc;
},
{
glyphname = u.sc;
lastChange = "2022-10-04 16:24:35 +0000";
layers = (
{
anchors = (
{
name = bottom;
position = "{190, 0}";
},
{
name = ogonek;
position = "{334, 10}";
},
{
name = top;
position = "{190, 670}";
},
{
name = topright;
position = "{350, 670}";
}
);
layerId = "74E8EC48-609C-4650-B918-3C45F21958A5";
paths = (
{
closed = 1;
nodes = (
"60 0 LINE",
"318 0 LINE",
"318 507 LINE",
"338 671 LINE",
"228 671 LINE",
"228 84 LINE",
"150 84 LINE",
"150 671 LINE",
"42 671 LINE",
"60 507 LINE"
);
}
);
userData = {
com.schriftgestaltung.Glyphs.lastChange = "2019-07-04 15:00:01 +0000";
};
width = 380;
}
);
leftKerningGroup = n;
note = "\012    u\012  ";
rightKerningGroup = n;
},
{
glyphname = x.sc;
lastChange = "2022-10-04 16:26:00 +0000";
layers = (
{
anchors = (
{
name = bottom;
position = "{231, 0}";
},
{
name = top;
position = "{231, 670}";
}
);
layerId = "74E8EC48-609C-4650-B918-3C45F21958A5";
paths = (
{
closed = 1;
nodes = (
"281 295 LINE",
"431 670 LINE",
"338 670 LINE",
"152 207 LINE",
"32 0 LINE",
"163 0 LINE"
);
},
{
closed = 1;
nodes = (
"228 295 LINE",
"342 0 LINE",
"450 0 LINE",
"250 436 LINE",
"163 671 LINE",
"32 670 LINE",
"152 463 LINE"
);
}
);
userData = {
com.schriftgestaltung.Glyphs.lastChange = "2019-07-04 15:00:01 +0000";
};
width = 461;
}
);
leftKerningGroup = x;
note = "\012    x\012  ";
rightKerningGroup = x;
},
{
glyphname = y.sc;
lastChange = "2022-10-04 16:25:53 +0000";
layers = (
{
anchors = (
{
name = bottom;
position = "{227, 0}";
},
{
name = top;
position = "{227, 670}";
}
);
layerId = "74E8EC48-609C-4650-B918-3C45F21958A5";
paths = (
{
closed = 1;
nodes = (
"32 670 LINE",
"152 463 LINE",
"205 335 LINE",
"152 207 LINE",
"32 0 LINE",
"162 0 LINE",
"435 670 LINE",
"338 670 LINE",
"250 436 LINE",
"163 670 LINE"
);
}
);
userData = {
com.schriftgestaltung.Glyphs.lastChange = "2019-07-04 15:00:01 +0000";
};
width = 454;
}
);
leftKerningGroup = x;
note = "\012    y\012  ";
rightKerningGroup = v;
},
{
glyphname = z.sc;
lastChange = "2022-10-04 16:26:37 +0000";
layers = (
{
anchors = (
{
name = bottom;
position = "{233, 0}";
},
{
name = center;
position = "{233, 335}";
},
{
name = top;
position = "{233, 670}";
}
);
layerId = "74E8EC48-609C-4650-B918-3C45F21958A5";
paths = (
{
closed = 1;
nodes = (
"52 670 LINE",
"52 583 LINE",
"344 583 LINE",
"310 621 LINE",
"142 209 LINE",
"32 0 LINE",
"432 0 LINE",
"432 87 LINE",
"158 87 LINE",
"181 49 LINE",
"433 670 LINE"
);
}
);
userData = {
com.schriftgestaltung.Glyphs.lastChange = "2019-07-04 15:00:01 +0000";
};
width = 465;
}
);
leftKerningGroup = z;
note = "\012    z\012  ";
rightKerningGroup = z;
},
{
glyphname = r.sc.ss03;
lastChange = "2021-01-03 21:52:44 +0000";
layers = (
{
layerId = "74E8EC48-609C-4650-B918-3C45F21958A5";
paths = (
{
closed = 1;
nodes = (
"32 670 LINE",
"38 616 OFFCURVE",
"45 558 OFFCURVE",
"51 504 CURVE",
"51 163 LINE",
"32 0 LINE",
"141 0 LINE",
"141 468 LINE",
"333 0 LINE",
"468 0 LINE",
"343 203 LINE",
"290 307 LINE",
"389 307 OFFCURVE",
"451 409 OFFCURVE",
"451 485 CURVE SMOOTH",
"451 578 OFFCURVE",
"378 670 OFFCURVE",
"286 670 CURVE SMOOTH"
);
},
{
closed = 1;
nodes = (
"270 380 LINE",
"182 590 LINE",
"306 590 LINE",
"330 565 OFFCURVE",
"346 526 OFFCURVE",
"346 482 CURVE SMOOTH",
"346 438 OFFCURVE",
"332 405 OFFCURVE",
"308 380 CURVE"
);
}
);
userData = {
com.schriftgestaltung.Glyphs.lastChange = "2019-07-06 17:51:49 +0000";
};
width = 502;
}
);
note = "\012    uniEA12\012  ";
},
{
glyphname = s.sc.ss03;
lastChange = "2022-10-04 16:27:34 +0000";
layers = (
{
anchors = (
{
name = bottom;
position = "{246, 0}";
},
{
name = top;
position = "{246, 670}";
}
);
layerId = "74E8EC48-609C-4650-B918-3C45F21958A5";
paths = (
{
closed = 1;
nodes = (
"350 670 LINE",
"178 254 LINE",
"32 0 LINE",
"160 0 LINE",
"432 670 LINE"
);
},
{
closed = 1;
nodes = (
"419 672 OFFCURVE",
"375 674 OFFCURVE",
"327 674 CURVE SMOOTH",
"125 674 OFFCURVE",
"46 573 OFFCURVE",
"46 475 CURVE SMOOTH",
"46 380 OFFCURVE",
"115 288 OFFCURVE",
"213 288 CURVE SMOOTH",
"313 288 LINE",
"335 264 OFFCURVE",
"350 228 OFFCURVE",
"350 186 CURVE SMOOTH",
"350 139 OFFCURVE",
"325 107 OFFCURVE",
"303 83 CURVE",
"98 83 LINE",
"88 0 LINE",
"290 -1 LINE SMOOTH",
"383 -1 OFFCURVE",
"455 94 OFFCURVE",
"455 191 CURVE SMOOTH",
"455 284 OFFCURVE",
"376 377 OFFCURVE",
"280 377 CURVE SMOOTH",
"194 377 LINE",
"171 402 OFFCURVE",
"156 437 OFFCURVE",
"156 480 CURVE SMOOTH",
"156 523 OFFCURVE",
"172 561 OFFCURVE",
"194 586 CURVE",
"353 586 LINE",
"432 670 LINE"
);
}
);
userData = {
com.schriftgestaltung.Glyphs.lastChange = "2019-07-06 17:51:41 +0000";
};
width = 481;
}
);
leftKerningGroup = s;
note = "\012    uniEA13\012  ";
rightKerningGroup = s;
},
{
glyphname = ordfeminine;
lastChange = "2021-01-03 21:52:44 +0000";
layers = (
{
components = (
{
name = tilde;
transform = "{1, 0, 0, 1, -22, -500}";
}
);
layerId = "74E8EC48-609C-4650-B918-3C45F21958A5";
paths = (
{
closed = 1;
nodes = (
"300 894 LINE",
"89 570 LINE",
"367 570 LINE",
"367 894 LINE"
);
},
{
closed = 1;
nodes = (
"292 755 LINE",
"292 646 LINE",
"225 646 LINE"
);
}
);
userData = {
com.schriftgestaltung.Glyphs.lastChange = "2019-07-04 14:12:40 +0000";
};
width = 494;
}
);
note = "\012    ordfeminine\012  ";
unicode = 00AA;
},
{
glyphname = zero;
lastChange = "2021-01-03 21:52:44 +0000";
layers = (
{
layerId = "74E8EC48-609C-4650-B918-3C45F21958A5";
paths = (
{
closed = 1;
nodes = (
"42 0 LINE",
"380 0 LINE",
"357 203 LINE",
"357 656 LINE",
"380 860 LINE",
"42 860 LINE"
);
},
{
closed = 1;
nodes = (
"263 87 LINE",
"136 87 LINE",
"136 657 LINE",
"151 773 LINE",
"263 773 LINE"
);
}
);
userData = {
com.schriftgestaltung.Glyphs.lastChange = "2019-07-02 21:14:18 +0000";
};
width = 422;
}
);
note = "\012    zero\012  ";
unicode = 0030;
},
{
glyphname = one;
lastChange = "2021-01-03 21:52:44 +0000";
layers = (
{
layerId = "74E8EC48-609C-4650-B918-3C45F21958A5";
paths = (
{
closed = 1;
nodes = (
"52 862 LINE",
"75 655 LINE",
"75 203 LINE",
"52 0 LINE",
"192 0 LINE",
"169 203 LINE",
"169 655 LINE",
"192 862 LINE"
);
}
);
userData = {
com.schriftgestaltung.Glyphs.lastChange = "2019-07-06 07:33:52 +0000";
};
width = 244;
}
);
note = "\012    one\012  ";
unicode = 0031;
},
{
glyphname = two;
lastChange = "2021-01-03 21:52:44 +0000";
layers = (
{
layerId = "74E8EC48-609C-4650-B918-3C45F21958A5";
paths = (
{
closed = 1;
nodes = (
"124 863 LINE",
"124 698 LINE",
"218 698 LINE",
"218 776 LINE",
"376 776 LINE",
"376 594 LINE",
"203 594 LINE",
"42 0 LINE",
"495 0 LINE",
"495 112 LINE",
"292 87 LINE",
"169 87 LINE",
"283 507 LINE",
"496 506 LINE",
"470 710 LINE",
"470 863 LINE"
);
}
);
userData = {
com.schriftgestaltung.Glyphs.lastChange = "2019-07-03 20:03:27 +0000";
};
width = 528;
}
);
note = "\012    two\012  ";
unicode = 0032;
},
{
glyphname = three;
lastChange = "2021-01-03 21:52:44 +0000";
layers = (
{
layerId = "74E8EC48-609C-4650-B918-3C45F21958A5";
paths = (
{
closed = 1;
nodes = (
"42 0 LINE",
"448 0 LINE",
"237 516 LINE",
"423 516 LINE",
"397 722 LINE",
"397 861 LINE",
"51 861 LINE",
"51 701 LINE",
"145 701 LINE",
"145 774 LINE",
"303 774 LINE",
"303 603 LINE",
"63 604 LINE",
"207 350 LINE",
"315 87 LINE",
"246 87 LINE",
"42 112 LINE"
);
}
);
userData = {
com.schriftgestaltung.Glyphs.lastChange = "2019-07-04 11:07:47 +0000";
};
width = 468;
}
);
note = "\012    three\012  ";
unicode = 0033;
},
{
glyphname = four;
lastChange = "2022-10-04 15:00:04 +0000";
layers = (
{
layerId = "74E8EC48-609C-4650-B918-3C45F21958A5";
paths = (
{
closed = 1;
nodes = (
"273 862 LINE",
"22 246 LINE",
"344 246 LINE",
"344 203 LINE",
"319 0 LINE",
"438 0 LINE",
"438 246 LINE",
"502 246 LINE",
"502 333 LINE",
"438 333 LINE",
"463 532 LINE",
"344 532 LINE",
"344 333 LINE",
"155 333 LINE",
"266 607 LINE",
"414 862 LINE"
);
}
);
userData = {
com.schriftgestaltung.Glyphs.lastChange = "2019-07-04 11:09:23 +0000";
};
width = 544;
}
);
note = "\012    four\012  ";
unicode = 0034;
},
{
glyphname = five;
lastChange = "2022-10-04 15:25:06 +0000";
layers = (
{
layerId = "74E8EC48-609C-4650-B918-3C45F21958A5";
paths = (
{
closed = 1;
nodes = (
"450 153 LINE",
"476 357 LINE",
"263 356 LINE",
"149 776 LINE",
"272 776 LINE",
"475 751 LINE",
"475 863 LINE",
"22 863 LINE",
"183 269 LINE",
"356 269 LINE",
"356 87 LINE",
"198 87 LINE",
"198 165 LINE",
"104 165 LINE",
"104 0 LINE",
"450 0 LINE"
);
}
);
userData = {
com.schriftgestaltung.Glyphs.lastChange = "2019-07-04 11:09:03 +0000";
};
width = 508;
}
);
note = "\012    five\012  ";
unicode = 0035;
},
{
glyphname = six;
lastChange = "2021-01-03 21:52:44 +0000";
layers = (
{
layerId = "74E8EC48-609C-4650-B918-3C45F21958A5";
paths = (
{
closed = 1;
nodes = (
"42 862 LINE",
"65 660 LINE",
"65 204 LINE",
"42 0 LINE",
"350 0 LINE",
"350 503 LINE",
"189 503 LINE",
"189 416 LINE",
"256 416 LINE",
"256 203 LINE",
"242 87 LINE",
"159 87 LINE",
"159 775 LINE",
"347 775 LINE",
"347 862 LINE"
);
}
);
userData = {
com.schriftgestaltung.Glyphs.lastChange = "2019-07-04 09:34:09 +0000";
};
width = 392;
}
);
note = "\012    six\012  ";
unicode = 0036;
},
{
glyphname = seven;
lastChange = "2021-01-03 21:52:44 +0000";
layers = (
{
layerId = "74E8EC48-609C-4650-B918-3C45F21958A5";
paths = (
{
closed = 1;
nodes = (
"42 862 LINE",
"42 775 LINE",
"418 775 LINE",
"203 254 LINE",
"56 0 LINE",
"205 0 LINE",
"561 862 LINE"
);
}
);
userData = {
com.schriftgestaltung.Glyphs.lastChange = "2019-07-03 20:04:00 +0000";
};
width = 593;
}
);
note = "\012    seven\012  ";
rightKerningGroup = V;
unicode = 0037;
},
{
glyphname = eight;
lastChange = "2021-01-03 21:52:44 +0000";
layers = (
{
layerId = "74E8EC48-609C-4650-B918-3C45F21958A5";
paths = (
{
closed = 1;
nodes = (
"42 862 LINE",
"42 421 LINE",
"110 421 LINE",
"110 204 LINE",
"88 0 LINE",
"397 0 LINE",
"397 508 LINE",
"328 508 LINE",
"328 658 LINE",
"351 862 LINE"
);
},
{
closed = 1;
nodes = (
"150 775 LINE",
"234 775 LINE",
"234 420 LINE",
"303 420 LINE",
"303 203 LINE",
"289 87 LINE",
"204 87 LINE",
"204 508 LINE",
"136 508 LINE",
"136 659 LINE"
);
}
);
userData = {
com.schriftgestaltung.Glyphs.lastChange = "2019-07-04 09:33:53 +0000";
};
width = 439;
}
);
note = "\012    eight\012  ";
unicode = 0038;
},
{
glyphname = nine;
lastChange = "2021-01-03 21:52:44 +0000";
layers = (
{
layerId = "74E8EC48-609C-4650-B918-3C45F21958A5";
paths = (
{
closed = 1;
nodes = (
"350 0 LINE",
"327 203 LINE",
"327 660 LINE",
"350 864 LINE",
"42 864 LINE",
"42 361 LINE",
"203 361 LINE",
"203 448 LINE",
"136 448 LINE",
"136 661 LINE",
"150 777 LINE",
"233 777 LINE",
"233 87 LINE",
"45 87 LINE",
"45 0 LINE"
);
}
);
userData = {
com.schriftgestaltung.Glyphs.lastChange = "2019-07-04 09:33:42 +0000";
};
width = 392;
}
);
note = "\012    nine\012  ";
unicode = 0039;
},
{
glyphname = zero.blackCircled;
lastChange = "2021-01-03 21:52:44 +0000";
layers = (
{
layerId = "74E8EC48-609C-4650-B918-3C45F21958A5";
paths = (
{
closed = 1;
nodes = (
"42 857 LINE",
"68 620 LINE",
"68 237 LINE",
"42 0 LINE",
"704 0 LINE",
"678 237 LINE",
"678 620 LINE",
"704 857 LINE"
);
},
{
closed = 1;
nodes = (
"485 542 LINE",
"485 319 LINE",
"498 200 LINE",
"267 200 LINE",
"267 662 LINE",
"498 662 LINE"
);
},
{
closed = 1;
nodes = (
"351 287 LINE",
"401 286 LINE",
"401 575 LINE",
"356 575 LINE",
"351 533 LINE"
);
}
);
userData = {
com.schriftgestaltung.Glyphs.lastChange = "2019-07-07 07:10:58 +0000";
};
width = 746;
}
);
unicode = 24FF;
},
{
glyphname = one.blackCircled;
lastChange = "2021-01-03 21:52:44 +0000";
layers = (
{
layerId = "74E8EC48-609C-4650-B918-3C45F21958A5";
paths = (
{
closed = 1;
nodes = (
"42 857 LINE",
"68 620 LINE",
"68 237 LINE",
"42 0 LINE",
"704 0 LINE",
"678 237 LINE",
"678 620 LINE",
"704 857 LINE"
);
},
{
closed = 1;
nodes = (
"413 542 LINE",
"413 320 LINE",
"426 200 LINE",
"316 200 LINE",
"329 318 LINE",
"329 544 LINE",
"316 661 LINE",
"426 661 LINE"
);
}
);
userData = {
com.schriftgestaltung.Glyphs.lastChange = "2019-07-05 11:27:43 +0000";
};
width = 746;
}
);
unicode = 2776;
},
{
glyphname = two.blackCircled;
lastChange = "2021-01-03 21:52:44 +0000";
layers = (
{
layerId = "74E8EC48-609C-4650-B918-3C45F21958A5";
paths = (
{
closed = 1;
nodes = (
"42 857 LINE",
"68 620 LINE",
"68 237 LINE",
"42 0 LINE",
"704 0 LINE",
"678 237 LINE",
"678 620 LINE",
"704 857 LINE"
);
},
{
closed = 1;
nodes = (
"477 518 LINE",
"492 398 LINE",
"360 398 LINE",
"329 274 LINE",
"372 274 LINE",
"492 289 LINE",
"492 200 LINE",
"221 200 LINE",
"295 473 LINE",
"393 473 LINE",
"393 587 LINE",
"346 587 LINE",
"346 549 LINE",
"262 549 LINE",
"262 662 LINE",
"477 662 LINE"
);
}
);
userData = {
com.schriftgestaltung.Glyphs.lastChange = "2019-07-05 11:27:54 +0000";
};
width = 746;
}
);
unicode = 2777;
},
{
glyphname = three.blackCircled;
lastChange = "2021-01-03 21:52:44 +0000";
layers = (
{
layerId = "74E8EC48-609C-4650-B918-3C45F21958A5";
paths = (
{
closed = 1;
nodes = (
"42 857 LINE",
"68 620 LINE",
"68 237 LINE",
"42 0 LINE",
"704 0 LINE",
"678 237 LINE",
"678 620 LINE",
"704 857 LINE"
);
},
{
closed = 1;
nodes = (
"372 274 LINE",
"391 274 LINE",
"361 344 LINE",
"274 494 LINE",
"412 494 LINE",
"396 587 LINE",
"346 587 LINE",
"346 549 LINE",
"262 549 LINE",
"262 662 LINE",
"480 662 LINE",
"480 577 LINE",
"501 420 LINE",
"417 420 LINE",
"507 200 LINE",
"252 200 LINE",
"252 289 LINE"
);
}
);
userData = {
com.schriftgestaltung.Glyphs.lastChange = "2019-07-05 11:28:03 +0000";
};
width = 746;
}
);
unicode = 2778;
},
{
glyphname = four.blackCircled;
lastChange = "2021-01-03 21:52:44 +0000";
layers = (
{
layerId = "74E8EC48-609C-4650-B918-3C45F21958A5";
paths = (
{
closed = 1;
nodes = (
"42 857 LINE",
"68 620 LINE",
"68 237 LINE",
"42 0 LINE",
"704 0 LINE",
"678 237 LINE",
"678 620 LINE",
"704 857 LINE"
);
},
{
closed = 1;
nodes = (
"371 512 LINE",
"324 397 LINE",
"393 397 LINE",
"393 497 LINE",
"492 497 LINE",
"480 397 LINE",
"510 397 LINE",
"510 322 LINE",
"477 322 LINE",
"478 199 LINE",
"379 199 LINE",
"394 317 LINE",
"394 322 LINE",
"212 322 LINE",
"351 662 LINE",
"457 662 LINE"
);
}
);
userData = {
com.schriftgestaltung.Glyphs.lastChange = "2019-07-05 11:28:30 +0000";
};
width = 746;
}
);
unicode = 2779;
},
{
glyphname = five.blackCircled;
lastChange = "2021-01-03 21:52:44 +0000";
layers = (
{
layerId = "74E8EC48-609C-4650-B918-3C45F21958A5";
paths = (
{
closed = 1;
nodes = (
"42 857 LINE",
"68 620 LINE",
"68 237 LINE",
"42 0 LINE",
"704 0 LINE",
"678 237 LINE",
"678 620 LINE",
"704 857 LINE"
);
},
{
closed = 1;
nodes = (
"262 200 LINE",
"262 313 LINE",
"346 313 LINE",
"346 275 LINE",
"393 275 LINE",
"393 389 LINE",
"295 389 LINE",
"221 662 LINE",
"492 662 LINE",
"492 573 LINE",
"372 588 LINE",
"329 588 LINE",
"360 464 LINE",
"492 464 LINE",
"477 344 LINE",
"477 200 LINE"
);
}
);
userData = {
com.schriftgestaltung.Glyphs.lastChange = "2019-07-05 11:28:38 +0000";
};
width = 746;
}
);
unicode = 277A;
},
{
glyphname = six.blackCircled;
lastChange = "2021-01-03 21:52:44 +0000";
layers = (
{
layerId = "74E8EC48-609C-4650-B918-3C45F21958A5";
paths = (
{
closed = 1;
nodes = (
"42 857 LINE",
"68 620 LINE",
"68 237 LINE",
"42 0 LINE",
"704 0 LINE",
"678 237 LINE",
"678 620 LINE",
"704 857 LINE"
);
},
{
closed = 1;
nodes = (
"475 586 LINE",
"349 586 LINE",
"349 481 LINE",
"477 482 LINE",
"477 198 LINE",
"252 198 LINE",
"265 316 LINE",
"265 544 LINE",
"252 662 LINE",
"475 662 LINE"
);
},
{
closed = 1;
nodes = (
"393 266 LINE",
"399 309 LINE",
"399 406 LINE",
"349 406 LINE",
"349 266 LINE"
);
}
);
userData = {
com.schriftgestaltung.Glyphs.lastChange = "2019-07-05 11:28:48 +0000";
};
width = 746;
}
);
unicode = 277B;
},
{
glyphname = seven.blackCircled;
lastChange = "2021-01-03 21:52:44 +0000";
layers = (
{
layerId = "74E8EC48-609C-4650-B918-3C45F21958A5";
paths = (
{
closed = 1;
nodes = (
"42 857 LINE",
"68 620 LINE",
"68 237 LINE",
"42 0 LINE",
"704 0 LINE",
"678 237 LINE",
"678 620 LINE",
"704 857 LINE"
);
},
{
closed = 1;
nodes = (
"359 200 LINE",
"242 200 LINE",
"329 349 LINE",
"427 587 LINE",
"247 587 LINE",
"247 663 LINE",
"549 663 LINE"
);
}
);
userData = {
com.schriftgestaltung.Glyphs.lastChange = "2019-07-05 11:28:55 +0000";
};
width = 746;
}
);
unicode = 277C;
},
{
glyphname = eight.blackCircled;
lastChange = "2021-01-03 21:52:44 +0000";
layers = (
{
layerId = "74E8EC48-609C-4650-B918-3C45F21958A5";
paths = (
{
closed = 1;
nodes = (
"42 857 LINE",
"68 620 LINE",
"68 237 LINE",
"42 0 LINE",
"704 0 LINE",
"678 237 LINE",
"678 620 LINE",
"704 857 LINE"
);
},
{
closed = 1;
nodes = (
"445 543 LINE",
"445 486 LINE",
"508 486 LINE",
"509 200 LINE",
"288 200 LINE",
"302 320 LINE",
"302 410 LINE",
"239 410 LINE",
"238 663 LINE",
"459 663 LINE"
);
},
{
closed = 1;
nodes = (
"317 436 LINE",
"367 436 LINE",
"367 587 LINE",
"322 587 LINE",
"317 545 LINE"
);
},
{
closed = 1;
nodes = (
"425 276 LINE",
"430 318 LINE",
"430 435 LINE",
"380 435 LINE",
"380 276 LINE"
);
}
);
userData = {
com.schriftgestaltung.Glyphs.lastChange = "2019-07-05 11:28:13 +0000";
};
width = 746;
}
);
unicode = 277D;
},
{
glyphname = nine.blackCircled;
lastChange = "2021-01-03 21:52:44 +0000";
layers = (
{
layerId = "74E8EC48-609C-4650-B918-3C45F21958A5";
paths = (
{
closed = 1;
nodes = (
"42 857 LINE",
"68 620 LINE",
"68 237 LINE",
"42 0 LINE",
"704 0 LINE",
"678 237 LINE",
"678 620 LINE",
"704 857 LINE"
);
},
{
closed = 1;
nodes = (
"263 276 LINE",
"389 276 LINE",
"389 381 LINE",
"261 380 LINE",
"261 664 LINE",
"486 664 LINE",
"473 546 LINE",
"473 318 LINE",
"486 200 LINE",
"263 200 LINE"
);
},
{
closed = 1;
nodes = (
"345 596 LINE",
"339 553 LINE",
"339 456 LINE",
"389 456 LINE",
"389 596 LINE"
);
}
);
userData = {
com.schriftgestaltung.Glyphs.lastChange = "2019-07-05 11:28:22 +0000";
};
width = 746;
}
);
unicode = 277E;
},
{
glyphname = six.ss01;
lastChange = "2021-01-03 21:52:44 +0000";
layers = (
{
layerId = "74E8EC48-609C-4650-B918-3C45F21958A5";
paths = (
{
closed = 1;
nodes = (
"387 864 LINE",
"42 864 LINE",
"65 660 LINE",
"65 0 LINE",
"389 0 LINE",
"389 335 LINE",
"414 538 LINE",
"159 538 LINE",
"159 777 LINE",
"293 777 LINE",
"293 578 LINE",
"412 578 LINE",
"387 781 LINE"
);
},
{
closed = 1;
nodes = (
"295 451 LINE",
"295 87 LINE",
"159 87 LINE",
"159 451 LINE"
);
}
);
userData = {
com.schriftgestaltung.Glyphs.lastChange = "2019-07-04 11:53:15 +0000";
};
width = 456;
}
);
},
{
glyphname = nine.ss01;
lastChange = "2021-01-03 21:52:44 +0000";
layers = (
{
layerId = "74E8EC48-609C-4650-B918-3C45F21958A5";
paths = (
{
closed = 1;
nodes = (
"69 -1 LINE",
"414 -1 LINE",
"391 203 LINE",
"391 863 LINE",
"67 863 LINE",
"67 528 LINE",
"42 325 LINE",
"297 325 LINE",
"297 86 LINE",
"163 86 LINE",
"163 285 LINE",
"44 285 LINE",
"69 82 LINE"
);
},
{
closed = 1;
nodes = (
"161 412 LINE",
"161 776 LINE",
"297 776 LINE",
"297 412 LINE"
);
}
);
userData = {
com.schriftgestaltung.Glyphs.lastChange = "2019-07-04 11:53:58 +0000";
};
width = 456;
}
);
},
{
glyphname = .notdef;
lastChange = "2021-01-03 22:17:01 +0000";
layers = (
{
hints = (
{
horizontal = 1;
origin = "{0, 0}";
target = "{0, 1}";
type = Stem;
},
{
horizontal = 1;
origin = "{0, 2}";
target = "{0, 3}";
type = Stem;
},
{
horizontal = 1;
origin = "{45, 0}";
target = "{45, 1}";
type = Stem;
},
{
horizontal = 1;
origin = "{45, 2}";
target = "{45, 3}";
type = Stem;
}
);
layerId = "74E8EC48-609C-4650-B918-3C45F21958A5";
paths = (
{
closed = 1;
nodes = (
"505 600 LINE",
"950 600 LINE",
"950 700 LINE",
"505 700 LINE"
);
},
{
closed = 1;
nodes = (
"395 600 LINE",
"475 600 LINE",
"475 700 LINE",
"465 700 LINE",
"465 610 LINE",
"405 610 LINE",
"405 700 LINE",
"395 700 LINE"
);
},
{
closed = 1;
nodes = (
"290 600 LINE",
"365 600 LINE",
"365 700 LINE",
"290 700 LINE"
);
},
{
closed = 1;
nodes = (
"40 600 LINE",
"50 600 LINE",
"50 700 LINE",
"40 700 LINE"
);
},
{
closed = 1;
nodes = (
"355 690 LINE",
"355 610 LINE",
"300 610 LINE",
"300 690 LINE"
);
},
{
closed = 1;
nodes = (
"260 645 LINE",
"260 700 LINE",
"250 700 LINE",
"250 655 LINE",
"190 655 LINE",
"190 700 LINE",
"180 700 LINE",
"180 645 LINE",
"215 645 LINE",
"215 600 LINE",
"225 600 LINE",
"225 645 LINE"
);
},
{
closed = 1;
nodes = (
"130 645 LINE",
"130 655 LINE",
"90 655 LINE",
"90 690 LINE",
"150 690 LINE",
"150 700 LINE",
"80 700 LINE",
"80 600 LINE",
"90 600 LINE",
"90 645 LINE"
);
},
{
closed = 1;
nodes = (
"735 550 LINE",
"735 450 LINE",
"745 450 LINE",
"745 490 LINE",
"810 490 LINE",
"810 450 LINE",
"820 450 LINE",
"820 500 LINE",
"790 500 LINE",
"790 550 LINE"
);
},
{
closed = 1;
nodes = (
"700 460 LINE",
"645 460 LINE",
"645 540 LINE",
"700 540 LINE"
);
},
{
closed = 1;
nodes = (
"515 510 LINE",
"530 510 LINE",
"530 480 LINE",
"545 480 LINE",
"545 450 LINE",
"555 450 LINE",
"555 480 LINE",
"570 480 LINE",
"570 510 LINE",
"585 510 LINE",
"585 540 LINE",
"595 540 LINE",
"595 450 LINE",
"605 450 LINE",
"605 550 LINE",
"575 550 LINE",
"575 520 LINE",
"560 520 LINE",
"560 490 LINE",
"540 490 LINE",
"540 520 LINE",
"525 520 LINE",
"525 550 LINE",
"495 550 LINE",
"495 450 LINE",
"505 450 LINE",
"505 540 LINE",
"515 540 LINE"
);
},
{
closed = 1;
nodes = (
"455 540 LINE",
"455 550 LINE",
"375 550 LINE",
"375 540 LINE",
"410 540 LINE",
"410 450 LINE",
"420 450 LINE",
"420 540 LINE"
);
},
{
closed = 1;
nodes = (
"295 510 LINE",
"310 510 LINE",
"310 480 LINE",
"325 480 LINE",
"325 450 LINE",
"355 450 LINE",
"355 550 LINE",
"345 550 LINE",
"345 460 LINE",
"335 460 LINE",
"335 490 LINE",
"320 490 LINE",
"320 520 LINE",
"305 520 LINE",
"305 550 LINE",
"275 550 LINE",
"275 450 LINE",
"285 450 LINE",
"285 540 LINE",
"295 540 LINE"
);
},
{
closed = 1;
nodes = (
"220 550 LINE",
"185 550 LINE",
"185 520 LINE",
"170 520 LINE",
"170 490 LINE",
"155 490 LINE",
"155 450 LINE",
"165 450 LINE",
"165 480 LINE",
"240 480 LINE",
"240 450 LINE",
"250 450 LINE",
"250 490 LINE",
"235 490 LINE",
"235 520 LINE",
"220 520 LINE"
);
},
{
closed = 1;
nodes = (
"945 435 LINE",
"945 465 LINE",
"930 465 LINE",
"930 450 LINE",
"935 450 LINE",
"935 435 LINE"
);
},
{
closed = 1;
nodes = (
"840 450 LINE",
"910 450 LINE",
"910 460 LINE",
"850 460 LINE",
"850 495 LINE",
"890 495 LINE",
"890 505 LINE",
"850 505 LINE",
"850 540 LINE",
"910 540 LINE",
"910 550 LINE",
"840 550 LINE"
);
},
{
closed = 1;
nodes = (
"635 450 LINE",
"710 450 LINE",
"710 550 LINE",
"635 550 LINE"
);
},
{
closed = 1;
nodes = (
"40 450 LINE",
"130 450 LINE",
"130 550 LINE",
"120 550 LINE",
"120 460 LINE",
"90 460 LINE",
"90 515 LINE",
"80 515 LINE",
"80 460 LINE",
"50 460 LINE",
"50 550 LINE",
"40 550 LINE"
);
},
{
closed = 1;
nodes = (
"865 400 LINE",
"865 300 LINE",
"875 300 LINE",
"875 340 LINE",
"940 340 LINE",
"940 300 LINE",
"950 300 LINE",
"950 350 LINE",
"920 350 LINE",
"920 400 LINE"
);
},
{
closed = 1;
nodes = (
"825 310 LINE",
"770 310 LINE",
"770 390 LINE",
"825 390 LINE"
);
},
{
closed = 1;
nodes = (
"505 360 LINE",
"520 360 LINE",
"520 330 LINE",
"535 330 LINE",
"535 300 LINE",
"545 300 LINE",
"545 330 LINE",
"560 330 LINE",
"560 360 LINE",
"575 360 LINE",
"575 390 LINE",
"585 390 LINE",
"585 300 LINE",
"595 300 LINE",
"595 400 LINE",
"565 400 LINE",
"565 370 LINE",
"550 370 LINE",
"550 340 LINE",
"530 340 LINE",
"530 370 LINE",
"515 370 LINE",
"515 400 LINE",
"485 400 LINE",
"485 300 LINE",
"495 300 LINE",
"495 390 LINE",
"505 390 LINE"
);
},
{
closed = 1;
nodes = (
"235 400 LINE",
"235 300 LINE",
"245 300 LINE",
"245 340 LINE",
"310 340 LINE",
"310 300 LINE",
"320 300 LINE",
"320 350 LINE",
"290 350 LINE",
"290 400 LINE"
);
},
{
closed = 1;
nodes = (
"195 310 LINE",
"140 310 LINE",
"140 390 LINE",
"195 390 LINE"
);
},
{
closed = 1;
nodes = (
"370 330 LINE",
"395 330 LINE",
"395 300 LINE",
"420 300 LINE",
"420 310 LINE",
"405 310 LINE",
"405 340 LINE",
"380 340 LINE",
"380 360 LINE",
"405 360 LINE",
"405 390 LINE",
"420 390 LINE",
"420 400 LINE",
"395 400 LINE",
"395 370 LINE",
"370 370 LINE",
"370 355 LINE",
"355 355 LINE",
"355 400 LINE",
"345 400 LINE",
"345 300 LINE",
"355 300 LINE",
"355 345 LINE",
"370 345 LINE"
);
},
{
closed = 1;
nodes = (
"90 345 LINE",
"90 355 LINE",
"50 355 LINE",
"50 390 LINE",
"110 390 LINE",
"110 400 LINE",
"40 400 LINE",
"40 300 LINE",
"50 300 LINE",
"50 345 LINE"
);
},
{
closed = 1;
nodes = (
"760 300 LINE",
"835 300 LINE",
"835 400 LINE",
"760 400 LINE"
);
},
{
closed = 1;
nodes = (
"630 300 LINE",
"700 300 LINE",
"700 310 LINE",
"640 310 LINE",
"640 345 LINE",
"680 345 LINE",
"680 355 LINE",
"640 355 LINE",
"640 390 LINE",
"700 390 LINE",
"700 400 LINE",
"630 400 LINE"
);
},
{
closed = 1;
nodes = (
"130 300 LINE",
"205 300 LINE",
"205 400 LINE",
"130 400 LINE"
);
},
{
closed = 1;
nodes = (
"710 150 LINE",
"950 150 LINE",
"950 250 LINE",
"710 250 LINE"
);
},
{
closed = 1;
nodes = (
"690 240 LINE",
"690 250 LINE",
"610 250 LINE",
"610 240 LINE",
"645 240 LINE",
"645 150 LINE",
"655 150 LINE",
"655 240 LINE"
);
},
{
closed = 1;
nodes = (
"410 240 LINE",
"410 250 LINE",
"330 250 LINE",
"330 240 LINE",
"365 240 LINE",
"365 150 LINE",
"375 150 LINE",
"375 240 LINE"
);
},
{
closed = 1;
nodes = (
"255 210 LINE",
"270 210 LINE",
"270 180 LINE",
"285 180 LINE",
"285 150 LINE",
"315 150 LINE",
"315 250 LINE",
"305 250 LINE",
"305 160 LINE",
"295 160 LINE",
"295 190 LINE",
"280 190 LINE",
"280 220 LINE",
"265 220 LINE",
"265 250 LINE",
"235 250 LINE",
"235 150 LINE",
"245 150 LINE",
"245 240 LINE",
"255 240 LINE"
);
},
{
closed = 1;
nodes = (
"195 160 LINE",
"140 160 LINE",
"140 240 LINE",
"195 240 LINE"
);
},
{
closed = 1;
nodes = (
"475 250 LINE",
"440 250 LINE",
"440 220 LINE",
"425 220 LINE",
"425 190 LINE",
"410 190 LINE",
"410 150 LINE",
"420 150 LINE",
"420 180 LINE",
"495 180 LINE",
"495 150 LINE",
"505 150 LINE",
"505 190 LINE",
"490 190 LINE",
"490 220 LINE",
"475 220 LINE"
);
},
{
closed = 1;
nodes = (
"525 150 LINE",
"590 150 LINE",
"590 160 LINE",
"535 160 LINE",
"535 240 LINE",
"590 240 LINE",
"590 250 LINE",
"525 250 LINE"
);
},
{
closed = 1;
nodes = (
"130 150 LINE",
"205 150 LINE",
"205 250 LINE",
"130 250 LINE"
);
},
{
closed = 1;
nodes = (
"40 150 LINE",
"105 150 LINE",
"105 160 LINE",
"50 160 LINE",
"50 240 LINE",
"105 240 LINE",
"105 250 LINE",
"40 250 LINE"
);
},
{
closed = 1;
nodes = (
"740 60 LINE",
"755 60 LINE",
"755 30 LINE",
"770 30 LINE",
"770 0 LINE",
"800 0 LINE",
"800 100 LINE",
"790 100 LINE",
"790 10 LINE",
"780 10 LINE",
"780 40 LINE",
"765 40 LINE",
"765 70 LINE",
"750 70 LINE",
"750 100 LINE",
"720 100 LINE",
"720 0 LINE",
"730 0 LINE",
"730 90 LINE",
"740 90 LINE"
);
},
{
closed = 1;
nodes = (
"600 90 LINE",
"600 100 LINE",
"520 100 LINE",
"520 90 LINE",
"555 90 LINE",
"555 0 LINE",
"565 0 LINE",
"565 90 LINE"
);
},
{
closed = 1;
nodes = (
"700 45 LINE",
"700 100 LINE",
"690 100 LINE",
"690 55 LINE",
"630 55 LINE",
"630 100 LINE",
"620 100 LINE",
"620 45 LINE",
"655 45 LINE",
"655 0 LINE",
"665 0 LINE",
"665 45 LINE"
);
},
{
closed = 1;
nodes = (
"380 30 LINE",
"380 60 LINE",
"395 60 LINE",
"395 90 LINE",
"410 90 LINE",
"410 100 LINE",
"385 100 LINE",
"385 70 LINE",
"370 70 LINE",
"370 40 LINE",
"350 40 LINE",
"350 70 LINE",
"335 70 LINE",
"335 100 LINE",
"310 100 LINE",
"310 90 LINE",
"325 90 LINE",
"325 60 LINE",
"340 60 LINE",
"340 30 LINE",
"355 30 LINE",
"355 0 LINE",
"365 0 LINE",
"365 30 LINE"
);
},
{
closed = 1;
nodes = (
"105 30 LINE",
"105 60 LINE",
"120 60 LINE",
"120 90 LINE",
"135 90 LINE",
"135 100 LINE",
"110 100 LINE",
"110 70 LINE",
"95 70 LINE",
"95 40 LINE",
"75 40 LINE",
"75 70 LINE",
"60 70 LINE",
"60 100 LINE",
"35 100 LINE",
"35 90 LINE",
"50 90 LINE",
"50 60 LINE",
"65 60 LINE",
"65 30 LINE",
"80 30 LINE",
"80 0 LINE",
"90 0 LINE",
"90 30 LINE"
);
},
{
closed = 1;
nodes = (
"825 0 LINE",
"895 0 LINE",
"895 10 LINE",
"835 10 LINE",
"835 45 LINE",
"875 45 LINE",
"875 55 LINE",
"835 55 LINE",
"835 90 LINE",
"895 90 LINE",
"895 100 LINE",
"825 100 LINE"
);
},
{
closed = 1;
nodes = (
"430 0 LINE",
"500 0 LINE",
"500 10 LINE",
"440 10 LINE",
"440 45 LINE",
"480 45 LINE",
"480 55 LINE",
"440 55 LINE",
"440 90 LINE",
"500 90 LINE",
"500 100 LINE",
"430 100 LINE"
);
},
{
closed = 1;
nodes = (
"255 0 LINE",
"325 0 LINE",
"325 10 LINE",
"265 10 LINE",
"265 100 LINE",
"255 100 LINE"
);
},
{
closed = 1;
nodes = (
"155 0 LINE",
"225 0 LINE",
"225 10 LINE",
"165 10 LINE",
"165 45 LINE",
"205 45 LINE",
"205 55 LINE",
"165 55 LINE",
"165 90 LINE",
"225 90 LINE",
"225 100 LINE",
"155 100 LINE"
);
},
{
closed = 1;
nodes = (
"285 -150 LINE",
"950 -150 LINE",
"950 -50 LINE",
"285 -50 LINE"
);
},
{
closed = 1;
nodes = (
"165 -50 LINE",
"165 -150 LINE",
"175 -150 LINE",
"175 -110 LINE",
"240 -110 LINE",
"240 -150 LINE",
"250 -150 LINE",
"250 -100 LINE",
"220 -100 LINE",
"220 -50 LINE"
);
},
{
closed = 1;
nodes = (
"120 -105 LINE",
"120 -95 LINE",
"80 -95 LINE",
"80 -60 LINE",
"140 -60 LINE",
"140 -50 LINE",
"70 -50 LINE",
"70 -150 LINE",
"80 -150 LINE",
"80 -105 LINE"
);
},
{
closed = 1;
nodes = (
"30 -150 LINE",
"45 -150 LINE",
"45 -135 LINE",
"30 -135 LINE"
);
},
{
closed = 1;
nodes = (
"195 540 LINE",
"210 540 LINE",
"210 510 LINE",
"225 510 LINE",
"225 490 LINE",
"180 490 LINE",
"180 510 LINE",
"195 510 LINE"
);
},
{
closed = 1;
nodes = (
"745 500 LINE",
"745 540 LINE",
"780 540 LINE",
"780 500 LINE"
);
},
{
closed = 1;
nodes = (
"875 350 LINE",
"875 390 LINE",
"910 390 LINE",
"910 350 LINE"
);
},
{
closed = 1;
nodes = (
"245 350 LINE",
"245 390 LINE",
"280 390 LINE",
"280 350 LINE"
);
},
{
closed = 1;
nodes = (
"450 240 LINE",
"465 240 LINE",
"465 210 LINE",
"480 210 LINE",
"480 190 LINE",
"435 190 LINE",
"435 210 LINE",
"450 210 LINE"
);
},
{
closed = 1;
nodes = (
"175 -100 LINE",
"175 -60 LINE",
"210 -60 LINE",
"210 -100 LINE"
);
}
);
userData = {
com.schriftgestaltung.Glyphs.lastChange = "2019-07-04 11:24:51 +0000";
};
width = 980;
}
);
note = "\012    .notdef\012  ";
},
{
glyphname = period;
lastChange = "2022-10-04 15:20:04 +0000";
layers = (
{
layerId = "74E8EC48-609C-4650-B918-3C45F21958A5";
paths = (
{
closed = 1;
nodes = (
"152 0 LINE",
"152 203 LINE",
"68 203 LINE",
"42 0 LINE"
);
}
);
userData = {
com.schriftgestaltung.Glyphs.lastChange = "2019-07-04 08:39:14 +0000";
};
width = 194;
}
);
leftKerningGroup = point;
note = "\012    period\012  ";
rightKerningGroup = point;
unicode = 002E;
},
{
glyphname = comma;
lastChange = "2022-10-04 15:19:52 +0000";
layers = (
{
layerId = "74E8EC48-609C-4650-B918-3C45F21958A5";
paths = (
{
closed = 1;
nodes = (
"106 110 LINE",
"61 0 LINE",
"-42 -145 LINE",
"98 -145 LINE",
"204 109 LINE"
);
}
);
userData = {
com.schriftgestaltung.Glyphs.lastChange = "2019-07-07 06:44:43 +0000";
};
width = 246;
}
);
leftKerningGroup = comma;
note = "\012    comma\012  ";
rightKerningGroup = point;
unicode = 002C;
},
{
glyphname = colon;
lastChange = "2021-01-03 21:52:44 +0000";
layers = (
{
layerId = "74E8EC48-609C-4650-B918-3C45F21958A5";
paths = (
{
closed = 1;
nodes = (
"42 483 LINE",
"42 280 LINE",
"126 280 LINE",
"152 483 LINE"
);
},
{
closed = 1;
nodes = (
"152 0 LINE",
"152 203 LINE",
"68 203 LINE",
"42 0 LINE"
);
}
);
userData = {
com.schriftgestaltung.Glyphs.lastChange = "2019-07-03 19:56:19 +0000";
};
width = 194;
}
);
note = "\012    colon\012  ";
unicode = 003A;
},
{
glyphname = semicolon;
lastChange = "2021-01-03 21:52:44 +0000";
layers = (
{
layerId = "74E8EC48-609C-4650-B918-3C45F21958A5";
paths = (
{
closed = 1;
nodes = (
"243 405 LINE",
"134 405 LINE",
"159 201 LINE",
"243 201 LINE"
);
},
{
closed = 1;
nodes = (
"150 110 LINE",
"105 0 LINE",
"-42 -254 LINE",
"99 -254 LINE",
"250 109 LINE"
);
}
);
userData = {
com.schriftgestaltung.Glyphs.lastChange = "2019-07-03 20:14:43 +0000";
};
width = 292;
}
);
leftKerningGroup = comma;
note = "\012    semicolon\012  ";
unicode = 003B;
},
{
glyphname = ellipsis;
lastChange = "2022-10-04 14:58:53 +0000";
layers = (
{
layerId = "74E8EC48-609C-4650-B918-3C45F21958A5";
paths = (
{
closed = 1;
nodes = (
"152 0 LINE",
"152 203 LINE",
"68 203 LINE",
"42 0 LINE"
);
},
{
closed = 1;
nodes = (
"152 0 LINE",
"152 203 LINE",
"68 203 LINE",
"42 0 LINE"
);
},
{
closed = 1;
nodes = (
"152 0 LINE",
"152 203 LINE",
"68 203 LINE",
"42 0 LINE"
);
},
{
closed = 1;
nodes = (
"342 0 LINE",
"342 203 LINE",
"258 203 LINE",
"232 0 LINE"
);
},
{
closed = 1;
nodes = (
"342 0 LINE",
"342 203 LINE",
"258 203 LINE",
"232 0 LINE"
);
},
{
closed = 1;
nodes = (
"342 0 LINE",
"342 203 LINE",
"258 203 LINE",
"232 0 LINE"
);
},
{
closed = 1;
nodes = (
"532 0 LINE",
"532 203 LINE",
"448 203 LINE",
"422 0 LINE"
);
},
{
closed = 1;
nodes = (
"532 0 LINE",
"532 203 LINE",
"448 203 LINE",
"422 0 LINE"
);
},
{
closed = 1;
nodes = (
"532 0 LINE",
"532 203 LINE",
"448 203 LINE",
"422 0 LINE"
);
}
);
userData = {
com.schriftgestaltung.Glyphs.lastChange = "2019-07-04 12:42:11 +0000";
};
width = 574;
}
);
leftKerningGroup = point;
rightKerningGroup = point;
unicode = 2026;
},
{
glyphname = exclam;
lastChange = "2021-01-03 21:52:44 +0000";
layers = (
{
layerId = "74E8EC48-609C-4650-B918-3C45F21958A5";
paths = (
{
closed = 1;
nodes = (
"159 0 LINE",
"159 203 LINE",
"68 203 LINE",
"42 0 LINE"
);
},
{
closed = 1;
nodes = (
"159 892 LINE",
"42 892 LINE",
"65 689 LINE",
"65 269 LINE",
"159 269 LINE"
);
}
);
userData = {
com.schriftgestaltung.Glyphs.lastChange = "2019-07-04 21:10:58 +0000";
};
width = 201;
}
);
note = "\012    exclam\012  ";
unicode = 0021;
},
{
glyphname = exclamdown;
lastChange = "2021-01-03 21:52:44 +0000";
layers = (
{
layerId = "74E8EC48-609C-4650-B918-3C45F21958A5";
paths = (
{
closed = 1;
nodes = (
"42 862 LINE",
"42 659 LINE",
"133 659 LINE",
"159 862 LINE"
);
},
{
closed = 1;
nodes = (
"42 -31 LINE",
"159 -31 LINE",
"136 172 LINE",
"136 592 LINE",
"42 592 LINE"
);
}
);
userData = {
com.schriftgestaltung.Glyphs.lastChange = "2019-07-04 21:11:05 +0000";
};
width = 201;
}
);
unicode = 00A1;
},
{
glyphname = question;
lastChange = "2021-01-03 21:52:44 +0000";
layers = (
{
layerId = "74E8EC48-609C-4650-B918-3C45F21958A5";
paths = (
{
closed = 1;
nodes = (
"151 0 LINE",
"151 203 LINE",
"67 203 LINE",
"42 0 LINE"
);
},
{
closed = 1;
nodes = (
"42 863 LINE",
"42 703 LINE",
"136 703 LINE",
"136 776 LINE",
"295 776 LINE",
"295 599 LINE",
"65 600 LINE",
"65 472 LINE",
"42 269 LINE",
"159 269 LINE",
"159 512 LINE",
"414 512 LINE",
"389 715 LINE",
"389 863 LINE"
);
}
);
userData = {
com.schriftgestaltung.Glyphs.lastChange = "2019-07-03 20:33:00 +0000";
};
width = 456;
}
);
note = "\012    question\012  ";
unicode = 003F;
},
{
glyphname = questiondown;
lastChange = "2021-01-03 21:52:44 +0000";
layers = (
{
layerId = "74E8EC48-609C-4650-B918-3C45F21958A5";
paths = (
{
closed = 1;
nodes = (
"389 660 LINE",
"305 660 LINE",
"305 863 LINE",
"414 863 LINE"
);
},
{
closed = 1;
nodes = (
"67 148 LINE",
"42 351 LINE",
"297 351 LINE",
"297 594 LINE",
"414 594 LINE",
"391 391 LINE",
"391 263 LINE",
"161 264 LINE",
"161 87 LINE",
"320 87 LINE",
"320 160 LINE",
"414 160 LINE",
"414 0 LINE",
"67 0 LINE"
);
}
);
userData = {
com.schriftgestaltung.Glyphs.lastChange = "2019-07-03 20:32:45 +0000";
};
width = 456;
}
);
note = "\012    questiondown\012  ";
unicode = 00BF;
},
{
glyphname = periodcentered;
lastChange = "2021-01-03 21:52:44 +0000";
layers = (
{
layerId = "74E8EC48-609C-4650-B918-3C45F21958A5";
paths = (
{
closed = 1;
nodes = (
"152 254 LINE",
"152 458 LINE",
"68 458 LINE",
"42 254 LINE"
);
}
);
userData = {
com.schriftgestaltung.Glyphs.lastChange = "2019-07-03 19:58:39 +0000";
};
width = 194;
}
);
note = "\012    periodcentered\012  ";
unicode = 00B7;
},
{
glyphname = bullet;
lastChange = "2021-01-03 21:52:44 +0000";
layers = (
{
layerId = "74E8EC48-609C-4650-B918-3C45F21958A5";
paths = (
{
closed = 1;
nodes = (
"42 210 OFFCURVE",
"111 144 OFFCURVE",
"208 145 CURVE SMOOTH",
"306 146 OFFCURVE",
"375 210 OFFCURVE",
"375 312 CURVE SMOOTH",
"375 419 OFFCURVE",
"301 491 OFFCURVE",
"208 491 CURVE SMOOTH",
"116 491 OFFCURVE",
"42 419 OFFCURVE",
"42 312 CURVE SMOOTH"
);
}
);
userData = {
com.schriftgestaltung.Glyphs.lastChange = "2019-07-05 20:59:10 +0000";
};
width = 417;
}
);
unicode = 2022;
},
{
glyphname = asterisk;
lastChange = "2022-10-04 15:23:54 +0000";
layers = (
{
layerId = "74E8EC48-609C-4650-B918-3C45F21958A5";
paths = (
{
closed = 1;
nodes = (
"111 862 LINE",
"197 710 LINE",
"216 670 LINE",
"162 670 LINE",
"42 678 LINE",
"42 577 LINE",
"160 590 LINE",
"216 590 LINE",
"197 545 LINE",
"111 396 LINE",
"220 396 LINE",
"273 526 LINE",
"326 396 LINE",
"435 396 LINE",
"349 545 LINE",
"330 590 LINE",
"386 590 LINE",
"504 577 LINE",
"504 678 LINE",
"384 670 LINE",
"330 670 LINE",
"349 710 LINE",
"435 862 LINE",
"326 862 LINE",
"273 729 LINE",
"220 862 LINE"
);
}
);
userData = {
com.schriftgestaltung.Glyphs.lastChange = "2019-07-03 08:42:00 +0000";
};
width = 546;
}
);
note = "\012    asterisk\012  ";
unicode = 002A;
},
{
glyphname = numbersign;
lastChange = "2021-01-03 21:52:44 +0000";
layers = (
{
layerId = "74E8EC48-609C-4650-B918-3C45F21958A5";
paths = (
{
closed = 1;
nodes = (
"716 310 LINE",
"512 288 LINE",
"256 288 LINE",
"52 310 LINE",
"52 178 LINE",
"256 201 LINE",
"512 201 LINE",
"716 178 LINE"
);
},
{
closed = 1;
nodes = (
"716 510 LINE",
"512 488 LINE",
"256 488 LINE",
"52 510 LINE",
"52 378 LINE",
"256 401 LINE",
"512 401 LINE",
"716 378 LINE"
);
},
{
closed = 1;
nodes = (
"425 670 LINE",
"447 466 LINE",
"447 204 LINE",
"425 0 LINE",
"557 0 LINE",
"534 204 LINE",
"534 466 LINE",
"557 670 LINE"
);
},
{
closed = 1;
nodes = (
"225 670 LINE",
"247 466 LINE",
"247 204 LINE",
"225 0 LINE",
"357 0 LINE",
"334 204 LINE",
"334 466 LINE",
"357 670 LINE"
);
}
);
userData = {
com.schriftgestaltung.Glyphs.lastChange = "2019-07-04 09:27:16 +0000";
};
width = 768;
}
);
note = "\012    numbersign\012  ";
unicode = 0023;
},
{
glyphname = hyphen;
lastChange = "2022-10-04 15:22:10 +0000";
layers = (
{
layerId = "74E8EC48-609C-4650-B918-3C45F21958A5";
paths = (
{
closed = 1;
nodes = (
"448 418 LINE",
"245 393 LINE",
"42 393 LINE",
"42 284 LINE",
"245 309 LINE",
"448 309 LINE"
);
}
);
userData = {
com.schriftgestaltung.Glyphs.lastChange = "2019-07-04 09:08:26 +0000";
};
width = 490;
}
);
leftKerningGroup = tiret;
note = "\012    hyphen\012  ";
rightKerningGroup = tiret;
unicode = 002D;
},
{
glyphname = endash;
lastChange = "2022-10-04 15:22:34 +0000";
layers = (
{
layerId = "74E8EC48-609C-4650-B918-3C45F21958A5";
paths = (
{
closed = 1;
nodes = (
"716 399 LINE",
"512 377 LINE",
"256 377 LINE",
"52 399 LINE",
"52 267 LINE",
"256 290 LINE",
"512 290 LINE",
"716 267 LINE"
);
}
);
userData = {
com.schriftgestaltung.Glyphs.lastChange = "2019-07-04 11:24:49 +0000";
};
width = 768;
}
);
leftKerningGroup = tiret;
rightKerningGroup = tiret;
unicode = 2013;
},
{
glyphname = emdash;
lastChange = "2022-10-04 15:22:34 +0000";
layers = (
{
layerId = "74E8EC48-609C-4650-B918-3C45F21958A5";
paths = (
{
closed = 1;
nodes = (
"916 399 LINE",
"712 377 LINE",
"256 377 LINE",
"52 399 LINE",
"52 267 LINE",
"256 290 LINE",
"712 290 LINE",
"916 267 LINE"
);
}
);
userData = {
com.schriftgestaltung.Glyphs.lastChange = "2019-07-04 11:24:49 +0000";
};
width = 968;
}
);
leftKerningGroup = tiret;
rightKerningGroup = tiret;
unicode = 2014;
},
{
glyphname = underscore;
lastChange = "2021-01-03 21:52:44 +0000";
layers = (
{
layerId = "74E8EC48-609C-4650-B918-3C45F21958A5";
paths = (
{
closed = 1;
nodes = (
"716 109 LINE",
"512 87 LINE",
"256 87 LINE",
"52 109 LINE",
"52 -23 LINE",
"256 0 LINE",
"512 0 LINE",
"716 -23 LINE"
);
}
);
userData = {
com.schriftgestaltung.Glyphs.lastChange = "2019-07-04 11:24:49 +0000";
};
width = 768;
}
);
note = "\012    underscore\012  ";
unicode = 005F;
},
{
glyphname = parenleft;
lastChange = "2022-10-04 09:23:20 +0000";
layers = (
{
layerId = "74E8EC48-609C-4650-B918-3C45F21958A5";
paths = (
{
closed = 1;
nodes = (
"310 862 LINE",
"154 862 OFFCURVE",
"42 635 OFFCURVE",
"42 416 CURVE SMOOTH",
"42 205 OFFCURVE",
"145 -1 OFFCURVE",
"315 -1 CURVE",
"304 86 LINE",
"286 86 LINE",
"202 165 OFFCURVE",
"157 291 OFFCURVE",
"157 432 CURVE SMOOTH",
"157 572 OFFCURVE",
"202 696 OFFCURVE",
"285 775 CURVE",
"304 775 LINE"
);
}
);
userData = {
com.schriftgestaltung.Glyphs.lastChange = "2019-07-03 17:41:02 +0000";
};
width = 357;
}
);
leftKerningGroup = O;
note = "\012    parenleft\012  ";
rightKerningGroup = O;
unicode = 0028;
},
{
glyphname = parenright;
lastChange = "2021-01-03 21:52:44 +0000";
layers = (
{
layerId = "74E8EC48-609C-4650-B918-3C45F21958A5";
paths = (
{
closed = 1;
nodes = (
"72 775 LINE",
"155 696 OFFCURVE",
"200 572 OFFCURVE",
"200 432 CURVE SMOOTH",
"200 291 OFFCURVE",
"155 165 OFFCURVE",
"71 86 CURVE",
"53 86 LINE",
"42 -1 LINE",
"212 -1 OFFCURVE",
"315 205 OFFCURVE",
"315 416 CURVE SMOOTH",
"315 635 OFFCURVE",
"203 862 OFFCURVE",
"47 862 CURVE",
"53 775 LINE"
);
}
);
userData = {
com.schriftgestaltung.Glyphs.lastChange = "2019-07-03 17:40:59 +0000";
};
width = 357;
}
);
note = "\012    parenright\012  ";
unicode = 0029;
},
{
glyphname = braceleft;
lastChange = "2021-01-03 21:52:44 +0000";
layers = (
{
layerId = "74E8EC48-609C-4650-B918-3C45F21958A5";
paths = (
{
closed = 1;
nodes = (
"42 863 LINE",
"65 660 LINE",
"65 203 LINE",
"42 0 LINE",
"272 0 LINE",
"272 87 LINE",
"159 87 LINE",
"159 776 LINE",
"272 776 LINE",
"272 863 LINE"
);
}
);
userData = {
com.schriftgestaltung.Glyphs.lastChange = "2019-07-02 21:15:33 +0000";
};
width = 314;
}
);
note = "\012    braceleft\012  ";
unicode = 007B;
},
{
glyphname = braceright;
lastChange = "2021-01-03 21:52:44 +0000";
layers = (
{
layerId = "74E8EC48-609C-4650-B918-3C45F21958A5";
paths = (
{
closed = 1;
nodes = (
"272 863 LINE",
"42 863 LINE",
"42 776 LINE",
"155 776 LINE",
"155 87 LINE",
"42 87 LINE",
"42 0 LINE",
"272 0 LINE",
"249 203 LINE",
"249 660 LINE"
);
}
);
userData = {
com.schriftgestaltung.Glyphs.lastChange = "2019-07-02 21:16:22 +0000";
};
width = 314;
}
);
note = "\012    braceright\012  ";
unicode = 007D;
},
{
glyphname = bracketleft;
lastChange = "2021-01-03 21:52:44 +0000";
layers = (
{
layerId = "74E8EC48-609C-4650-B918-3C45F21958A5";
paths = (
{
closed = 1;
nodes = (
"42 863 LINE",
"65 660 LINE",
"65 203 LINE",
"42 0 LINE",
"272 0 LINE",
"272 87 LINE",
"159 87 LINE",
"159 776 LINE",
"272 776 LINE",
"272 863 LINE"
);
}
);
userData = {
com.schriftgestaltung.Glyphs.lastChange = "2019-07-05 11:33:15 +0000";
};
width = 314;
}
);
note = "\012    bracketleft\012  ";
unicode = 005B;
},
{
glyphname = bracketright;
lastChange = "2021-01-03 21:52:44 +0000";
layers = (
{
layerId = "74E8EC48-609C-4650-B918-3C45F21958A5";
paths = (
{
closed = 1;
nodes = (
"272 863 LINE",
"42 863 LINE",
"42 776 LINE",
"155 776 LINE",
"155 87 LINE",
"42 87 LINE",
"42 0 LINE",
"272 0 LINE",
"249 203 LINE",
"249 660 LINE"
);
}
);
userData = {
com.schriftgestaltung.Glyphs.lastChange = "2019-07-03 16:08:25 +0000";
};
width = 314;
}
);
note = "\012    bracketright\012  ";
unicode = 005D;
},
{
glyphname = quotedblleft;
lastChange = "2022-10-04 07:03:10 +0000";
layers = (
{
layerId = "74E8EC48-609C-4650-B918-3C45F21958A5";
paths = (
{
closed = 1;
nodes = (
"112 862 LINE",
"22 645 LINE",
"122 644 LINE",
"167 754 LINE",
"229 862 LINE"
);
},
{
closed = 1;
nodes = (
"297 862 LINE",
"207 645 LINE",
"307 645 LINE",
"352 754 LINE",
"414 862 LINE"
);
}
);
userData = {
com.schriftgestaltung.Glyphs.lastChange = "2019-07-04 12:39:56 +0000";
};
width = 420;
}
);
leftKerningGroup = quote;
rightKerningGroup = quote;
unicode = 201C;
},
{
glyphname = quotedblright;
lastChange = "2022-10-04 07:03:51 +0000";
layers = (
{
layerId = "74E8EC48-609C-4650-B918-3C45F21958A5";
paths = (
{
closed = 1;
nodes = (
"324 647 LINE",
"414 864 LINE",
"314 865 LINE",
"269 755 LINE",
"207 647 LINE"
);
},
{
closed = 1;
nodes = (
"139 647 LINE",
"229 864 LINE",
"129 864 LINE",
"84 755 LINE",
"22 647 LINE"
);
}
);
userData = {
com.schriftgestaltung.Glyphs.lastChange = "2019-07-04 11:24:49 +0000";
};
width = 420;
}
);
leftKerningGroup = quote;
rightKerningGroup = quote;
unicode = 201D;
},
{
glyphname = quoteleft;
lastChange = "2022-10-04 07:03:17 +0000";
layers = (
{
layerId = "74E8EC48-609C-4650-B918-3C45F21958A5";
paths = (
{
closed = 1;
nodes = (
"112 863 LINE",
"22 646 LINE",
"122 645 LINE",
"167 755 LINE",
"230 863 LINE"
);
}
);
userData = {
com.schriftgestaltung.Glyphs.lastChange = "2019-07-04 12:40:50 +0000";
};
width = 236;
}
);
leftKerningGroup = quote;
rightKerningGroup = quote;
unicode = 2018;
},
{
glyphname = quoteright;
lastChange = "2022-10-04 07:04:11 +0000";
layers = (
{
layerId = "74E8EC48-609C-4650-B918-3C45F21958A5";
paths = (
{
closed = 1;
nodes = (
"140 646 LINE",
"230 863 LINE",
"130 864 LINE",
"85 754 LINE",
"22 646 LINE"
);
}
);
userData = {
com.schriftgestaltung.Glyphs.lastChange = "2019-07-07 07:23:37 +0000";
};
width = 236;
}
);
leftKerningGroup = quote;
note = "\012    quoteright\012  ";
rightKerningGroup = quote;
unicode = 2019;
},
{
glyphname = guillemetleft;
lastChange = "2021-01-03 21:52:44 +0000";
layers = (
{
layerId = "74E8EC48-609C-4650-B918-3C45F21958A5";
paths = (
{
closed = 1;
nodes = (
"300 255 LINE",
"398 255 LINE",
"326 431 LINE",
"398 608 LINE",
"300 608 LINE",
"228 431 LINE"
);
},
{
closed = 1;
nodes = (
"363 862 LINE",
"218 862 LINE",
"42 431 LINE",
"218 0 LINE",
"363 0 LINE",
"216 254 LINE",
"143 431 LINE",
"216 608 LINE"
);
}
);
userData = {
com.schriftgestaltung.Glyphs.lastChange = "2019-07-03 20:36:39 +0000";
};
width = 440;
}
);
unicode = 00AB;
},
{
glyphname = guillemetright;
lastChange = "2021-01-03 21:52:44 +0000";
layers = (
{
layerId = "74E8EC48-609C-4650-B918-3C45F21958A5";
paths = (
{
closed = 1;
nodes = (
"140 608 LINE",
"42 608 LINE",
"114 431 LINE",
"42 255 LINE",
"140 255 LINE",
"212 431 LINE"
);
},
{
closed = 1;
nodes = (
"297 431 LINE",
"224 254 LINE",
"77 0 LINE",
"222 0 LINE",
"398 431 LINE",
"222 862 LINE",
"77 862 LINE",
"224 608 LINE"
);
}
);
userData = {
com.schriftgestaltung.Glyphs.lastChange = "2019-07-03 20:36:42 +0000";
};
width = 440;
}
);
note = "\012    guillemotright\012  ";
unicode = 00BB;
},
{
glyphname = guilsinglleft;
lastChange = "2021-01-03 21:52:44 +0000";
layers = (
{
layerId = "74E8EC48-609C-4650-B918-3C45F21958A5";
paths = (
{
closed = 1;
nodes = (
"114 255 LINE",
"212 255 LINE",
"140 431 LINE",
"212 608 LINE",
"114 608 LINE",
"42 431 LINE"
);
}
);
userData = {
com.schriftgestaltung.Glyphs.lastChange = "2019-07-04 12:48:50 +0000";
};
width = 254;
}
);
unicode = 2039;
},
{
glyphname = guilsinglright;
lastChange = "2021-01-03 21:52:44 +0000";
layers = (
{
layerId = "74E8EC48-609C-4650-B918-3C45F21958A5";
paths = (
{
closed = 1;
nodes = (
"140 608 LINE",
"42 608 LINE",
"114 431 LINE",
"42 255 LINE",
"140 255 LINE",
"212 431 LINE"
);
}
);
userData = {
com.schriftgestaltung.Glyphs.lastChange = "2019-07-04 12:48:50 +0000";
};
width = 254;
}
);
unicode = 203A;
},
{
glyphname = quotedbl;
lastChange = "2022-10-04 07:03:22 +0000";
layers = (
{
layerId = "74E8EC48-609C-4650-B918-3C45F21958A5";
paths = (
{
closed = 1;
nodes = (
"324 647 LINE",
"414 864 LINE",
"314 865 LINE",
"269 755 LINE",
"207 647 LINE"
);
},
{
closed = 1;
nodes = (
"139 647 LINE",
"229 864 LINE",
"129 864 LINE",
"84 755 LINE",
"22 647 LINE"
);
}
);
userData = {
com.schriftgestaltung.Glyphs.lastChange = "2019-07-03 19:44:01 +0000";
};
width = 420;
}
);
leftKerningGroup = quote;
note = "\012    quotedbl\012  ";
rightKerningGroup = quote;
unicode = 0022;
},
{
glyphname = quotesingle;
lastChange = "2022-10-04 15:18:56 +0000";
layers = (
{
layerId = "74E8EC48-609C-4650-B918-3C45F21958A5";
paths = (
{
closed = 1;
nodes = (
"140 646 LINE",
"230 863 LINE",
"130 864 LINE",
"85 754 LINE",
"22 646 LINE"
);
}
);
userData = {
com.schriftgestaltung.Glyphs.lastChange = "2019-07-07 07:24:19 +0000";
};
width = 224;
}
);
leftKerningGroup = quote;
note = "\012    quotesingle\012  ";
rightKerningGroup = quote;
unicode = 0027;
},
{
glyphname = ccSquare;
lastChange = "2021-01-03 21:52:44 +0000";
layers = (
{
layerId = "74E8EC48-609C-4650-B918-3C45F21958A5";
paths = (
{
closed = 1;
nodes = (
"750 671 LINE SMOOTH",
"634 672 OFFCURVE",
"573 550 OFFCURVE",
"573 431 CURVE SMOOTH",
"573 317 OFFCURVE",
"629 200 OFFCURVE",
"750 204 CURVE SMOOTH",
"832 207 LINE",
"824 282 LINE",
"733 282 LINE",
"697 318 OFFCURVE",
"672 375 OFFCURVE",
"672 439 CURVE SMOOTH",
"672 503 OFFCURVE",
"696 559 OFFCURVE",
"732 595 CURVE",
"824 595 LINE",
"832 670 LINE"
);
},
{
closed = 1;
nodes = (
"478 671 LINE SMOOTH",
"362 672 OFFCURVE",
"301 550 OFFCURVE",
"301 431 CURVE SMOOTH",
"301 317 OFFCURVE",
"357 200 OFFCURVE",
"478 204 CURVE SMOOTH",
"560 207 LINE",
"552 282 LINE",
"461 282 LINE",
"425 318 OFFCURVE",
"400 375 OFFCURVE",
"400 439 CURVE SMOOTH",
"400 503 OFFCURVE",
"424 559 OFFCURVE",
"460 595 CURVE",
"552 595 LINE",
"560 670 LINE"
);
},
{
closed = 1;
nodes = (
"365 869 LINE SMOOTH",
"156 869 OFFCURVE",
"42 642 OFFCURVE",
"42 420 CURVE SMOOTH",
"42 209 OFFCURVE",
"145 0 OFFCURVE",
"365 0 CURVE SMOOTH",
"779 0 LINE SMOOTH",
"999 0 OFFCURVE",
"1102 209 OFFCURVE",
"1102 420 CURVE SMOOTH",
"1102 642 OFFCURVE",
"988 869 OFFCURVE",
"779 869 CURVE SMOOTH"
);
},
{
closed = 1;
nodes = (
"850 781 LINE",
"933 702 OFFCURVE",
"987 577 OFFCURVE",
"987 437 CURVE SMOOTH",
"987 296 OFFCURVE",
"933 170 OFFCURVE",
"849 91 CURVE",
"295 91 LINE",
"211 170 OFFCURVE",
"157 296 OFFCURVE",
"157 437 CURVE SMOOTH",
"157 577 OFFCURVE",
"211 702 OFFCURVE",
"294 781 CURVE"
);
}
);
userData = {
com.schriftgestaltung.Glyphs.lastChange = "2019-07-04 09:24:42 +0000";
};
width = 1144;
}
);
leftKerningGroup = O;
rightKerningGroup = O;
unicode = 33C4;
},
{
glyphname = at;
lastChange = "2021-01-03 21:52:44 +0000";
layers = (
{
layerId = "74E8EC48-609C-4650-B918-3C45F21958A5";
paths = (
{
closed = 1;
nodes = (
"730 218 LINE",
"985 218 LINE",
"960 424 LINE",
"960 1004 LINE",
"65 1006 LINE",
"65 16 LINE",
"42 -187 LINE",
"986 -187 LINE",
"986 -100 LINE",
"159 -100 LINE",
"159 919 LINE",
"866 917 LINE",
"866 305 LINE",
"730 305 LINE"
);
},
{
closed = 1;
nodes = (
"794 0 LINE",
"901 0 LINE",
"628 670 LINE",
"501 670 LINE",
"311 207 LINE",
"191 0 LINE",
"321 0 LINE",
"549 558 LINE",
"604 463 LINE"
);
},
{
closed = 1;
nodes = (
"707 305 LINE",
"407 305 LINE",
"370 218 LINE",
"745 218 LINE"
);
}
);
userData = {
com.schriftgestaltung.Glyphs.lastChange = "2019-07-04 14:34:30 +0000";
};
width = 1028;
}
);
note = "\012    uniE9B2\012  ";
unicode = 0040;
},
{
glyphname = ampersand;
lastChange = "2022-10-04 14:58:32 +0000";
layers = (
{
layerId = "74E8EC48-609C-4650-B918-3C45F21958A5";
paths = (
{
closed = 1;
nodes = (
"225 1069 LINE",
"225 957 LINE",
"428 982 LINE",
"449 982 LINE",
"449 88 LINE",
"159 88 LINE",
"159 360 LINE",
"351 360 LINE",
"351 862 LINE",
"42 862 LINE",
"65 658 LINE",
"65 204 LINE",
"42 0 LINE",
"546 0 LINE",
"547 862 LINE",
"562 982 LINE",
"783 982 LINE",
"783 1069 LINE"
);
},
{
closed = 1;
nodes = (
"159 775 LINE",
"242 775 LINE",
"257 659 LINE",
"257 447 LINE",
"159 447 LINE"
);
}
);
userData = {
com.schriftgestaltung.Glyphs.lastChange = "2019-07-03 17:12:42 +0000";
};
width = 799;
}
);
note = "\012    ampersand\012  ";
unicode = 0026;
},
{
glyphname = paragraph;
lastChange = "2021-01-03 21:52:44 +0000";
layers = (
{
layerId = "74E8EC48-609C-4650-B918-3C45F21958A5";
paths = (
{
closed = 1;
nodes = (
"487 861 LINE",
"393 861 LINE",
"393 0 LINE",
"510 0 LINE",
"487 203 LINE"
);
},
{
closed = 1;
nodes = (
"361 -2 LINE",
"338 201 LINE",
"338 861 LINE",
"67 861 LINE",
"67 517 LINE",
"42 314 LINE",
"244 314 LINE",
"244 -2 LINE"
);
}
);
userData = {
com.schriftgestaltung.Glyphs.lastChange = "2019-07-03 18:56:17 +0000";
};
width = 552;
}
);
note = "\012    paragraph\012  ";
unicode = 00B6;
},
{
glyphname = section;
lastChange = "2021-01-03 21:52:44 +0000";
layers = (
{
layerId = "74E8EC48-609C-4650-B918-3C45F21958A5";
paths = (
{
closed = 1;
nodes = (
"60 862 LINE",
"60 755 LINE",
"35 552 LINE",
"58 349 LINE",
"58 224 LINE",
"288 225 LINE",
"288 87 LINE",
"152 87 LINE",
"152 160 LINE",
"58 160 LINE",
"58 0 LINE",
"382 0 LINE",
"382 106 LINE",
"407 309 LINE",
"384 512 LINE",
"384 637 LINE",
"154 636 LINE",
"154 775 LINE",
"291 775 LINE",
"291 701 LINE",
"384 701 LINE",
"384 862 LINE"
);
},
{
closed = 1;
nodes = (
"290 549 LINE",
"290 312 LINE",
"152 312 LINE",
"152 549 LINE"
);
}
);
userData = {
com.schriftgestaltung.Glyphs.lastChange = "2019-07-04 09:37:45 +0000";
};
width = 442;
}
);
note = "\012    section\012  ";
unicode = 00A7;
},
{
glyphname = copyright;
lastChange = "2021-01-03 21:52:44 +0000";
layers = (
{
layerId = "74E8EC48-609C-4650-B918-3C45F21958A5";
paths = (
{
closed = 1;
nodes = (
"600 0 LINE",
"825 0 LINE",
"800 206 LINE",
"800 1006 LINE",
"65 1006 LINE",
"65 16 LINE",
"42 -187 LINE",
"826 -187 LINE",
"826 -100 LINE",
"159 -100 LINE",
"159 919 LINE",
"706 919 LINE",
"706 87 LINE",
"600 87 LINE"
);
},
{
closed = 1;
nodes = (
"550 862 LINE SMOOTH",
"344 862 OFFCURVE",
"232 635 OFFCURVE",
"232 416 CURVE SMOOTH",
"232 205 OFFCURVE",
"335 -4 OFFCURVE",
"555 -1 CURVE SMOOTH",
"624 0 LINE",
"614 86 LINE",
"476 86 LINE",
"392 165 OFFCURVE",
"337 291 OFFCURVE",
"337 432 CURVE SMOOTH",
"337 572 OFFCURVE",
"392 696 OFFCURVE",
"475 775 CURVE",
"614 775 LINE",
"624 862 LINE"
);
}
);
userData = {
com.schriftgestaltung.Glyphs.lastChange = "2019-07-04 13:39:12 +0000";
};
width = 868;
}
);
note = "\012    copyright\012  ";
unicode = 00A9;
},
{
glyphname = registered;
lastChange = "2021-01-03 21:52:44 +0000";
layers = (
{
layerId = "74E8EC48-609C-4650-B918-3C45F21958A5";
paths = (
{
closed = 1;
nodes = (
"45 1006 LINE",
"45 16 LINE",
"22 -187 LINE",
"856 -187 LINE",
"856 -100 LINE",
"139 -100 LINE",
"139 919 LINE",
"736 919 LINE",
"736 87 LINE",
"636 87 LINE",
"541 254 LINE",
"479 404 LINE",
"578 430 OFFCURVE",
"624 535 OFFCURVE",
"624 638 CURVE SMOOTH",
"624 752 OFFCURVE",
"567 864 OFFCURVE",
"447 864 CURVE SMOOTH",
"220 864 LINE",
"243 660 LINE",
"243 203 LINE",
"220 0 LINE",
"336 0 LINE",
"336 398 LINE",
"385 398 LINE",
"547 0 LINE",
"855 0 LINE",
"830 206 LINE",
"830 1006 LINE"
);
},
{
closed = 1;
nodes = (
"336 777 LINE",
"463 777 LINE",
"499 741 OFFCURVE",
"524 684 OFFCURVE",
"524 629 CURVE SMOOTH",
"524 577 OFFCURVE",
"500 521 OFFCURVE",
"464 485 CURVE",
"336 485 LINE"
);
}
);
userData = {
com.schriftgestaltung.Glyphs.lastChange = "2019-07-04 11:44:22 +0000";
};
width = 898;
}
);
note = "\012    registered\012  ";
unicode = 00AE;
},
{
glyphname = published;
lastChange = "2021-01-03 21:52:44 +0000";
layers = (
{
layerId = "74E8EC48-609C-4650-B918-3C45F21958A5";
paths = (
{
closed = 1;
nodes = (
"71 1006 LINE",
"71 206 LINE",
"46 0 LINE",
"389 0 LINE",
"389 388 LINE",
"488 388 LINE SMOOTH",
"604 388 OFFCURVE",
"676 509 OFFCURVE",
"676 627 CURVE SMOOTH",
"676 741 OFFCURVE",
"609 854 OFFCURVE",
"488 854 CURVE SMOOTH",
"272 854 LINE",
"295 651 LINE",
"295 203 LINE",
"282 87 LINE",
"165 87 LINE",
"165 919 LINE",
"729 919 LINE",
"729 -100 LINE",
"42 -100 LINE",
"42 -187 LINE",
"846 -187 LINE",
"823 17 LINE",
"823 1006 LINE"
);
},
{
closed = 1;
nodes = (
"389 767 LINE",
"516 767 LINE",
"552 731 OFFCURVE",
"576 684 OFFCURVE",
"576 620 CURVE SMOOTH",
"576 556 OFFCURVE",
"552 511 OFFCURVE",
"516 475 CURVE",
"389 475 LINE"
);
}
);
userData = {
com.schriftgestaltung.Glyphs.lastChange = "2019-07-04 11:44:22 +0000";
};
width = 888;
}
);
unicode = 2117;
},
{
glyphname = trademark;
lastChange = "2021-01-03 21:52:44 +0000";
layers = (
{
layerId = "74E8EC48-609C-4650-B918-3C45F21958A5";
paths = (
{
closed = 1;
nodes = (
"22 799 LINE",
"22 747 LINE",
"81 753 LINE",
"87 753 LINE",
"87 544 LINE",
"136 544 LINE",
"136 719 LINE",
"141 753 LINE",
"207 753 LINE",
"207 799 LINE"
);
},
{
closed = 1;
nodes = (
"230 800 LINE",
"237 740 LINE",
"237 604 LINE",
"230 544 LINE",
"284 544 LINE",
"284 733 LINE",
"345 580 LINE",
"378 580 LINE",
"442 733 LINE",
"442 544 LINE",
"496 544 LINE",
"490 604 LINE",
"490 739 LINE",
"496 800 LINE",
"422 800 LINE",
"422 798 LINE",
"363 658 LINE",
"304 798 LINE",
"304 800 LINE"
);
}
);
userData = {
com.schriftgestaltung.Glyphs.lastChange = "2019-07-04 12:23:19 +0000";
};
width = 518;
}
);
unicode = 2122;
},
{
glyphname = minute;
lastChange = "2021-01-03 21:52:44 +0000";
layers = (
{
layerId = "74E8EC48-609C-4650-B918-3C45F21958A5";
paths = (
{
closed = 1;
nodes = (
"140 646 LINE",
"230 863 LINE",
"130 864 LINE",
"85 754 LINE",
"22 646 LINE"
);
}
);
userData = {
com.schriftgestaltung.Glyphs.lastChange = "2019-07-03 19:43:42 +0000";
};
width = 166;
}
);
leftKerningGroup = quote;
note = "\012    minute\012  ";
rightKerningGroup = quote;
unicode = 2032;
},
{
glyphname = brokenbar;
lastChange = "2021-01-03 21:52:44 +0000";
layers = (
{
layerId = "74E8EC48-609C-4650-B918-3C45F21958A5";
paths = (
{
closed = 1;
nodes = (
"42 864 LINE",
"65 661 LINE",
"65 504 LINE",
"159 504 LINE",
"158 864 LINE"
);
},
{
closed = 1;
nodes = (
"65 360 LINE",
"65 0 LINE",
"182 0 LINE",
"159 203 LINE",
"159 360 LINE"
);
}
);
userData = {
com.schriftgestaltung.Glyphs.lastChange = "2019-07-03 08:54:36 +0000";
};
width = 224;
}
);
note = "\012    brokenbar\012  ";
unicode = 00A6;
},
{
glyphname = dagger;
lastChange = "2021-01-03 21:52:44 +0000";
layers = (
{
layerId = "74E8EC48-609C-4650-B918-3C45F21958A5";
paths = (
{
closed = 1;
nodes = (
"282 918 LINE",
"305 715 LINE",
"305 657 LINE",
"245 657 LINE",
"42 679 LINE",
"42 550 LINE",
"245 573 LINE",
"301 573 LINE",
"314 459 LINE",
"305 262 LINE",
"305 203 LINE",
"282 0 LINE",
"422 0 LINE",
"399 203 LINE",
"399 262 LINE",
"390 459 LINE",
"403 573 LINE",
"456 573 LINE",
"659 550 LINE",
"659 679 LINE",
"456 657 LINE",
"399 657 LINE",
"399 715 LINE",
"422 918 LINE"
);
}
);
userData = {
com.schriftgestaltung.Glyphs.lastChange = "2019-07-04 11:49:52 +0000";
};
width = 701;
}
);
unicode = 2020;
},
{
glyphname = daggerdbl;
lastChange = "2021-01-03 21:52:44 +0000";
layers = (
{
layerId = "74E8EC48-609C-4650-B918-3C45F21958A5";
paths = (
{
closed = 1;
nodes = (
"282 918 LINE",
"305 715 LINE",
"305 657 LINE",
"245 657 LINE",
"42 679 LINE",
"42 550 LINE",
"245 573 LINE",
"301 573 LINE",
"314 459 LINE",
"301 345 LINE",
"248 345 LINE",
"45 368 LINE",
"45 239 LINE",
"248 262 LINE",
"305 262 LINE",
"305 203 LINE",
"282 0 LINE",
"422 0 LINE",
"399 203 LINE",
"399 262 LINE",
"459 262 LINE",
"662 239 LINE",
"662 368 LINE",
"459 345 LINE",
"403 345 LINE",
"390 459 LINE",
"403 573 LINE",
"456 573 LINE",
"659 550 LINE",
"659 679 LINE",
"456 657 LINE",
"399 657 LINE",
"399 715 LINE",
"422 918 LINE"
);
}
);
userData = {
com.schriftgestaltung.Glyphs.lastChange = "2019-07-02 21:22:34 +0000";
};
width = 704;
}
);
unicode = 2021;
},
{
glyphname = bottomsquarebracket;
lastChange = "2021-01-03 21:52:44 +0000";
layers = (
{
layerId = "74E8EC48-609C-4650-B918-3C45F21958A5";
paths = (
{
closed = 1;
nodes = (
"853 204 LINE",
"852 862 LINE",
"482 863 LINE",
"507 659 LINE",
"507 315 LINE",
"704 315 LINE",
"704 561 LINE",
"759 561 LINE",
"759 87 LINE",
"161 87 LINE",
"161 561 LINE",
"216 561 LINE",
"216 315 LINE",
"413 315 LINE",
"413 659 LINE",
"438 863 LINE",
"68 862 LINE",
"67 204 LINE",
"42 0 LINE",
"878 0 LINE"
);
}
);
userData = {
com.schriftgestaltung.Glyphs.lastChange = "2019-07-04 13:00:02 +0000";
};
width = 920;
}
);
unicode = 23B5;
},
{
glyphname = deleteLeftKey;
lastChange = "2021-01-03 21:52:44 +0000";
layers = (
{
layerId = "74E8EC48-609C-4650-B918-3C45F21958A5";
paths = (
{
closed = 1;
nodes = (
"292 255 LINE",
"390 255 LINE",
"318 430 LINE",
"390 607 LINE",
"292 607 LINE",
"220 430 LINE"
);
},
{
closed = 1;
nodes = (
"709 862 LINE",
"564 862 LINE",
"388 431 LINE",
"564 0 LINE",
"709 0 LINE",
"562 254 LINE",
"489 431 LINE",
"562 608 LINE"
);
},
{
closed = 1;
nodes = (
"363 862 LINE",
"218 862 LINE",
"42 431 LINE",
"218 0 LINE",
"363 0 LINE",
"216 254 LINE",
"143 431 LINE",
"216 608 LINE"
);
},
{
closed = 1;
nodes = (
"784 387 LINE",
"1240 387 LINE",
"1444 364 LINE",
"1444 496 LINE",
"1240 474 LINE",
"784 474 LINE",
"580 496 LINE",
"580 364 LINE"
);
}
);
userData = {
com.schriftgestaltung.Glyphs.lastChange = "2019-07-04 13:04:21 +0000";
};
width = 1486;
}
);
unicode = 232B;
},
{
glyphname = deleterightKey;
lastChange = "2021-01-03 21:52:44 +0000";
layers = (
{
layerId = "74E8EC48-609C-4650-B918-3C45F21958A5";
paths = (
{
closed = 1;
nodes = (
"1194 607 LINE",
"1096 607 LINE",
"1168 430 LINE",
"1096 255 LINE",
"1194 255 LINE",
"1266 430 LINE"
);
},
{
closed = 1;
nodes = (
"997 431 LINE",
"924 254 LINE",
"777 0 LINE",
"922 0 LINE",
"1098 431 LINE",
"922 862 LINE",
"777 862 LINE",
"924 608 LINE"
);
},
{
closed = 1;
nodes = (
"1343 431 LINE",
"1270 254 LINE",
"1123 0 LINE",
"1268 0 LINE",
"1444 431 LINE",
"1268 862 LINE",
"1123 862 LINE",
"1270 608 LINE"
);
},
{
closed = 1;
nodes = (
"906 496 LINE",
"702 474 LINE",
"246 474 LINE",
"42 496 LINE",
"42 364 LINE",
"246 387 LINE",
"702 387 LINE",
"906 364 LINE"
);
}
);
userData = {
com.schriftgestaltung.Glyphs.lastChange = "2019-07-04 13:04:21 +0000";
};
width = 1486;
}
);
unicode = 2326;
},
{
glyphname = topsquarebracket;
lastChange = "2021-01-03 21:52:44 +0000";
layers = (
{
layerId = "74E8EC48-609C-4650-B918-3C45F21958A5";
paths = (
{
closed = 1;
nodes = (
"42 862 LINE",
"67 658 LINE",
"68 0 LINE",
"438 -1 LINE",
"413 203 LINE",
"413 547 LINE",
"216 547 LINE",
"216 301 LINE",
"161 301 LINE",
"161 775 LINE",
"759 775 LINE",
"759 301 LINE",
"704 301 LINE",
"704 547 LINE",
"507 547 LINE",
"507 203 LINE",
"482 -1 LINE",
"852 0 LINE",
"853 658 LINE",
"878 862 LINE"
);
}
);
userData = {
com.schriftgestaltung.Glyphs.lastChange = "2019-07-04 13:00:02 +0000";
};
width = 920;
}
);
unicode = 23B4;
},
{
glyphname = at.ss01;
lastChange = "2021-01-03 21:52:44 +0000";
layers = (
{
layerId = "74E8EC48-609C-4650-B918-3C45F21958A5";
paths = (
{
closed = 1;
nodes = (
"65 862 LINE",
"65 203 LINE",
"42 0 LINE",
"159 0 LINE",
"159 775 LINE",
"405 775 LINE",
"405 503 LINE",
"214 503 LINE",
"214 0 LINE",
"522 0 LINE",
"499 204 LINE",
"499 416 LINE",
"582 416 LINE",
"582 503 LINE",
"499 503 LINE",
"499 658 LINE",
"522 862 LINE"
);
},
{
closed = 1;
nodes = (
"308 416 LINE",
"405 416 LINE",
"405 87 LINE",
"322 87 LINE",
"308 203 LINE"
);
}
);
userData = {
com.schriftgestaltung.Glyphs.lastChange = "2019-07-04 14:34:22 +0000";
};
width = 614;
}
);
note = "\012    at\012  ";
},
{
glyphname = registered.ss02;
lastChange = "2021-01-03 21:52:44 +0000";
layers = (
{
layerId = "74E8EC48-609C-4650-B918-3C45F21958A5";
paths = (
{
closed = 1;
nodes = (
"590 -35 LINE",
"825 -35 LINE",
"800 171 LINE",
"800 1006 LINE",
"65 1006 LINE",
"65 16 LINE",
"42 -187 LINE",
"826 -187 LINE",
"826 -100 LINE",
"159 -100 LINE",
"159 919 LINE",
"706 919 LINE",
"706 52 LINE",
"590 52 LINE"
);
},
{
closed = 1;
nodes = (
"260 862 LINE",
"260 203 LINE",
"237 0 LINE",
"354 0 LINE",
"354 317 LINE",
"425 317 LINE",
"569 -35 LINE",
"710 -35 LINE",
"563 219 LINE",
"522 317 LINE",
"627 317 LINE",
"602 520 LINE",
"602 862 LINE"
);
},
{
closed = 1;
nodes = (
"354 778 LINE",
"508 778 LINE",
"508 401 LINE",
"354 401 LINE"
);
}
);
userData = {
com.schriftgestaltung.Glyphs.lastChange = "2019-07-06 07:50:15 +0000";
};
width = 868;
}
);
},
